<svg xmlns="http://www.w3.org/2000/svg" width="214" height="153" viewBox="0 0 214 153" fill="none">
    <path fill-rule="evenodd" clip-rule="evenodd"
        d="M112.005 57.425C111.839 57.1858 111.543 57.4702 111.667 57.6429C111.78 57.5704 111.893 57.4977 112.005 57.425ZM116.583 58.7537C116.397 58.6612 116.333 58.8069 116.26 58.9748C116.239 59.024 116.216 59.0752 116.19 59.1229C116.357 59.2146 116.434 59.0535 116.512 58.8904C116.535 58.8431 116.558 58.7954 116.583 58.7537ZM113.359 53.0154C112.986 52.5394 112.958 52.6992 112.927 53.2417C112.999 53.204 113.072 53.1662 113.144 53.1283C113.216 53.0908 113.288 53.0531 113.359 53.0154ZM164.434 27.2692C163.963 27.4892 163.913 27.649 164.294 27.9181C164.339 27.7088 164.372 27.5552 164.434 27.2692ZM111.84 49.4658C111.951 49.8296 112.406 49.9079 112.406 49.4658H111.84ZM147.105 30.7213C147.376 30.8075 147.515 30.8517 147.637 30.8238C147.764 30.7948 147.874 30.6877 148.097 30.469C147.987 30.4971 147.888 30.5223 147.794 30.5463C147.718 30.5656 147.644 30.5842 147.57 30.6031C147.427 30.6394 147.281 30.6765 147.105 30.7213ZM134.517 68.006C134.356 67.7798 134.196 67.5537 134.035 67.3275C133.981 67.4937 133.927 67.6602 133.873 67.8264L133.872 67.8275L133.832 67.9502C134.06 67.9687 134.288 67.9873 134.517 68.006ZM167.043 21.7086C166.98 22.0106 166.948 22.16 167.008 22.2454C167.066 22.329 167.212 22.3513 167.501 22.3956L167.284 22.0704L167.257 22.0296C167.191 21.9304 167.122 21.8267 167.043 21.7086ZM164.497 22.6536C164.477 22.5552 164.457 22.4567 164.437 22.3583L164.434 22.3433C164.415 22.25 164.396 22.1567 164.377 22.0631C164.343 22.2133 164.212 22.2052 164.086 22.1971C163.977 22.1902 163.87 22.1836 163.83 22.2779C163.629 22.745 164.267 22.6817 164.497 22.6536ZM115.999 57.5056C115.859 57.2292 115.828 57.2077 115.523 57.1498C115.602 57.4256 115.601 57.641 115.601 57.9171V57.9744C116.099 57.904 116.256 57.8677 116.265 57.3383L115.999 57.5056ZM114.545 58.4821C114.479 58.7269 114.293 58.6677 114.134 58.6171C113.99 58.5712 113.869 58.5327 113.88 58.7337C113.873 58.6175 114.452 59.3812 114.419 59.3567C114.71 59.5756 114.879 59.555 115.209 59.3037C114.739 59.286 114.684 59.0514 114.612 58.7364C114.593 58.6562 114.573 58.5706 114.545 58.4821ZM168.126 22.4248C168.024 22.6602 167.921 22.8958 167.819 23.1313L167.796 23.1833C167.701 23.4015 167.606 23.6196 167.511 23.8375C167.468 23.9365 167.435 24.0238 167.406 24.0992C167.269 24.4563 167.232 24.5531 166.734 24.3967C166.751 24.3675 166.792 24.3098 166.843 24.2375V24.2373C166.997 24.0196 167.244 23.6694 167.217 23.5633C167.191 23.4636 166.946 23.3402 166.723 23.2286C166.585 23.1594 166.457 23.0948 166.394 23.0429C166.214 22.8929 166.148 22.7563 166.079 22.6117C166.038 22.5267 165.995 22.4386 165.927 22.3436C166 22.1052 165.944 21.9938 165.757 22.0098C165.704 22.1538 165.65 22.2975 165.597 22.4413L165.594 22.4504L165.552 22.5621C165.562 22.7836 165.672 22.8681 165.801 22.9675C165.9 23.044 166.011 23.129 166.096 23.2917L166.112 23.3227C166.235 23.5583 166.271 23.6263 166.251 23.6692C166.243 23.6865 166.226 23.6996 166.202 23.7181C166.152 23.7567 166.073 23.8181 165.983 23.9875C165.9 24.1436 165.843 24.3146 165.787 24.4808C165.68 24.7973 165.58 25.0971 165.321 25.2463C165.533 25.3394 165.745 25.4325 165.957 25.5254C165.462 26.0688 166.493 25.8042 166.663 25.7515L166.663 25.7525L166.662 25.7536C166.488 26.1227 166.314 26.4917 166.14 26.8608C165.754 26.6448 165.512 26.2854 165.271 25.9279C165.187 25.8023 165.103 25.6767 165.012 25.5577C164.747 26.0494 164.482 26.5413 164.217 27.0331C164.338 27.0221 164.459 27.0108 164.579 26.9998C164.722 26.9867 164.865 26.9736 165.008 26.9602C164.999 26.9761 164.976 27.0125 164.945 27.0606L164.944 27.0608C164.837 27.2261 164.64 27.5294 164.662 27.6113C164.716 27.8061 164.927 27.8633 165.135 27.9194C165.387 27.9877 165.633 28.0542 165.578 28.3638C165.565 28.4361 164.761 29.2458 164.623 29.324C164.708 29.3621 164.783 29.3888 164.848 29.4119C165.09 29.4979 165.18 29.53 165.065 29.906C164.878 29.7929 164.69 29.6796 164.503 29.5663C164.467 29.6294 164.431 29.6921 164.395 29.755L164.394 29.7552C164.265 29.9777 164.136 30.2017 164.056 30.4463C164.075 30.6515 164.039 30.8458 163.946 31.0296C163.835 31.194 163.711 31.3473 163.572 31.4894C163.463 31.7779 163.427 33.3529 163.56 33.6098C163.855 33.2292 164.514 33.901 163.401 33.901C163.308 33.901 163.234 33.8975 163.174 33.8944C162.919 33.8817 162.911 33.8813 162.76 34.2273C162.614 34.5638 162.535 34.8573 162.95 34.8896C162.699 35.3833 162.693 35.786 162.686 36.2648C162.684 36.3819 162.682 36.5035 162.676 36.6321C162.659 37.0427 162.565 37.4513 162.473 37.8563C162.446 37.9746 162.419 38.0925 162.394 38.2102C162.444 38.1394 162.493 38.0685 162.542 37.9975C162.592 37.9267 162.641 37.8558 162.691 37.7848C162.909 38.2504 162.812 38.6558 162.7 39.1217C162.676 39.2235 162.65 39.3285 162.628 39.4375C162.469 39.2281 162.39 39.3533 162.307 39.4854C162.245 39.5833 162.181 39.685 162.081 39.6563C161.796 39.575 161.805 39.5065 161.82 39.3988C161.831 39.3242 161.844 39.2308 161.763 39.1015C161.726 39.0419 161.698 38.9915 161.674 38.9473C161.585 38.7894 161.543 38.7127 161.297 38.5819C160.999 38.4229 160.539 38.3735 160.129 38.3296C159.967 38.3121 159.812 38.2956 159.678 38.2733C158.896 38.1431 158.113 38.1092 157.322 38.0748L157.29 38.0733C154.289 37.9433 151.298 37.91 148.297 38.0748C145.536 38.2265 142.708 38.6131 140.001 39.1369C139.808 39.1742 139.615 39.2115 139.423 39.2485C136.741 39.7652 134.113 40.2717 131.508 41.1517C131.268 41.2329 131.028 41.3533 130.787 41.4735V41.4738C130.488 41.6238 130.188 41.7738 129.889 41.8477C129.679 41.9 129.468 41.9304 129.255 41.9613C128.952 42.005 128.645 42.0492 128.332 42.1579C127.625 42.4029 126.905 42.6152 126.185 42.8275C125.603 42.999 125.021 43.1706 124.446 43.3594C124.078 43.4804 123.702 43.596 123.323 43.7125C122.275 44.0346 121.208 44.3625 120.239 44.8256C119.948 44.9646 119.671 45.1285 119.394 45.2925C119.124 45.4521 118.855 45.6119 118.572 45.7485C118.453 45.806 118.317 45.8623 118.174 45.9215C117.664 46.1323 117.062 46.381 116.839 46.8523C116.728 47.0877 116.747 47.2583 116.816 47.5023C116.944 47.954 117.047 47.944 117.357 47.9138C117.383 47.911 117.411 47.9085 117.44 47.9058C117.77 47.8769 118.16 47.7048 118.531 47.5415C118.75 47.4452 118.961 47.3521 119.149 47.2927C120.541 46.8548 121.949 46.5042 123.365 46.1533C124.433 45.8885 125.503 45.5377 126.571 45.1877C128.044 44.7052 129.512 44.224 130.966 43.9708C131.713 43.8408 132.44 43.5985 133.169 43.356C133.89 43.1156 134.613 42.8748 135.358 42.7425C135.464 42.7235 135.637 42.6613 135.831 42.5915C136.232 42.4467 136.723 42.2694 136.905 42.3783C136.953 42.4071 137.047 42.6465 137.122 42.8385C137.159 42.9333 137.192 43.0167 137.212 43.0571C137.433 43.4979 137.687 43.9235 137.983 44.3183C138.64 45.1923 139.46 45.9415 140.274 46.684L140.274 46.6842C140.568 46.9529 140.862 47.2208 141.146 47.4933C142.044 48.3535 142.855 49.279 143.669 50.2077V50.2079C143.964 50.5444 144.259 50.8815 144.559 51.2158C144.613 51.1544 144.666 51.0927 144.719 51.0312L144.853 50.8754C144.758 51.6067 145.255 52.1502 145.714 52.6525C145.734 52.6737 145.753 52.6948 145.772 52.716C145.793 52.7381 145.813 52.7602 145.833 52.7821C146.41 53.4229 146.875 54.0252 147.331 54.7558C147.59 55.171 147.9 55.5506 148.206 55.926C148.341 56.0923 148.476 56.2579 148.606 56.4254C148.848 56.7379 149.043 57.0879 149.238 57.4398C149.379 57.6931 149.521 57.9473 149.681 58.1894C150.015 58.6958 150.347 59.2058 150.679 59.7158C151.219 60.5448 151.759 61.3733 152.307 62.1852C152.724 62.8025 153.053 63.4971 153.383 64.1998C153.462 64.3681 153.588 64.5894 153.727 64.831V64.8312C154.048 65.391 154.432 66.0612 154.432 66.4389C154.413 66.5277 154.465 66.7656 154.52 67.0146C154.628 67.5089 154.745 68.0464 154.336 67.5469C154.308 67.5898 154.28 67.6327 154.253 67.6756L154.212 67.7385C154.185 67.7804 154.158 67.8223 154.131 67.8639C154.101 67.91 154.071 67.956 154.041 68.0019C154.21 67.9314 154.377 67.861 154.546 67.7906C154.224 68.0819 154.484 68.2131 154.725 68.335C154.867 68.4065 155.002 68.4746 155.01 68.57C154.971 68.6075 154.932 68.6448 154.894 68.6821L154.755 68.8156C154.61 69.1144 154.421 69.1531 154.189 68.9319C154.082 68.9383 154.011 68.9175 153.944 68.8977C153.85 68.8698 153.763 68.8442 153.596 68.8998C153.715 69.0846 153.848 69.1383 153.973 69.1881C154.134 69.2529 154.28 69.3114 154.358 69.6431C154.456 70.0594 154.226 70.2125 153.92 70.4158C153.838 70.4704 153.751 70.5285 153.663 70.5964V70.596L153.652 70.5942C153.675 70.2681 153.515 70.0281 153.228 69.8762V70.5169C153.307 70.5312 153.386 70.5456 153.465 70.56L153.467 70.5604L153.652 70.5942C153.652 70.5979 153.651 70.6019 153.651 70.6056L153.663 70.5964C153.595 70.8546 153.398 70.8071 153.161 70.7504C153.12 70.7404 153.077 70.7302 153.034 70.7212C152.524 70.6164 151.973 70.4383 151.452 70.2698C151.289 70.2169 151.128 70.165 150.972 70.1164C149.563 69.6775 148.143 69.3075 146.686 69.0073C144.212 68.4975 141.753 68.385 139.274 68.2714H139.274C138.421 68.2323 137.567 68.1931 136.708 68.1377C136.712 68.1194 136.717 68.1021 136.721 68.0856C136.763 67.9106 136.78 67.8394 136.77 67.7725C136.762 67.7267 136.742 67.6831 136.708 67.6094C136.703 67.5987 136.698 67.5875 136.692 67.5754C136.745 67.691 136.65 67.701 136.554 67.711C136.407 67.7262 136.258 67.7419 136.627 68.1306C135.664 68.2879 134.653 68.275 133.648 68.2621C133.027 68.2542 132.407 68.2462 131.803 68.2785C131.819 68.2425 131.841 68.205 131.861 68.1675C131.936 68.035 132.011 67.9004 131.888 67.8079C131.351 68.5825 129.915 68.5642 128.689 68.5483C128.204 68.5423 127.752 68.5364 127.402 68.5802C126.978 68.6333 126.558 68.7148 126.138 68.796C125.837 68.8544 125.537 68.9127 125.235 68.9604C125.184 68.9685 125.134 68.9764 125.083 68.9842C124.778 69.0317 124.472 69.0794 124.174 69.1598C124.065 69.1892 123.932 69.2494 123.791 69.3129C123.518 69.436 123.218 69.5714 123.019 69.5173C123.325 68.9002 123.176 69.0785 123.031 69.251C122.966 69.3283 122.902 69.4044 122.881 69.4075C122.839 69.4137 122.791 69.4214 122.739 69.43C122.528 69.4639 122.247 69.5094 122.005 69.5094C122.147 68.9389 122.331 68.3871 122.515 67.8354C122.778 67.0492 123.04 66.2635 123.18 65.426C123.198 65.3181 123.22 65.2023 123.243 65.0808V65.0806C123.409 64.2019 123.63 63.0304 122.858 62.4773C122.475 62.2031 121.897 62.0996 121.397 62.0098H121.396C121.267 61.9867 121.143 61.9644 121.028 61.9402C120.838 61.9002 120.603 61.8731 120.354 61.8444C119.803 61.781 119.183 61.7094 118.816 61.4717C118.66 61.3702 118.55 61.2719 118.445 61.1777C118.27 61.0212 118.108 60.8765 117.769 60.7477C117.645 60.7006 117.534 60.6537 117.431 60.6102C117.013 60.4331 116.726 60.3117 116.217 60.4658C116.258 60.4144 116.302 60.365 116.345 60.3171C116.569 60.0654 116.756 59.855 116.33 59.5779C116.248 59.5242 116.133 59.5208 116.021 59.5173C115.851 59.5121 115.687 59.5071 115.643 59.3296C115.368 59.524 115.342 59.691 115.308 59.9094C115.296 59.9889 115.283 60.0754 115.256 60.1725C115.265 60.3262 115.305 60.4729 115.378 60.6121L115.123 60.7146L114.781 60.8521C114.856 60.6496 114.755 60.64 114.644 60.6296C114.57 60.6227 114.492 60.6154 114.462 60.5481C114.381 60.3637 114.395 60.1075 114.408 59.8769C114.413 59.7958 114.417 59.7179 114.417 59.6475C114.007 59.7769 113.578 59.9369 113.399 60.3631C113.001 60.1265 113.044 60.0644 113.206 59.826C113.249 59.7633 113.3 59.6885 113.354 59.5952C112.932 59.4956 112.843 59.7123 112.779 60.061C112.619 60.0117 112.459 59.9625 112.3 59.9133L112.295 59.9117L112.111 59.8552C112.613 59.8517 112.733 59.4604 112.745 59.0354C112.661 59.0627 112.577 59.09 112.493 59.1173L112.491 59.1181C112.381 59.1539 112.27 59.1898 112.16 59.2256L112.04 59.8425C111.76 60.079 111.074 59.7121 110.757 59.5427L110.757 59.5425C110.725 59.5256 110.697 59.5108 110.674 59.4985L110.593 59.4567C109.75 59.0214 109.443 58.8627 109.567 57.8312C109.611 57.4642 109.676 57.0962 109.742 56.7277C109.836 56.2017 109.931 55.6746 109.961 55.1473C110.013 54.2687 109.928 53.3365 109.848 52.4475C109.837 52.329 109.826 52.2112 109.816 52.0944C109.753 51.384 109.677 50.6771 109.6 49.971V49.9708C109.469 48.7683 109.339 47.5675 109.278 46.3525C109.265 46.0729 109.25 45.7933 109.236 45.5135L109.236 45.5133C109.197 44.7487 109.158 43.9842 109.128 43.2192C109.123 43.0821 109.11 42.9429 109.098 42.8054C109.037 42.11 108.98 41.4629 109.846 41.4013C109.719 40.9992 110.099 40.5342 110.491 40.314C110.628 40.0021 110.778 39.9742 110.94 40.2306C111.082 40.275 111.213 40.2542 111.335 40.1677C111.684 40.0888 112.076 39.7556 112.444 39.4419C112.679 39.2423 112.904 39.0506 113.104 38.9371C113.24 38.8596 113.42 38.7723 113.617 38.6769H113.618C114.147 38.4206 114.8 38.1046 115.061 37.7535C115.256 37.4929 115.177 37.3946 115.088 37.2838C115.019 37.1963 114.943 37.1013 114.99 36.9129C115.125 36.3663 115.597 37.0671 115.722 37.254C115.731 37.2665 115.738 37.2769 115.743 37.2842C115.799 37.2277 115.906 37.1554 116.025 37.0748C116.28 36.9031 116.59 36.6935 116.584 36.5185L116.09 36.4304C116.143 36.4 116.214 36.3517 116.295 36.2977C116.488 36.1675 116.731 36.004 116.879 35.975C116.955 35.9602 117.009 35.9444 117.05 35.9325C117.099 35.9179 117.128 35.9092 117.153 35.9158C117.189 35.925 117.217 35.9652 117.285 36.0625C117.312 36.1013 117.345 36.149 117.387 36.2073C117.415 36.1642 117.455 36.0931 117.5 36.0113V36.011C117.615 35.8015 117.771 35.5196 117.879 35.446C117.922 35.4173 118.088 35.3942 118.235 35.3738C118.339 35.3592 118.433 35.346 118.47 35.3329C118.73 35.2415 118.83 35.0888 118.928 34.9417C119.005 34.824 119.081 34.7096 119.233 34.6329C119.322 34.5883 119.422 34.6042 119.517 34.6194C119.6 34.6327 119.679 34.6452 119.744 34.6169C119.861 34.5658 119.917 34.4498 119.973 34.3338C120.024 34.2285 120.074 34.1233 120.17 34.066C120.265 34.0096 120.438 34.009 120.611 34.0083C120.757 34.0079 120.903 34.0073 120.999 33.9723C121.231 33.8877 121.301 33.8071 121.399 33.694C121.448 33.6379 121.503 33.574 121.589 33.4973C121.797 33.3121 121.995 33.2483 122.203 33.1815C122.357 33.1317 122.517 33.0802 122.69 32.9754C122.895 32.851 122.984 32.65 123.067 32.4646C123.152 32.2717 123.231 32.0956 123.424 32.0398C123.643 31.9771 123.792 32.0304 123.912 32.0736C124.071 32.1306 124.181 32.17 124.338 31.9C124.363 31.8573 124.332 31.806 124.298 31.749C124.248 31.6638 124.189 31.5658 124.295 31.4635C124.484 31.281 124.577 31.4458 124.663 31.5996C124.677 31.6229 124.69 31.646 124.703 31.6677L124.703 31.6665L124.704 31.6652C124.819 31.4496 124.933 31.234 125.047 31.0183C125.385 31.2031 125.43 31.1292 125.51 30.9965C125.56 30.9121 125.626 30.804 125.789 30.7233C125.879 30.6792 125.961 30.6981 126.045 30.7175C126.136 30.7383 126.229 30.7598 126.336 30.7019C126.426 30.6531 126.471 30.5698 126.517 30.4873C126.547 30.4317 126.577 30.3765 126.621 30.3321C126.684 30.2679 126.738 30.1965 126.793 30.1252C126.918 29.9615 127.042 29.799 127.266 29.7285C127.15 29.7648 128.105 29.7373 128.02 29.6965C127.927 29.5602 127.834 29.424 127.741 29.2877C127.842 29.2877 127.941 29.2898 128.038 29.2919H128.038C128.42 29.2996 128.775 29.3071 129.161 29.1873L129.169 29.185C129.341 29.1319 129.602 29.0511 129.742 28.944L129.754 28.9352C129.927 28.8029 130.003 28.7452 130.034 28.6692C130.058 28.61 130.056 28.5398 130.051 28.4152C130.049 28.35 130.046 28.27 130.046 28.1688C130.586 28.5121 131.273 28.3921 131.806 27.994C131.925 27.905 132.026 27.8085 132.126 27.7125C132.26 27.5842 132.393 27.4569 132.568 27.3494C132.699 27.2817 132.832 27.2183 132.967 27.1596C133.137 26.9846 133.306 26.9829 133.476 27.1548C133.646 27.1094 133.694 27.074 133.773 27.0163C133.807 26.9921 133.845 26.964 133.9 26.9296C133.953 26.8242 134.01 26.7206 134.071 26.6192C134.271 26.5983 134.468 26.5623 134.662 26.5111C134.881 26.4525 135.074 26.3686 135.256 26.2898C135.701 26.0967 136.075 25.9346 136.572 26.2511L136.627 26.1396L136.629 26.1356C136.7 25.9917 136.77 25.8477 136.841 25.7038C137.052 26.0331 137.216 25.9065 137.434 25.7375C137.524 25.6679 137.623 25.5913 137.738 25.5363C137.823 25.4961 137.92 25.4713 138.015 25.4471C138.106 25.4238 138.195 25.4011 138.269 25.3656C138.353 25.3854 138.438 25.4054 138.522 25.4254C138.594 25.2046 138.665 24.9838 138.736 24.7629C138.774 24.7777 138.842 24.8098 138.924 24.8488C139.153 24.9579 139.497 25.1213 139.623 25.1092C139.758 25.0965 139.908 24.9656 140.055 24.8371C140.175 24.7313 140.294 24.6269 140.402 24.5915C140.609 24.5233 140.656 24.5452 140.724 24.5773C140.776 24.6017 140.839 24.6315 140.993 24.6325C141.029 24.6327 141.062 24.6338 141.093 24.6346C141.303 24.64 141.428 24.6433 141.634 24.4429C140.968 24.2702 141.552 24.1733 141.964 24.105C142.048 24.0911 142.125 24.0783 142.182 24.0663C142.328 24.0361 142.454 24.0229 142.569 24.0113C142.867 23.9806 143.082 23.9586 143.346 23.6581H142.966C143.244 23.4058 143.247 23.4065 143.39 23.4373C143.44 23.4479 143.507 23.4625 143.609 23.4711C143.637 23.4733 143.685 23.4896 143.743 23.5094C143.947 23.5788 144.275 23.6902 144.275 23.3823C144.785 23.6825 144.791 23.6831 145.317 23.5477C145.412 23.5231 145.502 23.4758 145.592 23.4283C145.722 23.3598 145.853 23.2906 146.004 23.2879C146.123 23.2858 146.225 23.3104 146.325 23.334C146.434 23.36 146.539 23.3848 146.655 23.3721C146.775 23.3594 147.163 23.2173 147.355 23.1469C147.377 23.1388 147.397 23.1317 147.413 23.1258C147.534 23.0815 147.636 23.0127 147.736 22.945C147.841 22.8738 147.944 22.8038 148.067 22.7652C148.207 22.7211 148.368 22.7283 148.529 22.7356C148.67 22.7421 148.812 22.7486 148.942 22.7202C149.21 22.6613 149.442 22.5692 149.664 22.4811C150.123 22.2992 150.537 22.1346 151.137 22.314C151.229 21.5402 152.171 21.6858 152.714 21.77L152.76 21.7771C152.859 21.7925 152.946 21.8144 153.027 21.835C153.247 21.8911 153.425 21.9363 153.707 21.8027C153.843 21.7383 153.954 21.6575 154.065 21.5771C154.208 21.4723 154.351 21.3681 154.549 21.3013C154.774 21.225 155.064 21.1663 155.317 21.115C155.366 21.1052 155.412 21.0958 155.457 21.0865C155.63 21.0319 155.806 21.0144 155.987 21.0342C156.18 21.0613 156.339 21.1486 156.466 21.2958C156.462 21.304 156.465 21.3083 156.475 21.3075C156.472 21.3036 156.469 21.2998 156.466 21.2958C156.493 21.2308 156.914 20.9188 156.866 20.9573C156.965 20.8783 157.047 20.8338 157.12 20.7944C157.278 20.7086 157.389 20.6481 157.521 20.3123C157.409 20.2888 157.297 20.265 157.184 20.2413C157.072 20.2177 156.96 20.194 156.847 20.1702C156.887 20.1675 156.926 20.1648 156.964 20.1619C157.255 20.14 157.491 20.1225 157.764 20.2417C157.854 20.2813 157.971 20.3929 158.092 20.5083C158.255 20.665 158.426 20.8286 158.549 20.8288C158.936 20.8292 159.071 20.2852 159.033 20.0021C159.357 20.7565 159.634 20.8821 160.362 20.4965C160.405 20.4738 160.448 20.4513 160.491 20.4286L160.496 20.4256C160.537 20.404 160.578 20.3823 160.619 20.3604C160.792 20.179 160.965 20.1823 161.136 20.3706C161.238 20.4261 161.339 20.4813 161.441 20.5367L161.519 20.4083C161.615 20.2477 161.712 20.0871 161.809 19.9263C162.069 20.2838 162.316 20.3013 162.739 20.2177C162.883 20.1894 163.102 20.0465 163.313 19.9088C163.53 19.7671 163.738 19.6313 163.847 19.6313C163.907 19.6313 163.974 19.7004 164.051 19.7792C164.135 19.8656 164.231 19.9638 164.34 19.9948C164.685 20.0936 165.22 19.8452 165.343 19.5156C165.408 19.6531 165.474 19.7908 165.539 19.9286C165.58 19.8908 165.62 19.8529 165.661 19.8152C165.783 19.7011 165.906 19.5867 166.027 19.4717C166.071 19.8469 166.358 19.8411 166.607 19.8361C166.792 19.8323 166.956 19.829 166.988 19.9788C167.026 20.1542 166.513 20.5348 166.208 20.7615C166.127 20.8217 166.06 20.8713 166.023 20.9029C166.505 21.1938 167.099 20.6858 167.536 20.3123C167.624 20.2367 167.706 20.1665 167.78 20.1096C168.004 20.3527 168.08 20.4804 167.874 20.7586C167.685 21.014 167.599 20.9606 167.499 20.8986C167.406 20.8413 167.302 20.7767 167.095 20.9406C167.238 21.1811 167.367 21.1206 167.529 21.045C167.571 21.0254 167.615 21.005 167.662 20.9883C167.604 21.3273 167.655 21.3436 167.743 21.3711C167.806 21.3908 167.887 21.4165 167.96 21.5698C168.067 21.7958 168.083 21.9773 168.103 22.1965C168.109 22.2677 168.116 22.3429 168.126 22.4248ZM101.581 51.7342C101.775 51.7175 101.83 51.8073 101.88 51.8881C101.922 51.9565 101.959 52.0181 102.074 52.0031C102.171 51.9904 102.25 51.8875 102.33 51.7819C102.4 51.6902 102.471 51.5965 102.558 51.5587C102.951 51.3869 103.523 51.3604 104.047 51.3362C104.293 51.325 104.528 51.314 104.731 51.2887C105.064 51.2473 105.377 51.1498 105.687 51.0533V51.0531C105.979 50.9627 106.267 50.8729 106.567 50.831C106.821 50.7956 107.007 50.8417 107.248 50.9121C107.266 50.9173 107.283 50.9221 107.299 50.9269C107.524 50.9925 107.636 51.0248 107.703 51.0975C107.768 51.1681 107.792 51.2771 107.838 51.4919L107.84 51.5006C108.087 52.6362 107.896 53.844 107.706 55.0508C107.457 56.6319 107.208 58.2112 107.941 59.6252C104.159 59.5946 100.368 59.67 96.6075 60.1127C96.6075 59.7806 96.61 59.4487 96.6125 59.1169C96.6208 58.0217 96.6292 56.9277 96.5464 55.8331C96.5084 55.3325 96.4561 54.8333 96.4037 54.334V54.3337C96.3883 54.1877 96.3731 54.0415 96.358 53.8952C96.2794 53.125 96.298 53.1212 96.8584 53.0062C96.8941 52.999 96.932 52.9912 96.9723 52.9827C97.1721 52.9408 97.2993 52.8508 97.4333 52.756C97.5357 52.6835 97.6422 52.6081 97.7883 52.5492C97.9578 52.4806 98.0646 52.5146 98.1918 52.555C98.2544 52.5748 98.3218 52.5962 98.4042 52.6077C98.7256 52.6531 98.8182 52.6269 98.998 52.5762C99.0677 52.5565 99.1503 52.5331 99.2646 52.5087C99.4777 52.4633 99.6832 52.4329 99.882 52.4035C100.501 52.3119 101.056 52.2296 101.581 51.7342ZM168.073 28.3983C168.018 28.3665 167.964 28.3348 167.909 28.3029C167.263 29.6706 166.839 31.096 166.41 32.5402C166.348 32.7506 166.285 32.9615 166.221 33.1727C165.963 34.0342 165.705 34.8958 165.448 35.7579C165.401 35.9165 165.344 36.0808 165.285 36.2488C165.09 36.8065 164.882 37.4029 164.988 37.9485C165.805 36.6915 166.582 35.4088 167.32 34.1044C167.68 33.4683 168.031 32.8273 168.374 32.1821C168.418 32.0985 168.474 32.0096 168.53 31.9179C168.654 31.7188 168.787 31.5063 168.835 31.3038C168.896 31.044 168.958 30.9671 168.941 30.9202C168.924 30.8767 168.839 30.8592 168.619 30.7454C168.794 30.5471 168.908 30.6019 169.003 30.6475C169.058 30.6733 169.106 30.6965 169.155 30.6677C169.277 30.5971 169.443 30.3779 169.574 30.2044C169.628 30.1329 169.677 30.069 169.714 30.0267C169.612 29.9977 169.443 29.9663 169.248 29.9296C168.745 29.8352 168.063 29.7075 167.875 29.5023C167.576 29.1742 167.896 28.8881 168.21 28.6075C168.24 28.5813 168.269 28.5552 168.297 28.529C168.223 28.4854 168.148 28.4419 168.073 28.3983Z"
        fill="#F3F3F1" />
    <path fill-rule="evenodd" clip-rule="evenodd"
        d="M82.723 83.8573C82.6345 84.3121 82.4134 84.5262 82.6452 84.9439C82.8418 85.2987 83.4058 85.531 83.7844 85.4412L82.723 83.8573ZM72.4664 67.681L70.599 68.3204C71.1094 68.8206 71.5958 69.3464 72.1585 69.7906L72.4664 67.681ZM103.269 69.3185C102.378 68.8702 101.381 68.8196 100.404 68.7621C100.553 69.5627 100.701 70.3635 100.85 71.1641C101.656 70.5489 102.463 69.9337 103.269 69.3185ZM81.8828 131.297C81.7051 130.982 80.4929 128.553 80.2409 128.678C80.1072 128.744 80.0968 130.096 80.0772 130.289C80.0077 130.973 79.938 131.657 79.8686 132.341C80.5857 132.088 81.3516 131.878 81.8828 131.297ZM73.4129 111.66C73.5963 112.197 73.7798 112.734 73.9631 113.271C74.0503 113.526 74.1014 113.902 74.2558 114.128C74.4562 114.42 74.305 114.592 74.5726 114.272C74.86 113.928 74.946 113.012 75.0707 112.591C75.2603 111.952 75.4497 111.313 75.6391 110.674C74.7461 110.666 74.2049 111.401 73.4129 111.66ZM54.6489 80.0479C53.551 80.7975 52.4395 81.541 51.4842 82.4727C52.3245 82.4204 53.4947 82.9979 54.2862 82.7266C54.6516 82.8046 54.7724 82.666 54.6489 82.3106V81.5723V80.0479ZM70.9288 85.3504V89.7269C71.9539 88.8544 73.0329 88.0439 74.0192 87.1264C72.9891 86.5344 71.9591 85.9425 70.9288 85.3504ZM107.576 96.6902C107.252 98.6385 107.235 100.644 107.146 102.615C107.13 102.965 106.995 103.492 107.229 103.799C107.463 104.106 108.13 104.276 108.469 104.44C109.424 104.902 110.371 105.377 111.323 105.845C110.074 102.794 108.825 99.7418 107.576 96.6902ZM131.802 84.7083C134.156 83.5525 136.511 82.3966 138.865 81.2406C136.557 80.2646 134.248 79.2887 131.94 78.3127C131.894 80.4446 131.848 82.5766 131.802 84.7083ZM107.571 90.1502C108.001 90.181 108.069 88.5441 108.14 88.1112C108.276 87.2896 108.415 86.4685 108.557 85.6479C108.842 84.0075 109.142 82.3696 109.457 80.7348C110.088 77.4656 110.784 74.2087 111.555 70.9698C110.726 70.8206 109.965 70.7133 109.156 70.4725C108.502 70.2779 107.724 70.3837 107.141 69.9791C107.065 71.4969 107.445 73.1104 107.585 74.6281C107.748 76.3841 107.835 78.131 107.821 79.895C107.792 83.3135 107.662 86.7329 107.571 90.1502ZM53.3864 136.467C53.7944 136.358 53.2389 130.772 53.2141 129.966C53.1432 127.634 53.1294 125.3 53.1711 122.967C50.9732 124.344 48.7241 125.612 46.4022 126.755C46.9989 127.528 47.5581 128.362 48.2185 129.082C48.8989 129.823 49.6794 130.43 50.3099 131.228C51.5793 132.836 52.4488 134.66 53.3864 136.467ZM106.279 103.421C106.381 101.741 106.476 100.064 106.645 98.3891C106.718 97.6762 107.408 93.8881 106.303 93.9771C105.675 94.0277 104.573 94.946 103.997 95.2679C103.236 95.6929 102.474 96.1166 101.71 96.5352C100.201 97.361 98.6818 98.1685 97.1675 98.9846C100.205 100.464 103.242 101.942 106.279 103.421ZM99.7216 68.4839C98.4636 68.3902 97.2476 68.2969 96.0068 68.0629C95.3377 67.9366 94.6686 67.9541 93.9959 67.8689C93.5141 67.8079 92.5724 67.4127 92.1235 67.5421C91.5595 67.7046 91.3547 70.5277 91.2771 71.2362C91.1522 72.3775 91.0679 73.7621 91.5783 74.8341C92.562 76.9008 95.2123 75.2877 96.5018 74.4208C97.607 73.6775 98.8591 72.9248 99.8394 72.0225C100.708 71.2231 99.9283 69.5169 99.7216 68.4839ZM106.245 90.9579C107.193 90.575 107.178 90.0941 107.219 89.1037C107.269 87.9004 107.299 86.6956 107.333 85.4916C107.394 83.3462 107.452 81.1998 107.433 79.0531C107.415 76.9562 107.312 74.8627 107.071 72.7787C106.987 72.0419 107.071 70.7833 106.682 70.1548C106.327 69.5814 105.226 69.5754 104.625 69.6108C103.948 69.6506 103.399 70.2933 102.899 70.6996C102.345 71.1498 101.207 71.7835 101.117 72.4548C101.015 73.2044 101.427 74.2739 101.587 75.001C102.171 77.6546 102.882 80.2821 103.631 82.8933C104.408 85.6025 105.195 88.3389 106.245 90.9579ZM82.1654 84.6062C82.2265 84.01 82.4487 83.5121 82.1483 82.9441C81.8903 82.4558 81.4702 81.9652 81.1547 81.5029C80.2515 80.1787 79.2387 78.9104 78.2548 77.6454C77.3538 76.4869 76.4306 75.3406 75.4862 74.2171C74.9601 73.5914 74.4178 72.9794 73.8789 72.3648C73.484 71.915 73.1099 71.2829 72.5515 71.0475C72.14 73.6302 71.8 76.2241 71.5347 78.826C71.4066 80.0837 71.2961 81.3433 71.2033 82.6041C71.177 82.96 70.9006 84.1619 71.0773 84.4933C71.2631 84.8414 72.3988 85.3073 72.7465 85.5206C73.7185 86.1173 74.4737 87.0162 75.3982 86.0354C76.0345 85.36 76.547 84.4079 77.2582 83.8185C77.6289 83.5114 77.9778 83.5258 78.3935 83.3435C78.8768 83.1319 78.892 82.9279 79.4696 83.216C80.4426 83.7012 81.0337 84.4183 82.1654 84.6062ZM33.4525 97.8948C33.4525 99.6829 33.33 101.153 34.5435 102.6C35.604 103.865 36.7059 104.158 38.1974 104.657C39.0757 104.951 39.137 104.68 39.8487 104.184C40.5251 103.713 41.2616 103.335 41.9286 102.848C43.3664 101.8 44.803 100.72 46.2003 99.6173C46.67 99.2466 46.6008 99.3731 46.5294 98.9283C46.4641 98.5231 46.173 98.0073 46.0138 97.6219C45.726 96.9246 45.3868 96.2498 45.0475 95.5762C44.6622 94.8121 44.3266 93.9821 43.8482 93.2696C43.6496 92.9739 43.4139 92.7064 43.1822 92.4369C42.6943 91.8691 42.7116 91.8902 42.1282 92.3541C40.8966 93.3339 39.7507 94.3946 38.3645 95.1606C36.7244 96.0673 35.0884 96.98 33.4525 97.8948ZM70.5894 84.0437C70.7673 81.4766 70.968 78.9237 71.276 76.3683C71.4344 75.0562 71.6185 73.7477 71.7977 72.4383C71.8707 71.9052 72.1523 71.0104 71.9954 70.4925C71.8413 69.9827 71.1609 69.4975 70.7876 69.1287C70.6872 69.0296 70.3787 68.6135 70.2461 68.5948C70.104 68.575 69.5695 68.966 69.4153 69.0541C68.8701 69.3664 68.3347 69.6948 67.8074 70.0364C66.8137 70.6804 65.851 71.3714 64.9088 72.0883C62.9332 73.5914 61.0491 75.2089 59.1154 76.7648C60.887 78.3156 63.0677 79.52 65.0486 80.776C66.2197 81.5187 67.3969 82.2533 68.5894 82.9614C69.194 83.3202 69.8953 83.8687 70.5894 84.0437ZM46.3707 129.948C44.9401 130.893 43.5739 131.89 41.956 132.497C40.3453 133.1 38.7535 133.333 37.0888 133.691C36.2493 133.872 35.4602 134.07 34.6034 134.197C34.1233 134.268 33.3801 134.241 32.9423 134.443C32.5525 134.36 32.4136 134.493 32.526 134.841C32.5302 134.95 32.5343 135.058 32.5385 135.166C32.6488 136.673 33.6185 138.487 34.4643 139.712C34.958 140.427 35.5871 141.093 36.2122 141.694C36.918 142.373 37.3249 142.852 38.3088 142.567C39.9672 142.088 41.4308 141.122 43.1117 140.697C44.4414 140.36 45.5458 139.655 46.8425 139.289C48.4417 138.839 50.0241 138.326 51.6454 137.949C50.9212 136.553 50.2736 135.099 49.3465 133.82C48.3956 132.508 47.347 131.247 46.3707 129.948ZM55.1449 82.9654C58.1367 83.5602 61.3795 84.1108 64.0572 85.6535C65.1022 86.2556 66.4268 87.1862 66.7328 88.4314C67.0987 89.9198 65.6603 90.8416 64.4589 91.3062C63.0164 91.8639 61.4462 92.0777 59.9178 92.2535C59.1087 92.3466 58.2959 92.3975 57.4831 92.4435C56.8252 92.481 55.7095 92.3366 55.1082 92.5971C54.7315 92.5221 54.6009 92.6746 54.7165 93.0548C54.7094 93.1912 54.7025 93.3279 54.6956 93.4644L54.6333 94.6914C54.5918 95.5085 54.5503 96.3258 54.5085 97.1429C54.4182 98.9229 54.3277 100.703 54.2374 102.483C55.8044 101.513 57.0674 100.125 58.5989 99.0902C59.3271 98.5983 60.05 98.1054 60.7752 97.6152C61.0793 97.4098 61.2652 97.1216 61.5645 96.9302C61.9614 96.6762 62.3133 96.5235 62.6856 96.1908C64.2061 94.8325 65.8971 93.6583 67.5098 92.4114C68.2423 91.8448 69.0443 91.3239 69.7413 90.7162C70.4714 90.0796 70.3704 89.5554 70.3525 88.6402C70.3337 87.6712 70.6897 86.4681 70.5245 85.5337C70.6632 85.2166 70.5567 85.0194 70.2052 84.9419C69.9704 84.7919 69.7357 84.6418 69.5008 84.4918C69.0326 84.1927 68.5643 83.8935 68.0961 83.5946C66.2333 82.4048 64.3707 81.2148 62.5079 80.025C61.5774 79.4306 60.647 78.8362 59.7163 78.2419C59.4564 78.076 58.6087 77.326 58.3172 77.3481C58.0197 77.3706 57.5037 77.9506 57.2807 78.1352C56.9387 78.4181 56.6066 78.7158 56.237 78.9635C56.0528 79.091 55.8605 79.2048 55.6603 79.305C55.3401 79.3358 55.229 79.5114 55.3264 79.8316C55.0452 80.7325 55.1998 82.0191 55.1449 82.9654ZM96.6334 125.433C95.9559 122.27 95.0822 118.524 92.4397 116.372C89.7597 114.189 85.8416 115.033 83.7452 117.596C82.6952 118.879 82.0442 120.397 81.5608 121.97C81.0644 123.584 80.3329 125.687 80.4668 127.394C80.5254 128.142 81.1674 128.947 81.5343 129.6C81.9128 130.274 82.1642 131.241 83.0565 131.007C84.44 130.645 85.847 129.814 87.1417 129.218C88.4511 128.616 89.8298 128.121 91.1876 127.539C92.0891 127.153 93.025 126.859 93.9242 126.467C94.7768 126.096 95.9019 126.007 96.6334 125.433ZM136.666 106.591C138.555 107.267 139.538 106.185 140.867 104.968C142.127 103.814 143.492 102.705 144.652 101.452C145.848 100.159 146.794 98.6316 147.713 97.1387C148.643 95.63 149.9 94.0004 150.473 92.32C150.764 91.4652 150.888 90.5181 151.072 89.6346C151.116 89.4219 151.412 88.6304 151.318 88.4514C151.189 88.2054 150.363 88.1794 150.137 88.1435C148.334 87.8587 146.423 87.8446 144.614 88.0991C141.115 88.5916 138.189 90.5519 137.083 93.9793C135.786 97.9973 136.409 102.463 136.666 106.591ZM124.413 71.7406C124.384 72.4362 126.054 72.6296 126.486 72.7919C127.486 73.1664 128.481 73.5621 129.452 74.0054C131.451 74.9183 133.583 75.5131 135.498 76.6169C139.626 78.9962 144.107 80.6735 148.276 82.9494C148.926 83.3041 150.196 84.1585 150.938 84.0862C151.332 84.0479 151.038 84.365 151.294 83.7387C151.386 83.5133 151.417 83.2202 151.468 82.9787C151.623 82.2552 151.743 81.525 151.916 80.8054C152.202 79.621 152.493 78.5223 152.614 77.305C152.665 76.7891 152.721 76.2739 152.727 75.7552C152.733 75.2294 152.854 73.9119 152.616 73.4566C152.459 73.1548 152.427 73.2583 152.034 73.1731C151.808 73.1244 151.571 73.0229 151.354 72.9552C150.843 72.7964 150.332 72.6439 149.796 72.5973C149.267 72.551 148.929 72.3902 148.433 72.2969C147.912 72.1989 147.377 72.3177 146.847 72.181C146.274 72.0333 146.001 71.8985 145.403 71.955C144.823 72.0096 144.656 71.8812 144.088 71.7233C143.614 71.5916 143.049 71.6837 142.555 71.6437C141.957 71.595 141.361 71.5204 140.763 71.4731C138.072 71.2604 135.349 71.5758 132.653 71.5508C131.186 71.5373 129.751 71.7535 128.287 71.6866C127.007 71.6283 125.684 71.6421 124.413 71.7406ZM131.413 85.905C130.104 86.4029 128.89 87.2116 127.677 87.9081C126.278 88.7112 124.938 89.5646 123.643 90.5277C121.466 92.1473 118.925 94.0891 118.352 96.9152C117.764 99.8156 120.286 102.192 122.65 103.379C125.346 104.732 128.483 105.432 131.436 105.949C131.121 99.2716 131.195 92.5837 131.413 85.905ZM92.2564 101.624C91.4623 101.843 90.7901 102.313 90.0534 102.66C89.3937 102.971 88.7552 103.206 88.1389 103.606C87.1346 104.259 85.9703 104.817 84.9203 105.322C82.3223 106.571 79.8 108.121 77.2278 109.505C76.5462 109.872 76.3228 110.104 76.0919 110.859C75.8412 111.679 75.6048 112.504 75.3633 113.327C75.1381 114.095 74.7785 114.915 74.8732 115.726C74.9558 116.43 75.3208 117.095 75.5959 117.738C76.2888 119.356 77.0399 120.948 77.816 122.527C78.5124 123.945 79.1479 125.45 80.0419 126.753C80.7367 123.134 81.3601 119.078 84.0535 116.32C86.7447 113.564 91.0383 113.525 93.6317 116.37C94.8638 117.721 95.6136 119.423 96.2031 121.134C96.5126 122.032 96.7206 122.948 96.9197 123.876C97.1325 124.867 97.0801 125.393 98.1752 125.092C99.0447 124.854 99.9666 124.664 100.819 124.391C101.261 124.25 101.693 124.092 101.713 123.743C101.738 123.302 101.144 122.4 100.969 121.985C100.063 119.846 99.1567 117.706 98.2507 115.566C97.2668 113.242 96.2828 110.919 95.2985 108.595C94.8075 107.436 94.3163 106.277 93.8251 105.118C93.3771 104.061 93.0039 102.492 92.2564 101.624ZM131.487 83.5548C131.501 82.4983 131.519 81.4419 131.532 80.3852C131.541 79.7556 131.822 78.5381 131.273 78.0883C130.932 77.8096 129.923 77.5958 129.492 77.405C128.643 77.0287 127.723 76.8608 126.868 76.4871C123.521 75.0227 120.038 73.8031 116.593 72.6229C115.85 72.3683 115.09 72.16 114.342 71.9094C113.938 71.7741 112.443 70.9796 112.069 71.1875C111.742 71.3694 111.495 73.536 111.39 73.9858C111.142 75.0508 110.905 76.1185 110.677 77.1881C109.793 81.3406 109.051 85.5223 108.361 89.711C110.194 89.0158 111.951 87.8112 113.683 86.88C115.482 85.9127 117.274 84.9477 119.086 84.0027C119.597 83.7358 121.395 82.5096 121.816 82.9908C122.492 83.7631 120.883 84.6689 120.46 84.9998C118.827 86.2796 117.101 87.3952 115.354 88.5114C113.544 89.6685 111.66 90.6906 109.84 91.8264C109.183 92.2364 108.135 92.7356 107.877 93.4281C107.545 94.3189 107.784 95.4016 108.087 96.2527C108.829 98.3441 109.643 100.41 110.502 102.456C110.894 103.386 111.295 104.312 111.703 105.234C112.19 106.333 112.828 106.565 113.889 107.071C118.405 109.225 123.096 111.27 127.435 113.762C126.709 114.598 124.939 113.226 124.222 112.878C122.896 112.234 121.567 111.593 120.241 110.947C117.771 109.744 115.314 108.518 112.829 107.344C114.421 110.961 116.3 114.446 118.384 117.803C117.858 117.981 117.986 117.99 117.656 117.674C117.378 117.408 117.191 116.887 117.003 116.553C116.613 115.862 116.229 115.17 115.837 114.481C115.023 113.052 114.179 111.645 113.436 110.177C112.877 109.073 112.444 107.144 111.295 106.587C109.864 105.893 108.413 105.218 106.982 104.515C106.982 110.014 107.378 115.39 107.958 120.855C107.988 121.131 108.252 121.944 107.719 121.865C107.478 121.829 107.397 120.321 107.355 120.006C107.161 118.562 106.997 117.115 106.862 115.665C106.594 112.772 106.448 109.867 106.429 106.961C106.086 109.786 105.742 112.611 105.399 115.436L104.911 119.452C104.825 120.156 104.74 120.859 104.654 121.562C104.615 121.885 104.64 122.307 104.526 122.615C104.347 123.1 104.407 123.063 103.847 123.284C104.383 119.605 104.878 115.92 105.315 112.228C105.529 110.427 105.729 108.624 105.914 106.819C105.964 106.334 106.012 105.848 106.06 105.363C106.084 105.115 106.298 104.32 106.179 104.114C106.061 103.91 105.283 103.698 105.059 103.594C104.568 103.366 104.077 103.139 103.587 102.91C101.995 102.167 100.404 101.418 98.8299 100.639C98.1412 100.297 97.4189 99.7706 96.6699 99.5887C95.9242 99.4077 95.3819 99.926 94.7443 100.256C94.2481 100.512 93.079 100.854 92.7476 101.289C92.4391 101.695 93.3971 103.317 93.6488 103.915C94.3586 105.603 95.0686 107.29 95.7786 108.978C97.218 112.4 98.6576 115.821 100.097 119.243C100.449 120.079 100.801 120.916 101.153 121.752C101.378 122.288 101.755 123.816 102.302 123.876C102.544 123.902 102.942 123.639 103.176 123.563C103.525 123.451 103.847 123.452 104.198 123.393C104.84 123.284 105.506 122.953 106.137 122.721C107.757 122.125 109.437 121.739 111.071 121.182C112.712 120.622 114.326 119.993 115.961 119.433C117.445 118.925 118.943 118.346 120.37 117.684C121.876 116.984 123.421 116.367 124.888 115.592C127.561 114.18 130.205 112.861 132.567 111.129C133.122 110.721 133.714 110.312 134.263 109.876C134.745 109.494 135.664 109.021 135.992 108.518C136.117 108.326 136.224 107.95 136.078 107.722C135.922 107.478 135.228 107.5 134.904 107.456C133.881 107.319 132.859 107.182 131.837 107.045C131.916 107.716 131.995 108.387 132.052 109.061C132.092 109.537 132.373 110.794 131.994 111.167C131.472 110.671 131.64 109.19 131.593 108.53C131.568 108.177 131.658 107.487 131.5 107.174C131.326 106.831 130.848 106.835 130.413 106.742C128.573 106.344 126.749 106.01 124.968 105.38C121.959 104.316 118.363 102.518 117.691 99.0516C116.99 95.4377 120.069 92.3064 122.661 90.2908C124.213 89.0841 125.864 88.0394 127.572 87.0694C128.37 86.6162 129.167 86.1629 129.971 85.7194C130.263 85.5581 131.222 85.2258 131.376 84.9437C131.534 84.6552 131.453 83.8835 131.487 83.5548ZM67.1158 139.056C66.9698 139.127 66.8235 139.198 66.6778 139.27C68.3015 134.648 69.9103 130.047 71.2679 125.338C71.9233 123.065 72.5872 120.795 73.2648 118.529C73.5575 117.551 74.276 116.205 74.0764 115.192C73.8603 114.096 73.3422 112.93 72.9413 111.888C70.3752 113.499 67.7553 115.028 65.1464 116.566C62.8076 117.945 60.4292 119.172 58.074 120.537C56.8671 121.236 55.6221 121.708 54.3625 122.279C53.3391 122.744 53.7364 124.163 53.7512 125.111C53.8029 128.459 53.8004 131.818 54.0038 135.161C54.0778 136.378 53.9823 137.777 54.7584 138.79C55.751 140.086 56.6717 141.407 57.5769 142.771C57.9161 143.282 59.3409 146.049 59.8721 145.988C60.219 145.949 60.5383 144.829 60.7118 144.563C61.0858 143.99 61.6325 143.498 62.1302 143.037C64.2793 141.045 66.6642 139.642 69.1427 138.186C71.6609 136.708 74.2378 135.331 76.8035 133.929C77.3832 133.612 78.0075 133.384 78.5833 133.06C78.8109 132.932 79.262 132.729 79.4053 132.5C79.6195 132.158 79.547 131.21 79.5916 130.801C79.6829 129.966 79.8471 129.098 79.8559 128.256C79.8644 127.425 79.364 126.711 79.0013 125.986C77.409 122.803 75.862 119.612 74.4767 116.333C73.3843 120.141 72.2376 123.931 71.1661 127.745C70.6067 129.736 69.9324 131.695 69.2758 133.655C68.9406 134.657 68.6033 135.657 68.2686 136.659C68.0079 137.439 67.8725 138.581 67.1158 139.056ZM89.9844 67.2919C89.1402 67.3012 88.3752 67.1773 87.5496 67.0012C87.2468 66.9369 86.9806 66.9096 86.6736 66.8825C86.3255 66.8519 86.0093 66.6635 85.7041 66.6266C85.4735 66.5989 85.0707 66.6956 84.8504 66.7694C84.3398 66.9402 84.3561 66.8539 84.3348 67.446C84.3015 68.3608 84.2764 69.2758 84.2262 70.1898C84.0282 73.7875 83.6457 77.3502 83.1215 80.9131C83.0154 81.6333 82.7184 82.5779 82.8817 83.2931C83.0289 83.9379 83.5867 84.6266 83.955 85.1675C84.7128 86.2798 86.4974 86.8294 87.7528 87.1448C89.0766 87.4775 90.4512 87.6 91.7089 87.8966C92.0574 87.9789 92.4575 87.8339 92.8289 87.9164C93.1725 87.9927 93.4392 88.181 93.7567 88.3173C94.5345 88.6508 95.4034 88.7123 96.2066 88.9698C97.7993 89.4804 99.5046 89.4498 101.099 89.9402C101.506 90.0654 101.858 90.3812 102.251 90.4894C102.609 90.5881 102.978 90.4719 103.354 90.5271C104.149 90.6439 104.89 90.9154 105.073 91.7679C105.559 91.3835 105.627 91.4846 105.543 90.89C105.489 90.5087 105.277 90.0446 105.16 89.6771C104.864 88.74 104.565 87.8035 104.269 86.8664C103.683 85.0121 103.1 83.1562 102.559 81.2881C102.076 79.6171 101.636 77.9333 101.252 76.2366C101.056 75.3739 100.893 74.5075 100.726 73.6402C100.677 73.3885 100.725 72.9885 100.472 72.821C100.242 72.6691 99.7063 73.2141 99.4638 73.3898C97.7695 74.6156 93.8835 78.2412 91.7652 76.1025C90.6245 74.9508 90.6912 72.926 90.8151 71.4381C90.891 70.5235 91.0519 69.6208 91.2316 68.7216C91.2765 68.4973 91.5512 67.7764 91.4507 67.6167C91.342 67.4448 90.2111 67.3423 89.9844 67.2919ZM149.516 87.3033C149.967 87.3537 150.418 87.4044 150.869 87.455C150.828 87.091 150.865 86.5437 150.727 86.2048C150.536 85.7362 150.069 85.6839 149.555 85.4898C148.743 85.1829 147.914 84.916 147.11 84.5856C145.366 83.8687 143.63 83.1416 141.885 82.4248C141.12 82.1104 140.222 81.596 139.391 81.8527C138.495 82.1298 137.611 82.6939 136.774 83.1071C135.826 83.575 134.879 84.0439 133.931 84.5129C133.487 84.7329 133.043 84.9527 132.598 85.1727C131.9 85.5181 131.807 85.5531 131.752 86.3421C131.472 90.3779 131.493 94.5704 131.615 98.6116C131.677 100.674 131.607 102.747 131.755 104.806C131.767 104.965 131.755 105.858 131.854 105.98C131.994 106.152 132.978 106.21 133.213 106.253C134.129 106.42 135.052 106.476 135.979 106.558C135.76 101.864 134.959 96.3148 137.372 92.021C139.797 87.7073 144.979 86.7729 149.516 87.3033ZM107.372 41.1221C107.644 40.5037 108.112 39.9817 108.512 39.4392C108.728 39.1458 109.102 38.7952 109.241 38.4521C109.438 37.9637 109.437 38.0683 109.142 37.6406C108.864 37.2364 108.87 37.206 108.439 37.1337C108.077 37.0729 107.69 37.1762 107.32 37.11C106.946 37.0429 105.917 36.7279 106.153 36.1329C106.143 36.1589 106.738 35.8658 106.784 35.815C106.934 35.6523 106.981 35.3054 107.055 35.1087C107.293 34.4783 107.376 34.0702 107.111 33.3989C106.715 32.3967 105.151 32.1 104.177 32.4373C103.69 32.6056 103.412 32.9627 103.193 33.4114C103.054 33.6964 103.022 34.1083 102.842 34.3564C102.571 34.73 102.554 34.6885 101.992 34.6225C101.276 34.5385 100.689 34.2639 100.011 34.0725C99.2727 33.8637 98.7924 34.2883 98.147 34.6306C96.9819 35.2489 95.8566 35.4635 94.5516 35.5617C93.0982 35.671 91.7512 35.321 90.3122 35.2308C90.6856 36.9485 91.6511 38.3431 92.4228 39.8985C92.5584 40.1721 92.7776 40.4517 92.7828 40.7681C92.7883 41.0662 92.3561 41.4719 92.4047 41.7185C92.5088 42.2448 93.6682 42.666 94.1075 42.8142C95.35 43.2327 96.7648 44.0521 98.1322 43.7229C98.882 43.5425 99.2854 42.36 99.991 42.2731C100.938 42.156 100.229 43.3735 100.054 43.7923C101.397 43.9962 103.1 43.8233 104.386 43.3683C105.03 43.1404 105.576 42.8002 106.165 42.4629C106.897 42.0429 107.049 41.9275 107.372 41.1221ZM83.8622 66.6866C81.4671 66.7264 79.037 66.3821 76.6365 66.6985C76.0804 66.7716 75.5316 66.8896 74.9852 67.015C74.5924 67.1052 73.3449 67.1814 73.0829 67.4731C72.8443 67.7392 72.8427 68.9639 72.7934 69.3091C72.6839 70.0779 72.7131 70.3433 73.2039 70.9377C74.8187 72.8935 76.5005 74.791 78.0917 76.7685C79.6202 78.6681 80.8748 80.7906 82.4197 82.6633C83.2448 80.2644 83.2943 77.3854 83.5208 74.87C83.6415 73.5287 83.7515 72.1864 83.8547 70.8439C83.9529 69.5652 84.2871 67.9058 83.8622 66.6866ZM52.8616 91.9694C53.1386 91.9694 53.5804 92.056 53.8496 91.9694C54.2199 92.0871 54.3436 91.9483 54.2211 91.5533C54.227 91.4152 54.2328 91.2769 54.2388 91.1385C54.2774 90.2475 54.32 89.3566 54.3613 88.4656C54.3992 87.651 54.4362 86.8362 54.4683 86.0214C54.4904 85.4652 54.7718 84.0862 54.5467 83.5839C54.3955 83.2462 54.0374 83.3229 53.6016 83.2735C53.1872 83.2266 52.7715 83.1833 52.3594 83.1191C51.8363 83.0377 51.2564 82.8506 50.7241 82.9677C50.1893 83.0854 49.8005 83.5785 49.3809 83.8923C48.7168 84.3883 48.0383 84.866 47.3685 85.3544C46.1513 86.2423 44.9463 87.1464 43.7393 88.0479C43.2408 88.42 43.1451 88.2908 43.388 88.8258C43.5384 89.1562 43.8803 89.5302 44.0885 89.8287C44.5029 90.4233 44.9157 91.3246 45.4473 91.8071C46.2209 92.5091 48.3674 92.0633 49.3951 92.0583C50.5669 92.0525 51.6965 92.0706 52.8616 91.9694ZM55.8947 91.9112C56.9109 91.8118 57.9375 91.8548 58.9475 91.7183C60.0454 91.5698 61.1354 91.35 62.2313 91.1852C63.3238 91.0212 66.6475 90.3577 66.3194 88.7289C65.9728 87.0073 63.4283 85.976 62.0204 85.3973C59.8216 84.4933 57.526 84.0094 55.2131 83.4983C54.923 85.0416 54.9647 86.6985 54.9117 88.2625C54.8829 89.1118 54.8577 89.9623 54.8581 90.8125C54.8581 91.0171 54.7878 91.4416 54.8715 91.6318C55.0679 92.0796 55.2965 91.9112 55.8947 91.9112ZM52.5529 92.6508H46.067C47.0269 94.6354 47.9342 96.6571 48.9689 98.6041C49.9995 100.544 51.3265 102.371 52.4958 104.233C52.792 103.911 53.2644 103.562 53.4657 103.179C53.6886 102.755 53.6824 102.131 53.7189 101.641C53.8136 100.367 53.8567 99.0829 53.8889 97.8066C53.917 96.6889 53.9662 95.5787 54.0522 94.4637C54.0709 94.2191 54.3411 92.9489 54.1865 92.7402C54.0486 92.5543 52.8366 92.6527 52.5529 92.6508ZM79.2643 53.6846C80.3585 53.6844 81.454 53.6706 82.548 53.6889C83.5408 53.7058 84.8344 53.5331 85.7438 54.0437C87.5966 55.0837 83.8929 57.7548 83.1418 58.4271C84.3561 58.8666 86.2515 57.9942 87.4403 57.5944C88.9104 57.1002 90.4094 56.7683 91.9089 56.3812C92.2835 56.2846 93.8916 56.0952 94.0948 55.8085C94.2963 55.5241 93.8449 53.8085 93.7997 53.4466C93.7573 53.1064 93.793 52.576 93.6511 52.256C93.7381 51.8717 93.603 51.7369 93.2457 51.8523C93.1222 51.8519 92.9991 51.8512 92.8757 51.8508C91.9633 51.8581 91.0502 51.9004 90.1385 51.9306C87.0048 52.0348 83.9473 52.1737 80.8403 52.6623C79.3959 52.8894 77.9388 53.1687 76.5019 53.4475C75.2924 53.6821 75.496 53.8789 76.6256 53.8819C77.5092 53.8842 78.3852 53.7531 79.2643 53.6846ZM169.157 30.6679C169.343 30.4544 169.529 30.2406 169.715 30.0269C169.262 29.8975 168.808 29.7679 168.354 29.6385C167.872 29.501 167.612 29.5325 167.827 28.9942C168.095 28.3198 169.323 28.2425 169.913 28.2171C171.943 28.1294 174.077 28.7748 176.006 29.3433C176.947 29.6208 177.685 30.0502 178.482 30.6212C178.83 30.8706 179.231 31.1048 179.535 31.4044C179.852 31.7156 179.983 32.1144 180.292 32.4264C180.799 32.9381 181.448 33.1929 181.697 33.9314C181.982 34.7792 181.642 35.7496 181.219 36.4887C180.791 37.2389 180.154 37.8062 179.638 38.4879C179.227 39.0287 178.371 40.5064 179.709 40.3352C180.417 40.2446 181.335 39.0387 181.845 38.5583C182.575 37.8694 183.294 37.1646 184.067 36.5229C184.753 35.9539 185.543 35.3706 186.46 35.2706C187.427 35.1652 187.909 35.7831 188.381 36.5346C188.825 37.2433 188.896 37.9352 189.209 38.6606C189.359 39.0104 189.551 39.2054 189.64 39.5867C189.776 40.1731 189.79 40.8129 189.86 41.4108C189.969 42.3498 190.072 43.0881 189.89 44.0081C189.719 44.8692 189.673 45.7837 189.529 46.6598C189.366 47.6519 189.231 48.6485 189.071 49.641C188.935 50.4819 188.418 51.6794 188.925 52.4612C190.143 54.3402 191.603 51.5741 191.988 50.5408C192.664 48.725 193.008 46.74 193.605 44.8869C193.925 43.8958 194.204 42.8954 194.387 41.8694C194.538 41.0208 194.464 39.9871 194.929 39.2312C195.291 38.6442 195.935 38.1983 196.641 38.3775C197.525 38.6019 197.865 39.8781 198.125 40.6539C198.811 42.7002 198.559 44.5431 198.279 46.63C198.15 47.5962 198.026 48.5639 197.804 49.5142C197.654 50.1552 197.033 51.4527 197.957 51.8012C199.265 52.2958 200.653 48.5454 201.026 47.6985C202.002 45.4804 202.376 43.2806 202.779 40.9039C202.871 40.3575 202.942 39.7994 203.08 39.2623C203.2 38.7948 203.56 38.3223 203.592 37.8548C203.625 37.3869 203.314 37.0604 203.632 36.601C203.897 36.2187 204.375 36.1956 204.806 36.1923C205.821 36.1844 206.791 36.6292 207.734 36.9519C208.611 37.2521 209.911 37.9108 210.858 37.6987C207.887 34.6869 204.925 31.7092 201.383 29.3635C199.738 28.2742 198.092 27.2273 196.314 26.3389C194.513 25.4392 192.449 24.8315 190.521 24.2871C189.472 23.9908 188.429 23.6552 187.393 23.3154C186.471 23.0129 185.542 22.9556 184.64 22.6125C182.678 21.8673 180.486 21.5785 178.455 21.0502C177.558 20.8171 176.651 20.6171 175.752 20.401C174.807 20.174 173.48 19.7796 172.517 19.8179C171.695 19.8506 171.418 20.7917 171.022 21.4462C170.448 22.3965 169.959 23.3837 169.507 24.3973C168.582 26.474 167.606 28.6194 166.944 30.7889C166.581 31.9802 166.222 33.1727 165.865 34.3658C165.557 35.3987 164.784 36.8887 164.99 37.9487C166.511 35.6073 167.927 33.1756 169.157 30.6679ZM98.3379 51.8104C97.5309 51.8471 96.7237 51.8835 95.9167 51.9202C96.7214 54.5619 96.6092 57.3748 96.6092 60.1129C100.37 59.6702 104.16 59.5948 107.943 59.6254C107.248 58.2862 107.518 56.5489 107.715 55.115C107.831 54.2756 107.896 53.4671 107.879 52.6202C107.863 51.8258 108.093 51.1579 107.25 50.9123C106.581 50.7175 106.159 51.0421 105.522 51.1902C104.759 51.3675 103.929 51.3889 103.152 51.4854C101.536 51.686 99.9773 51.8037 98.3379 51.8104ZM76.669 56.955C79.0925 56.2835 81.6678 56.531 84.1033 56.0206C83.5493 55.5156 82.5056 55.8148 81.77 55.8569C80.9336 55.9044 80.0978 55.9392 79.2614 55.9798C78.4457 56.0196 76.183 55.9579 75.8887 56.9946C76.1486 56.9814 76.4089 56.9681 76.669 56.955ZM165.343 19.5217C162.172 19.7996 158.851 19.7565 155.703 20.3092C152.097 20.9421 148.339 21.3392 144.843 22.4546C141.413 23.549 137.916 24.315 134.535 25.6C131.249 26.8492 128.084 28.1781 124.989 29.849C123.474 30.6667 122 31.5335 120.556 32.4727C119.146 33.3896 117.602 34.1412 116.236 35.1131C115.02 35.9783 113.971 36.7719 112.91 37.8319C111.777 38.9652 110.674 40.1292 109.54 41.2606C108.593 42.2046 109.192 44.5125 109.252 45.7687C109.336 47.5104 109.479 49.2275 109.693 50.9577C109.896 52.6064 110.106 54.3785 109.837 56.0237C109.724 56.7154 109.334 57.9102 109.521 58.6006C109.669 59.1535 110.657 59.5589 111.16 59.7391C111.776 59.9596 112.406 59.8667 113.038 60.1471C113.744 60.4606 114.339 60.8514 115.089 61.0162C116.013 61.2194 117.052 61.3902 118.002 61.3964C118.881 61.4021 119.762 61.6862 120.638 61.8612C122.062 62.1462 123.453 62.235 123.364 63.951C123.262 65.931 122.475 67.63 122.007 69.5096C122.64 69.5096 123.082 69.55 123.662 69.3256C124.339 69.0639 125.061 68.9944 125.772 68.8814C127.344 68.6316 128.877 68.5516 130.459 68.3923C133.357 68.1002 136.306 68.1352 139.207 68.166C140.675 68.1814 142.268 68.2948 143.717 68.5231C145.203 68.7575 146.741 68.9039 148.182 69.3533C149.396 69.7325 150.651 69.9908 151.89 70.3258C152.448 70.4766 153.117 70.5991 153.645 70.7679C154.41 71.0127 154.818 71.5346 155.701 71.5227C155.453 69.8894 154.869 68.3741 154.517 66.7544C154.15 65.0627 153.416 63.566 152.607 61.9702C152.246 61.2583 151.979 60.5029 151.631 59.785C151.243 58.9864 150.699 58.325 150.232 57.5783C149.275 56.051 148.255 54.5819 147.315 53.0437C146.495 51.7008 145.558 50.4135 144.66 49.1173C143.673 47.6921 142.302 46.6164 141.181 45.3089C140.709 44.7567 140.258 44.2435 139.729 43.7367C139.241 43.27 138.549 42.2371 137.802 42.1887C137.373 42.1608 136.629 42.4021 136.219 42.5314C135.461 42.7712 134.657 42.9275 133.874 43.1385C133.018 43.3696 132.176 43.6702 131.318 43.8898C130.975 43.9775 130.567 43.9358 130.241 44.0352C129.901 44.1394 129.629 44.3687 129.257 44.4739C127.42 44.9944 125.594 45.5852 123.744 46.0589C121.839 46.5469 119.905 46.9623 118.059 47.6533C117.707 47.7852 117.315 48.0969 117.045 47.8921C116.843 47.7392 116.713 47.3073 116.766 47.0552C116.943 46.216 118.287 45.9129 118.934 45.576C120.668 44.6731 122.39 44.0364 124.254 43.4233C125.172 43.1217 126.086 42.7996 127.017 42.5389C127.795 42.3212 128.605 41.9529 129.4 41.8414C130.108 41.7423 130.61 41.4639 131.312 41.2175C132.347 40.8544 133.411 40.5562 134.462 40.246C136.259 39.7156 138.164 39.4927 140.003 39.1371C144.262 38.3131 148.685 37.9006 153.031 37.9517C155.222 37.9775 157.515 37.9135 159.68 38.2735C160.203 38.3602 161.3 38.3435 161.66 38.8117C161.854 39.0629 161.749 39.4369 161.799 39.7092C161.883 40.1687 162.133 40.3829 162.351 40.8017C162.813 38.5358 163.345 36.3181 163.942 34.0854C164.481 32.0648 164.981 30.0075 165.702 28.0152C166.465 25.9073 167.391 23.6723 168.531 21.7431C168.766 21.346 169.352 20.7152 169.402 20.271C169.454 19.8127 168.811 19.4577 168.369 19.4067C167.378 19.2923 166.317 19.4881 165.343 19.5217ZM186.647 51.8977C186.97 48.7546 187.913 45.4669 187.386 42.3112C187.163 40.9754 186.989 39.7002 186.32 38.4944C185.982 37.8846 185.846 37.4367 185.2 37.7962C184.546 38.1602 183.945 39.0592 183.403 39.5802C182.407 40.5379 181.364 41.5242 180.171 42.2354C179.232 42.7954 177.366 43.3262 176.66 42.1148C175.987 40.9602 176.884 39.3489 177.529 38.3964C178.266 37.3067 179.662 36.2973 178.879 34.9527C178.541 34.3739 178.056 34.2223 177.546 33.8425C177.104 33.5137 176.734 33.0879 176.292 32.7533C175.013 31.7835 173.609 31.3681 172.131 30.8139C171.449 30.5579 171.359 30.3171 170.965 30.9023C170.537 31.5379 170.303 32.4287 169.993 33.1317C169.373 34.5398 168.712 35.8739 167.913 37.1869C167.106 38.5119 166.391 39.896 165.629 41.2473C165.341 41.7571 165.071 42.2752 164.731 42.7537C164.546 43.0142 164.316 43.2462 164.166 43.5312C163.943 43.9527 164.043 44.3369 163.904 44.7564C163.306 46.5669 162.434 44.0396 162.268 43.4487C162.078 42.7767 161.621 42.2527 161.325 41.6258C161.081 41.1081 160.914 40.3387 160.323 40.095C159.839 39.8954 159.215 40.1694 158.722 40.196C157.814 40.2452 156.9 40.1719 155.989 40.2285C155.137 40.2814 154.287 40.3631 153.435 40.4152C152.582 40.4675 151.731 40.3235 150.889 40.4131C149.38 40.5739 147.836 40.5481 146.329 40.771C144.561 41.0323 142.812 41.311 141.039 41.5285C141.451 42.3067 142.305 42.6442 142.98 43.1994C143.583 43.6956 144.061 44.2683 144.669 44.7404C145.286 45.2196 145.652 45.9283 146.162 46.5042C146.663 47.0681 147.126 47.541 147.564 48.1721C149.679 51.2192 151.86 54.1537 153.604 57.4471C154.487 59.1139 155.33 60.8973 155.933 62.6856C156.58 64.6037 156.898 66.6608 157.282 68.6441C157.474 69.6327 157.574 70.4671 157.364 71.4612C157.309 71.6979 157.252 71.9341 157.192 72.1698C157.008 72.4519 157.076 72.6348 157.397 72.7187C157.584 72.9914 157.84 73.0937 157.856 73.4666C157.869 73.75 157.711 74.0783 157.467 74.2381C156.995 74.5464 156.995 74.13 156.509 74.2223C156.326 74.3208 156.144 74.4191 155.962 74.5175C155.866 74.3712 155.767 74.2266 155.665 74.0841C155.355 73.7898 155.109 73.8166 154.704 73.745C154.91 76.1131 154.581 78.2275 154.059 80.5375C153.808 81.6483 153.378 82.7356 153.161 83.8483C152.919 85.0914 153.448 85.6577 154.267 86.4869C154.059 86.5952 153.695 86.7129 153.524 86.8748C153.251 87.1329 153.321 87.1646 153.321 87.5685C153.321 88.3081 153.179 89.0371 153.063 89.7644C152.848 91.1112 152.651 92.505 152.187 93.7946C151.343 96.1369 149.98 98.5693 148.592 100.632C147.814 101.787 147.035 103.099 146.061 104.095C145.084 105.095 144.115 106.103 143.139 107.106C141.22 109.08 139.122 110.443 136.823 111.921C135.912 112.506 134.953 113.148 134.17 113.876C133.374 114.617 132.315 115.135 131.364 115.673C130.939 115.913 130.637 116.258 130.179 116.455C129.749 116.64 129.448 116.7 129.087 116.942C128.191 117.544 127.223 118.059 126.237 118.512C125.034 119.066 123.85 119.709 122.614 120.182C122.051 120.397 121.522 120.631 120.977 120.883C120.387 121.155 119.75 121.334 119.145 121.624C118.633 121.87 118.115 122.012 117.595 122.212C117.17 122.376 116.836 122.641 116.402 122.812C115.502 123.168 114.682 123.359 113.808 123.778C112.645 124.334 111.268 124.594 110.043 124.994C108.676 125.441 107.258 125.886 105.855 126.204C105.258 126.339 104.75 126.515 104.173 126.719C103.798 126.852 103.367 126.925 102.951 127.052C101.801 127.402 100.652 127.74 99.4959 128.037C97.2374 128.619 94.9301 129.318 92.7399 130.107C91.5914 130.522 90.4265 131.02 89.3248 131.547C88.0794 132.143 86.7374 132.487 85.4874 133.077C83.0727 134.216 80.6662 135.389 78.2794 136.586C77.0261 137.214 75.7903 137.861 74.5666 138.545C74.1225 138.792 73.6369 138.895 73.1958 139.138C72.6189 139.456 72.1454 139.923 71.5545 140.238C69.2768 141.453 66.9522 142.598 64.8602 144.135C63.7654 144.94 62.589 145.764 61.6429 146.743C61.3307 147.066 60.7896 147.567 60.7331 148.036C60.6499 148.729 60.7279 148.091 60.9684 148.519C61.3015 148.559 61.3768 148.687 61.1951 148.902C61.1113 149.003 61.0038 149.055 60.8731 149.057C60.4524 149.142 59.6654 148.696 59.3273 148.51C58.7414 148.188 58.4304 147.78 58.0541 147.238C57.2369 146.064 56.4395 144.879 55.5979 143.721C54.841 142.679 54.1001 141.532 53.2389 140.576C52.6549 139.928 52.6111 140.211 51.9616 140.576C51.4783 140.848 50.9171 140.964 50.4163 141.22C48.508 142.197 46.4103 142.918 44.453 143.598C44.0073 143.753 43.7697 143.999 43.378 144.213C42.8791 144.486 42.2471 144.619 41.7136 144.813C40.2438 145.347 38.7812 145.901 37.3218 146.462C36.1951 146.896 35.1123 147.238 34.2303 148.039C33.8792 148.358 33.4544 148.586 33.0919 148.908C32.6697 149.283 32.0988 149.893 31.5674 150.105L31.2437 150.358C31.0246 150.206 30.8054 150.054 30.5858 149.902C30.368 149.752 30.1501 149.602 29.9327 149.451C29.3869 149.072 28.845 148.687 28.3025 148.303C27.0721 147.432 25.8338 146.57 24.6893 145.587C22.6563 143.841 20.5467 142.188 18.4209 140.553C16.1898 138.836 14.0145 137.04 11.7068 135.427C9.6152 133.964 7.33316 132.729 5.30516 131.186C4.28439 130.409 3.26612 129.627 2.22386 128.875C2.16712 128.834 1.31906 128.314 1.31113 128.256C1.29611 128.15 1.57519 127.873 1.65758 127.784C2.04762 127.36 2.47978 126.983 2.86836 126.555C4.67943 124.56 7.04407 124.63 9.54345 124.536C10.6769 124.493 11.906 125.015 12.9825 125.37C14.2988 125.805 15.5686 126.443 16.8401 126.994C19.4605 128.129 22.1649 129.099 24.8118 130.15C25.8526 130.564 26.8894 130.765 27.9475 131.05C29.0211 131.338 30.1269 131.063 31.2751 131.084C31.8711 131.094 32.4344 131.129 33.0345 131.095C33.3907 131.075 33.8012 131.008 34.1531 131.014C34.4382 131.019 34.7342 131.136 34.9966 131.107C36.1452 130.977 37.3585 130.794 38.5432 130.645C39.7194 130.497 40.9331 130.424 42.0938 130.192C42.6783 130.075 43.255 129.91 43.8173 129.712C44.3054 129.54 45.1927 129.345 45.5931 128.997C45.9515 128.685 45.7948 128.681 45.595 128.173C45.516 127.972 45.4342 127.668 45.317 127.474C45.0001 126.951 44.694 126.787 44.8783 126.132C45.2031 124.979 46.31 124.243 47.2576 123.675C49.3921 122.396 51.3444 120.755 53.5921 119.67C58.2233 117.434 62.4441 114.529 66.9606 112.074C71.9251 109.375 76.6215 106.208 81.655 103.623C86.3405 101.217 91.0045 98.7966 95.7288 96.4662C98.0356 95.3287 100.645 94.2877 102.738 92.7962C101.578 92.6525 100.415 92.4669 99.2514 92.3639C98.7116 92.3162 98.1654 92.3604 97.6287 92.2748C97.0284 92.1789 96.4609 91.9364 95.8618 91.8356C94.8317 91.6618 93.9054 91.3091 92.8744 91.1791C91.7689 91.0396 90.6862 90.715 89.5755 90.6241C87.2522 90.4339 85.1554 89.5781 83.1186 88.4996C82.6145 88.2325 82.2003 88.3852 81.7172 88.2035C81.4511 88.1037 81.1684 87.7046 80.8695 87.4902C80.0463 86.8998 79.3396 86.2027 78.5573 85.5577C76.9124 89.2448 73.6826 91.7525 70.6005 94.2258C69.0393 95.4783 67.3448 96.5402 65.7675 97.7691C64.5448 98.7221 63.4344 99.575 62.1291 100.333C60.8758 101.06 59.6984 102.042 58.5034 102.915C57.6935 103.507 56.7443 103.954 55.8831 104.469C55.1793 104.889 53.8054 105.515 53.6135 106.277C53.4565 106.899 53.7629 107.64 52.8118 107.354C51.9601 107.098 51.3428 106.154 50.8468 105.488C49.564 103.767 48.3674 101.987 47.1764 100.203C46.5367 101.45 45.4334 102.348 44.4134 103.273C43.7937 103.835 43.1505 104.356 42.4812 104.857C42.1566 105.101 41.8283 105.339 41.5031 105.582C41.3751 105.678 41.0847 105.825 41.0017 105.96C40.8077 106.276 40.9256 106.133 40.9558 106.515C41.003 107.113 41.2028 107.583 40.8638 108.156C40.5456 108.695 39.8516 108.924 39.3652 109.292C38.208 110.167 36.9912 111.096 35.7074 111.78C35.416 111.935 35.1405 112.069 34.8691 112.259C34.4161 112.575 34.4989 112.69 34.0423 112.387C33.3284 111.912 32.7116 111.124 32.0673 110.551C30.7174 109.352 29.3525 108.167 27.97 107.005C25.3355 104.791 22.6232 102.686 20.0213 100.432C17.5488 98.2902 14.8982 96.4462 12.3457 94.4098C11.6455 93.8512 10.9538 93.2812 10.2628 92.7112C9.64753 92.2039 8.64907 91.6448 8.19396 90.9956C7.53298 90.0527 10.1185 88.7641 10.8986 88.5723C12.2437 88.2416 13.983 88.4308 15.3302 88.7019C16.7444 88.9862 18.1844 89.9375 19.5049 90.53C20.9933 91.1977 22.5093 91.775 24.0087 92.4054C24.6774 92.6864 25.3864 92.9108 26.0071 93.2896C26.6658 93.6914 27.2538 94.1496 27.9542 94.4866C28.7614 94.8746 29.6001 95.2366 30.449 95.5237C30.8336 95.6537 31.2476 95.7844 31.6518 95.8369C32.2242 95.9112 32.1466 95.6479 32.6219 95.5008C33.0259 95.3758 33.1219 95.706 33.4852 95.7979C33.8273 95.8846 34.083 95.7969 34.3792 95.6131C35.0395 95.2037 35.6273 94.6391 36.2879 94.2129C36.9007 93.8173 37.5763 93.4477 38.1507 92.9998C38.4068 92.8002 38.5962 92.5266 38.8486 92.3239C39.253 91.9989 39.4134 92.1279 39.8856 91.9041C40.2717 91.721 40.6219 91.3802 40.9892 91.1544C41.2172 91.0141 41.7701 90.8371 41.9172 90.6102C42.3034 90.0146 41.6441 89.6008 41.0537 89.7764C40.9652 89.2621 40.5111 88.0408 40.7072 87.5585C40.8807 87.1318 41.3363 87.2116 41.7194 86.9858C43.1594 86.1366 44.2222 84.5937 45.5693 83.596C46.8394 82.6554 47.9598 81.5325 49.218 80.5746C50.2957 79.7539 51.4735 78.9527 52.4549 78.0677C53.6152 77.0214 55.1007 76.2075 56.3622 75.2735C57.6654 74.3089 58.8764 73.2356 60.1656 72.26C61.406 71.3214 62.6243 70.341 63.8989 69.4475C65.0444 68.6444 66.2452 67.911 67.3669 67.0969C67.9814 66.651 68.6532 66.2594 69.3546 65.9666C70.0521 65.6754 70.6622 65.3339 71.3432 65.0204C72.6967 64.3973 74.4591 63.9666 75.9309 63.7881C77.549 63.5919 79.1738 63.4158 80.8074 63.4144C81.6776 63.4137 82.5227 63.5791 83.3877 63.6316C84.1824 63.6796 85.0417 63.8804 85.8308 63.8539C86.1881 63.8421 86.4986 63.691 86.8446 63.7398C87.1335 63.7804 87.3849 63.9546 87.6948 63.985C88.385 64.0529 89.0789 63.9852 89.7768 64.0744C91.3802 64.2789 92.9856 64.5706 94.5922 64.7331C96.304 64.9062 98.001 64.9389 99.7038 65.2306C101.368 65.5154 103.042 65.8106 104.697 66.14C108.213 66.84 111.765 67.5235 115.226 68.5629C116.035 68.8058 116.848 69.0369 117.626 69.37C118.003 69.5314 118.366 69.7273 118.759 69.8481C119.323 70.021 119.434 70.0866 119.724 69.6144C120.224 68.8014 120.499 67.7262 120.862 66.8419C121.22 65.9666 121.656 65.0846 121.864 64.1706C121.259 64.075 120.496 64.2608 119.873 64.2821C119.11 64.3083 118.355 64.2919 117.593 64.2873C116.058 64.2781 114.857 63.825 113.404 63.3494C112.179 62.9483 110.548 62.7183 109.614 61.8C109.113 61.3077 108.947 61.221 108.194 61.3094C107.434 61.3983 106.684 61.5516 105.917 61.5771C103.026 61.6729 100.149 62.1767 97.2453 62.2762C96.4598 62.3031 94.4953 62.675 94.6239 61.3444C94.6506 61.0681 94.8626 60.8285 94.9039 60.5442C94.9481 60.2394 94.8717 59.93 94.824 59.6321C94.7103 58.9273 94.5916 58.2229 94.4784 57.5179C91.8307 58.3667 89.1496 59.0544 86.4515 59.7267C85.3327 60.0054 83.5352 60.6464 82.379 60.295C81.2613 59.9552 81.9087 58.3823 82.2568 57.6294C80.0361 58.1356 77.6675 58.9635 75.4029 59.1535C74.714 59.2114 74.0434 59.3637 73.883 58.5319C73.7554 57.8689 74.2347 57.0583 74.4792 56.476C72.7413 56.321 70.9417 56.3358 71.2687 54.1108C71.5685 52.0694 73.2663 51.6629 75.074 51.29C77.3052 50.8294 79.5839 50.6758 81.8296 50.3031C83.7836 49.9787 85.9154 49.6171 87.9109 49.7808C88.9673 49.8673 90.03 49.8871 91.0861 49.9848C91.5844 50.0308 92.0635 50.1079 92.5457 50.2437C92.9906 50.3687 93.6128 50.7564 94.0687 50.7633C94.757 50.7742 95.5867 49.8446 96.327 49.6298C97.2439 49.3635 98.2319 49.3152 99.1793 49.25C100.253 49.1764 101.328 49.1354 102.401 49.0485C102.646 49.0287 103.571 49.0892 103.764 48.946C104.045 48.7375 103.858 47.6679 103.838 47.2285C103.82 46.8221 103.898 46.0608 103.616 45.9014C103.351 45.7519 102.579 45.9571 102.319 45.9987C101.238 46.1717 100.211 46.1519 99.1344 46.1079C98.6372 46.0877 98.1595 46.22 97.6671 46.1548C97.1388 46.085 96.6069 45.9075 96.0806 45.8087C94.9408 45.5948 93.9023 45.3285 92.9201 44.6906C92.0578 44.1308 91.0375 43.7519 90.5557 42.7714C90.2027 42.0535 90.0592 40.6681 91.0969 40.4639C90.3902 39.4458 89.9026 38.3021 89.528 37.1256C89.46 36.9123 89.4149 36.591 89.3134 36.405C88.9546 35.7471 89.2875 36.3306 88.7757 36.0675C88.2699 35.8077 87.9053 35.6021 87.51 35.1502C86.8799 34.4296 86.6146 33.5427 86.5349 32.6037C86.4269 31.3285 86.225 29.8906 86.4114 28.6219C86.7341 26.4242 88.3422 24.7729 89.9762 23.4437C90.8633 22.7221 92.0311 22.4533 93.0715 22.0154C94.0758 21.5925 95.1977 21.1492 96.2559 21.05C97.2109 20.9604 98.142 20.649 99.0981 20.5233C100.412 20.3504 101.728 20.415 103.048 20.3625C103.656 20.3383 104.262 20.2527 104.867 20.1875C105.209 20.1506 105.787 20.19 106.1 20.0548C106.612 19.8331 106.335 20.2985 106.518 19.6206C106.866 18.331 107.15 17.1217 107.677 15.8686C108.168 14.7011 108.764 13.5848 109.553 12.5867C110.292 11.6504 111.25 10.9656 112.121 10.1658C112.767 9.57335 113.499 9.03814 114.235 8.55897C114.655 8.28502 115.124 8.13689 115.535 7.89502C116.046 7.59502 116.497 7.36752 117.071 7.18377C118.304 6.7896 119.527 6.37106 120.836 6.39168C122.248 6.41377 123.663 6.08564 125.037 6.50168C127.588 7.27439 128.838 10.0365 128.796 12.5729C129.668 12.3554 130.431 11.9367 131.356 11.9008C132.207 11.8679 133.219 11.9417 134.055 12.0996C135.678 12.4061 137.348 13.3073 138.315 14.6731C139.239 15.9758 139.377 17.7054 138.809 19.1833C138.538 19.8908 138.107 20.5202 137.648 21.1179C137.312 21.5562 136.561 22.0415 136.526 22.6287C142.809 20.7319 149.117 19.3948 155.616 18.5294C158.91 18.0908 162.21 18.3104 165.508 18.0598C166.917 17.9527 168.448 18.1025 169.904 18.1081C170.519 18.1106 170.997 18.0252 171.443 17.6277C171.894 17.2256 172.255 16.7331 172.781 17.3135C172.915 17.4617 172.944 17.82 173.124 17.9315C173.343 18.0665 173.98 17.9737 174.242 17.9898C175.158 18.0456 176.052 18.2008 176.951 18.3796C178.601 18.7077 180.24 19.0394 181.87 19.4558C184.974 20.249 188.037 21.016 191.096 21.9575C194.218 22.9181 197.372 24.1033 200.25 25.6583C201.645 26.4114 203.037 27.3517 204.319 28.2833C204.915 28.7167 205.449 29.1854 205.967 29.7079C206.521 30.2664 207.199 30.6433 207.748 31.206C208.941 32.43 210.13 33.7283 211.212 35.0544C211.777 35.7467 212.297 36.4769 212.799 37.2148C213.154 37.7325 214.084 38.6804 213.869 39.3492C213.757 39.7062 213.356 39.956 212.991 39.8685C212.868 39.8394 212.768 39.681 212.664 39.666C212.309 39.616 212.631 39.4919 212.22 39.6587C211.4 39.9906 211.139 40.6562 210.098 40.5048C208.33 40.2471 206.667 39.4129 205.059 38.6856C204.599 40.4398 204.534 42.2583 204.132 44.0335C203.74 45.7654 203.086 47.4171 202.297 49.0056C201.604 50.3994 200.715 51.8848 199.489 52.8808C198.554 53.6408 196.246 54.585 195.559 52.9669C195.267 52.2796 195.701 51.2117 195.824 50.5044C195.989 49.5552 196.17 48.6033 196.27 47.6446C196.35 46.8656 196.391 46.0821 196.466 45.3023C196.531 44.6314 196.71 43.1912 196.333 42.5987C196.105 42.2417 196.085 42.5921 195.953 42.9485C195.792 43.3808 195.659 43.8096 195.541 44.2548C195.291 45.2008 195.066 46.1533 194.83 47.1027C194.408 48.7989 193.943 50.4581 193.063 51.9833C192.282 53.3377 191.182 54.8235 189.511 55.0454C188.728 55.1492 187.709 54.7919 187.111 54.2654C186.441 53.6748 186.641 52.7006 186.647 51.8977Z"
        fill="#211814" />
    <path fill-rule="evenodd" clip-rule="evenodd"
        d="M148.487 121.164C149.405 120.983 150.178 120.251 150.928 119.701C151.885 119 152.792 118.235 153.721 117.498C155.471 116.11 157.059 114.587 158.569 112.931C161.549 109.663 163.792 105.457 164.812 101.16C165.328 98.9854 165.966 96.4377 165.673 94.1906C165.571 93.41 165.416 93.2668 164.649 93.1781C164.303 93.1381 163.425 93.0387 163.113 93.1746C162.306 93.5271 161.87 95.0269 161.63 95.7806C160.923 98.006 160.507 100.311 159.867 102.555C159.241 104.754 158.231 106.985 157.232 109.042C155.01 113.617 151.921 117.446 148.487 121.164ZM166.705 95.901C166.155 102.132 164.423 108.069 160.54 113.087C158.694 115.472 156.523 117.547 154.17 119.432C151.741 121.379 149.259 123.212 146.503 124.663C145.769 125.05 145.034 125.435 144.292 125.803C143.88 126.008 142.841 126.76 142.366 126.641C141.985 126.546 141.886 126.252 141.827 125.869C141.693 125.011 142.252 124.582 142.816 124.031C145.085 121.816 147.36 119.593 149.481 117.237C153.669 112.583 156.816 107.011 158.565 100.999C159.103 99.1473 159.584 97.2754 160.166 95.4373C160.52 94.3175 161.022 92.3241 162.199 91.7658C162.83 91.4664 163.566 91.7577 164.23 91.5783C164.852 91.41 165.265 91.0666 165.796 91.6425C166.727 92.6529 166.768 94.6348 166.705 95.901Z"
        fill="#211814" />
    <path fill-rule="evenodd" clip-rule="evenodd"
        d="M0.77385 131.854C0.308932 132.018 0.289534 132.181 0.076578 131.704C-0.0306306 131.463 -0.00163846 131.133 0.0235994 130.883C0.0840867 130.284 0.399871 129.73 0.659341 129.199C3.10135 131.211 5.63702 133.024 8.2555 134.802C11.0559 136.703 13.7296 138.817 16.3781 140.922C18.7498 142.809 21.1501 144.639 23.497 146.548C24.629 147.469 25.9194 148.183 26.9955 149.132C27.8651 149.899 29.3072 150.243 30.0484 151.145C28.8737 151.847 27.3054 152.411 26.0037 151.805C24.5677 151.135 23.4662 150.263 22.1882 149.356C21.5297 148.889 20.845 148.465 20.1761 148.013C19.5881 147.615 19.1728 147.035 18.5776 146.662C17.3265 145.878 16.0431 145.014 14.8561 144.119C13.6368 143.199 12.289 142.468 11.1126 141.491C9.90659 140.489 8.55668 139.825 7.2975 138.913C4.62897 136.98 2.27914 134.806 0.77385 131.854Z"
        fill="#211814" />
    <path fill-rule="evenodd" clip-rule="evenodd"
        d="M72.7714 29.2236C72.7383 29.4015 72.7051 29.5794 72.672 29.7576C72.6922 29.7621 74.2891 26.6809 74.5535 26.3088C75.4508 25.0473 76.6184 23.9978 77.7441 22.9442C80.1286 20.7126 82.9193 18.9113 85.256 16.6399C86.0248 15.8926 87.4023 14.7603 87.0982 13.4967C86.796 12.2409 84.2446 12.4961 83.3709 12.8594C82.0012 13.4292 80.8886 14.6209 79.8679 15.6592C78.7545 16.7919 77.6321 17.9119 76.6885 19.1938C75.6711 20.5761 74.7052 22.0732 74.0817 23.6773C73.3832 25.4744 73.1104 27.3342 72.7714 29.2236ZM73.2958 34.7369C72.2123 35.0707 73.5707 35.2961 73.1463 35.8744C72.6807 36.5086 71.8981 34.5546 71.7811 34.1857C71.0914 32.0059 71.3998 29.3578 71.7765 27.1446C71.9668 26.0282 72.0896 24.8934 72.3462 23.789C72.5964 22.7121 73.1415 21.6888 73.645 20.7092C74.653 18.7492 75.9879 16.9232 77.5028 15.3251C79.0223 13.7217 80.7159 12.1176 82.721 11.1305C84.3777 10.3153 87.0037 10.8809 87.7792 12.6615C88.5716 14.4811 87.4999 16.4632 86.2326 17.7426C84.5794 19.4111 82.7781 21.0684 80.9212 22.5071C79.9669 23.2467 79.167 24.1411 78.2399 24.9128C77.2531 25.7342 76.3994 26.5605 75.6698 27.6228C74.9632 28.6521 74.2359 29.6807 73.7766 30.8492C73.2737 32.1288 73.2958 33.3832 73.2958 34.7369Z"
        fill="#211814" />
    <path fill-rule="evenodd" clip-rule="evenodd"
        d="M29.9544 113.204C27.4644 111.603 24.9661 110.197 22.7977 108.154C20.6568 106.138 18.7863 103.864 16.4035 102.114C15.2146 101.242 13.9876 100.422 12.8197 99.5207C11.7114 98.6651 10.4374 97.9321 9.43557 96.9563C8.10026 95.6551 5.60026 93.2374 7.30621 91.2974C9.42369 93.8128 12.329 95.7955 14.9777 97.7051C17.7705 99.7186 20.3339 102.068 22.9832 104.261C25.5351 106.374 28.0785 108.507 30.5687 110.676C31.2226 111.246 31.8533 111.845 32.5149 112.405C32.5958 112.474 33.2816 112.908 33.2816 113.023C33.2819 113.3 32.7502 113.473 32.5608 113.55C32.2619 113.672 31.4535 113.974 31.1145 113.872C30.9368 113.818 30.9337 113.674 30.8056 113.588C30.732 113.449 30.6461 113.319 30.5485 113.196C30.3503 113.199 30.1524 113.202 29.9544 113.204Z"
        fill="#211814" />
    <path fill-rule="evenodd" clip-rule="evenodd"
        d="M176.538 85.2816C174.763 85.236 172.061 85.2308 172.161 87.6518C172.21 88.8506 172.861 89.731 173.395 90.7564C173.956 91.8339 174.373 92.9471 174.537 94.155C175.204 99.0439 173.416 103.82 171.799 108.34C175.272 105.54 177.78 101.644 179.097 97.3739C179.735 95.3031 179.984 92.6414 179.777 90.4852C179.674 89.4062 179.276 88.4389 178.796 87.4777C178.555 86.9948 178.314 86.4433 177.93 86.0525C177.545 85.6608 177.012 85.5304 176.538 85.2816ZM170.346 111.14C169.199 109.256 171.005 106.483 171.595 104.646C172.301 102.451 172.952 100.164 173.254 97.8742C173.57 95.4752 173.162 93.61 172.049 91.491C171.053 89.5966 170.462 87.0737 171.569 85.0693C172.015 84.2627 172.673 84.1635 173.455 83.8416C174.415 83.4468 174.68 82.7789 175.858 82.8848C177.961 83.0733 178.934 85.0652 179.716 86.7623C181.54 90.7185 181.044 95.8241 179.488 99.7969C178.593 102.083 177.572 104.456 176.052 106.403C175.307 107.357 174.431 108.184 173.522 108.981C172.539 109.842 171.658 110.88 170.346 111.14Z"
        fill="#211814" />
    <path fill-rule="evenodd" clip-rule="evenodd"
        d="M50.2734 42.4525C47.5014 43.0089 44.9718 44.2568 44.5277 47.3685C44.1241 50.1964 46.0526 52.8127 48.4208 54.1364C50.9821 55.5685 54.1915 55.8064 56.7437 54.2194C59.4303 52.5485 60.0398 49.2002 58.4045 46.5733C56.5799 43.6418 53.5232 42.7766 50.2734 42.4525ZM52.0548 41.0958C55.3558 41.5789 58.42 43.9254 59.5319 47.0856C60.6782 50.3433 59.6249 53.925 56.5901 55.71C50.4569 59.3177 42.2597 53.3054 43.7399 46.395C44.1158 44.6404 45.1831 43.2816 46.6331 42.2543C48.2339 41.12 50.1697 41.0891 52.0548 41.0958Z"
        fill="#211814" />
    <path fill-rule="evenodd" clip-rule="evenodd"
        d="M169.417 8.01338C165.44 6.21713 161.462 4.42088 157.485 2.62463C157.322 4.42546 157.159 6.22609 156.996 8.02692C156.951 8.51421 156.771 9.17713 156.848 9.65796C156.93 10.1711 156.754 10.1163 157.424 10.0434C158.28 9.94983 159.14 9.73859 159.987 9.58754C161.511 9.31588 163.132 9.23838 164.623 8.83879C165.385 8.63483 166.113 8.60921 166.886 8.48588C167.735 8.35046 168.56 8.09963 169.417 8.01338ZM155.963 11.4946C155.963 9.46608 156.189 7.46484 156.374 5.44567C156.542 3.629 156.606 1.89734 157.2 0.166504C157.754 1.17255 159.29 1.57463 160.24 2.09234C161.55 2.80567 162.944 3.33088 164.285 3.98067C165.601 4.61879 166.869 5.3515 168.187 5.98817C168.856 6.31109 169.534 6.61234 170.201 6.93775C170.619 7.1415 171.609 7.46942 171.869 7.84775C172.657 8.99609 169.958 9.10713 169.437 9.20838C167.875 9.51275 166.294 9.68421 164.735 9.99713C163.281 10.2892 161.824 10.5603 160.365 10.825C158.921 11.0871 157.433 11.4946 155.963 11.4946Z"
        fill="#211814" />
    <path fill-rule="evenodd" clip-rule="evenodd"
        d="M33.3228 61.713C34.8887 61.5503 36.4483 61.3162 38.0126 61.1616C39.4939 61.0151 40.8042 60.8593 42.1574 60.1814C40.3092 59.6247 38.4569 59.0976 36.593 58.5947C35.6686 58.3453 34.7461 58.0814 33.8175 57.8485C33.0992 57.668 32.473 57.5643 32.1969 56.7812C31.8754 55.8695 32.7692 56.0076 33.3263 56.2393C34.0947 56.5587 34.9317 56.7572 35.7281 57.0228C37.5056 57.6155 39.2939 58.1607 41.0881 58.6997C41.6458 58.8672 44.8775 59.4868 43.713 60.5637C43.2147 61.0247 42.1028 61.2778 41.4935 61.6089C40.712 62.0334 39.8612 62.2026 38.9919 62.3716C37.18 62.7236 35.2996 62.8589 33.4654 63.1643C32.5287 63.3203 31.5922 63.4764 30.6557 63.6324C30.1069 63.7236 29.8956 63.7147 29.7523 63.1034C29.648 62.6593 29.784 62.2149 29.8842 61.7847C30.1382 60.6916 30.4208 59.6041 30.7005 58.5174C30.8069 58.1028 30.9952 56.2803 31.3655 56.081C32.2054 55.6287 31.5574 58.1518 31.495 58.4607C31.2593 59.6262 30.9794 60.7834 30.8534 61.9661C31.6783 61.8916 32.501 61.8143 33.3228 61.713Z"
        fill="#211814" />
    <path fill-rule="evenodd" clip-rule="evenodd"
        d="M55.5288 70.9917C55.8396 71.7711 55.3236 71.9455 54.6975 72.2155C53.8853 72.5657 53.0864 72.9352 52.2594 73.2507C50.5197 73.9138 48.7674 74.5296 47.0692 75.2969C43.8302 76.76 40.5474 78.165 37.3587 79.7317C36.5663 80.1211 35.7733 80.509 34.9738 80.884C34.147 81.2719 33.1988 81.9246 32.3142 82.1463C31.5427 82.3396 31.4622 81.7909 31.9194 81.2855C32.5088 80.6336 33.4201 80.1469 34.1604 79.6938C37.2068 77.8286 40.5318 76.3102 43.8592 75.0271C47.7051 73.5438 51.5615 72.1207 55.5288 70.9917Z"
        fill="#211814" />
    <path fill-rule="evenodd" clip-rule="evenodd"
        d="M63.9841 26.7777C63.8727 24.4081 64.19 22.032 64.0008 19.6687C60.7478 22.5491 62.3505 27.0006 64.2219 30.126L63.9841 26.7777ZM65.3922 26.6423C65.4129 27.7998 65.4786 28.9566 65.3659 30.1083C65.2477 31.3173 65.8154 31.94 66.5554 32.8304C65.927 33.4675 64.4849 31.982 64.0867 31.5441C63.2668 30.6425 62.6567 29.4445 62.1138 28.3618C60.9574 26.0554 60.1611 23.586 61.0866 21.0537C61.4297 20.1152 61.8493 18.8391 62.7577 18.2927C63.7551 17.6927 64.5181 18.5389 64.9319 19.4093C65.9422 21.5331 65.172 24.3627 65.3922 26.6423Z"
        fill="#211814" />
    <path fill-rule="evenodd" clip-rule="evenodd"
        d="M99.8544 144.429C101.354 144.548 102.832 144.665 104.332 144.76C104.073 142.706 103.814 140.652 103.555 138.598C102.687 138.799 101.819 139 100.952 139.2C100.541 139.295 99.912 139.32 99.5488 139.525C99.413 139.556 99.277 139.587 99.1415 139.619C99.1377 139.885 99.1348 140.152 99.1323 140.418C99.1221 141.207 99.0993 141.995 99.0666 142.783C99.0528 143.113 98.9375 143.597 99.0165 143.924C98.8762 144.255 98.9654 144.396 99.2852 144.346C99.475 144.374 99.6646 144.402 99.8544 144.429ZM98.8217 145.914C97.646 145.329 97.9674 143.543 97.9693 142.405C97.9707 141.682 98.0218 140.963 98.0408 140.241C98.054 139.744 97.9403 139.129 98.1113 138.65C98.4156 137.796 99.9047 137.819 100.67 137.879C101.238 137.923 101.713 137.895 102.295 137.857C102.582 137.839 102.902 137.893 103.184 137.809C103.245 137.791 103.818 137.391 103.793 137.39C104.821 137.43 104.835 139.893 104.902 140.518C105.067 142.058 105.216 143.602 105.35 145.145C105.386 145.554 105.538 146.016 105.149 146.249C104.799 146.459 103.87 146.251 103.483 146.24C101.92 146.192 100.367 145.949 98.8217 145.914Z"
        fill="#211814" />
    <path fill-rule="evenodd" clip-rule="evenodd"
        d="M172.215 54.3901C172.895 55.0012 172.569 55.6316 172.346 56.3949C172.212 56.8531 171.477 58.3572 171.68 58.7858C171.914 59.2812 173.016 59.4031 173.487 59.5595C174.308 59.832 175.132 60.1058 175.908 60.4899C176.253 60.6606 177.496 61.0526 177.729 61.371C177.862 61.5535 177.911 61.6964 177.811 61.9316C177.634 62.3445 177.383 62.126 176.954 62.0374C174.991 61.6324 173.045 61.1145 171.225 60.2603C170.718 61.4368 170.288 62.6383 169.859 63.8453C169.733 64.1991 169.613 65.0028 169.135 65.0601C168.552 65.1297 168.544 64.3501 168.583 63.9295C168.64 63.3153 168.958 62.6606 169.151 62.0791C169.309 61.5991 169.866 60.5997 169.797 60.1051C169.75 59.7647 169.543 59.7885 169.172 59.6547C168.823 59.5285 168.473 59.4028 168.123 59.2751C167.563 59.0703 167.005 58.8649 166.459 58.622C166.16 58.4887 165.533 58.3328 165.317 58.0562C165.191 57.8958 165.051 57.3176 165.209 57.1576C165.581 56.7829 168.048 57.7916 168.556 57.9293C168.893 58.0208 169.231 58.0906 169.557 58.2103C169.681 58.256 169.828 58.441 169.961 58.4478C170.529 58.4766 170.574 58.0406 170.75 57.5728C171.159 56.486 171.603 55.3772 172.215 54.3901Z"
        fill="#211814" />
    <path fill-rule="evenodd" clip-rule="evenodd"
        d="M30.7212 76.0142C30.4186 75.2731 33.6309 74.3779 34.2272 74.1283C35.6827 73.5198 37.242 73.1517 38.7489 72.6869C40.2309 72.2298 41.7064 71.7377 43.1639 71.2088C43.6146 71.045 46.8605 69.4665 47.0303 69.6973C47.5928 70.4611 40.7815 72.8602 40.1178 73.099C37.0359 74.2073 33.8536 75.0583 30.7212 76.0142Z"
        fill="#211814" />
    <path fill-rule="evenodd" clip-rule="evenodd"
        d="M168.882 18.0631C168.049 18.0714 166.848 18.3072 166.084 17.9697C167.017 18.0008 167.949 18.032 168.882 18.0631Z"
        fill="#211814" />
    <path fill-rule="evenodd" clip-rule="evenodd"
        d="M52.0547 41.0959L50.2031 41.0892C50.8209 40.9461 51.4383 40.8596 52.0547 41.0959Z"
        fill="#211814" />
    <path fill-rule="evenodd" clip-rule="evenodd"
        d="M148.475 40.6018C148.911 40.5995 149.348 40.5972 149.782 40.5947C149.344 40.5972 148.909 40.5995 148.475 40.6018Z"
        fill="#211814" />
    <path fill-rule="evenodd" clip-rule="evenodd"
        d="M186.647 51.8975C186.644 52.3639 186.641 52.8304 186.637 53.295C186.64 52.8279 186.643 52.3627 186.647 51.8975Z"
        fill="#211814" />
    <path fill-rule="evenodd" clip-rule="evenodd"
        d="M100.67 137.879C100.206 137.912 99.7425 137.946 99.2793 137.979C99.7432 137.946 100.206 137.912 100.67 137.879Z"
        fill="#211814" />
    <path fill-rule="evenodd" clip-rule="evenodd"
        d="M103.283 48.9766C102.812 49.0147 102.341 49.053 101.871 49.0911C102.342 49.0528 102.813 49.0147 103.283 48.9766Z"
        fill="#211814" />
    <path fill-rule="evenodd" clip-rule="evenodd"
        d="M152.012 40.4487C152.345 40.448 152.678 40.4474 153.009 40.4468C152.675 40.4476 152.343 40.4482 152.012 40.4487Z"
        fill="#211814" />
    <path fill-rule="evenodd" clip-rule="evenodd"
        d="M84.963 49.8867C84.549 49.924 84.1345 49.9613 83.7207 49.9986C84.1347 49.9613 84.549 49.924 84.963 49.8867Z"
        fill="#211814" />
    <path fill-rule="evenodd" clip-rule="evenodd"
        d="M103.254 20.361C102.84 20.3635 102.426 20.366 102.012 20.3685C102.425 20.1498 102.839 20.2063 103.254 20.361Z"
        fill="#211814" />
    <path fill-rule="evenodd" clip-rule="evenodd"
        d="M27.6517 91.9129C27.3072 91.8945 27.0264 92.0616 26.832 91.7333C27.1501 91.4856 27.3337 91.771 27.6517 91.9129Z"
        fill="#211814" />
    <path fill-rule="evenodd" clip-rule="evenodd"
        d="M91.5559 64.2849L90.4805 64.1641L91.5559 64.2849Z" fill="#211814" />
    <path fill-rule="evenodd" clip-rule="evenodd"
        d="M98.8223 145.915C99.0598 145.92 99.2972 145.925 99.532 145.931C99.2936 145.925 99.058 145.92 98.8223 145.915Z"
        fill="#211814" />
    <path fill-rule="evenodd" clip-rule="evenodd"
        d="M154.007 18.7383C153.637 18.7714 153.266 18.8045 152.896 18.8377C153.267 18.8043 153.637 18.7714 154.007 18.7383Z"
        fill="#211814" />
    <path fill-rule="evenodd" clip-rule="evenodd"
        d="M36.6817 130.914C36.3261 130.915 35.9706 130.917 35.6152 130.918C35.9709 130.917 36.3263 130.915 36.6817 130.914Z"
        fill="#211814" />
    <path fill-rule="evenodd" clip-rule="evenodd"
        d="M8.09795 124.618C7.73899 124.618 7.38024 124.619 7.02148 124.62C7.38045 124.619 7.73899 124.618 8.09795 124.618Z"
        fill="#211814" />
    <path fill-rule="evenodd" clip-rule="evenodd"
        d="M98.7943 49.2725C98.4299 49.3083 98.0656 49.3439 97.7012 49.3798C98.0658 49.3439 98.4299 49.3083 98.7943 49.2725Z"
        fill="#211814" />
    <path fill-rule="evenodd" clip-rule="evenodd"
        d="M88.626 49.8632C88.2675 49.8219 87.9091 49.7807 87.5508 49.7394C87.906 49.8088 88.3006 49.5349 88.626 49.8632Z"
        fill="#211814" />
    <path fill-rule="evenodd" clip-rule="evenodd"
        d="M121.096 64.2375C121.319 64.2123 121.632 64.1342 121.862 64.1707C121.832 64.3019 121.181 64.2371 121.096 64.2375Z"
        fill="#211814" />
    <path fill-rule="evenodd" clip-rule="evenodd"
        d="M98.3535 92.3286C98.594 92.3332 98.8347 92.3378 99.0727 92.3418C98.8314 92.3374 98.5925 92.333 98.3535 92.3286Z"
        fill="#211814" />
    <path fill-rule="evenodd" clip-rule="evenodd"
        d="M76.6316 63.7202C76.2804 63.7542 75.9294 63.7881 75.5781 63.8219C75.9296 63.7879 76.2804 63.7542 76.6316 63.7202Z"
        fill="#211814" />
    <path fill-rule="evenodd" clip-rule="evenodd"
        d="M37.3086 62.5244C37.5001 62.5296 37.6915 62.5348 37.8805 62.5401C37.6882 62.5348 37.4984 62.5296 37.3086 62.5244Z"
        fill="#211814" />
    <path fill-rule="evenodd" clip-rule="evenodd"
        d="M89.071 63.9843C88.7706 63.9782 88.4701 63.9722 88.1699 63.9663C88.4703 63.9722 88.7706 63.9782 89.071 63.9843Z"
        fill="#211814" />
    <path fill-rule="evenodd" clip-rule="evenodd"
        d="M33.3228 61.7134C33.0191 61.7509 32.7154 61.7882 32.4121 61.8255C32.716 61.788 33.0193 61.7507 33.3228 61.7134Z"
        fill="#211814" />
    <path fill-rule="evenodd" clip-rule="evenodd"
        d="M74.9824 59.1362C75.1699 59.1437 75.3574 59.1512 75.5427 59.1593C75.3541 59.1523 75.1683 59.1443 74.9824 59.1362Z"
        fill="#211814" />
    <path fill-rule="evenodd" clip-rule="evenodd"
        d="M89.2891 90.6425C89.4795 90.63 89.6697 90.6177 89.8576 90.605C89.6666 90.6173 89.4778 90.63 89.2891 90.6425Z"
        fill="#211814" />
    <path fill-rule="evenodd" clip-rule="evenodd"
        d="M103.858 65.9713C103.552 65.9332 103.245 65.8951 102.939 65.8569C103.245 65.8951 103.552 65.9332 103.858 65.9713Z"
        fill="#211814" />
    <path fill-rule="evenodd" clip-rule="evenodd"
        d="M29.9531 113.204C30.1519 113.201 30.3507 113.199 30.5472 113.195C30.3478 113.198 30.1502 113.201 29.9531 113.204Z"
        fill="#211814" />
    <path fill-rule="evenodd" clip-rule="evenodd"
        d="M13.6337 88.5333C13.317 88.5014 13.0004 88.4694 12.6836 88.4375C13.0002 88.4694 13.3168 88.5014 13.6337 88.5333Z"
        fill="#211814" />
    <path fill-rule="evenodd" clip-rule="evenodd"
        d="M6.87716 124.661C6.56596 124.697 6.25476 124.733 5.94336 124.769C6.25497 124.733 6.56596 124.697 6.87716 124.661Z"
        fill="#211814" />
    <path fill-rule="evenodd" clip-rule="evenodd"
        d="M176.523 40.5513C176.499 40.82 176.474 41.0888 176.449 41.3565C176.474 41.0873 176.498 40.8194 176.523 40.5513Z"
        fill="#211814" />
    <path fill-rule="evenodd" clip-rule="evenodd"
        d="M38.5425 130.645C38.2294 130.681 37.9164 130.717 37.6035 130.753C37.9166 130.717 38.2297 130.681 38.5425 130.645Z"
        fill="#211814" />
    <path fill-rule="evenodd" clip-rule="evenodd"
        d="M35.47 130.955C35.1532 131.176 34.8366 131.189 34.5195 130.956C34.8364 130.956 35.1532 130.955 35.47 130.955Z"
        fill="#211814" />
    <path fill-rule="evenodd" clip-rule="evenodd"
        d="M29.4643 131.219C29.157 131.219 28.85 131.22 28.543 131.22C28.8502 131.22 29.1572 131.219 29.4643 131.219Z"
        fill="#211814" />
    <path fill-rule="evenodd" clip-rule="evenodd"
        d="M65.3933 26.6423C65.367 26.37 65.3407 26.0979 65.3145 25.8267C65.3407 26.0994 65.367 26.3708 65.3933 26.6423Z"
        fill="#211814" />
    <path fill-rule="evenodd" clip-rule="evenodd"
        d="M98.9435 20.562C98.6348 20.6001 98.3261 20.638 98.0176 20.676C98.3263 20.638 98.635 20.6001 98.9435 20.562Z"
        fill="#211814" />
    <path fill-rule="evenodd" clip-rule="evenodd"
        d="M100.039 20.418C99.7251 20.453 99.4111 20.4882 99.0977 20.5234C99.4114 20.4882 99.7251 20.453 100.039 20.418Z"
        fill="#211814" />
    <path fill-rule="evenodd" clip-rule="evenodd"
        d="M51.3145 56.7002C51.5076 56.6972 51.7007 56.6943 51.8912 56.6914C51.6972 56.6943 51.5059 56.6972 51.3145 56.7002Z"
        fill="#211814" />
    <path fill-rule="evenodd" clip-rule="evenodd"
        d="M79.2637 53.6846C80.2882 53.5159 81.3125 53.4596 82.3366 53.684L79.2637 53.6846Z"
        fill="#211814" />
    <path fill-rule="evenodd" clip-rule="evenodd"
        d="M106.584 42.1745C106.797 41.6182 106.85 41.4095 107.371 41.1216C107.154 41.6622 107.12 41.9514 106.584 42.1745Z"
        fill="#211814" />
    <path fill-rule="evenodd" clip-rule="evenodd"
        d="M131.564 97.2246C131.585 97.8029 131.606 98.3813 131.626 98.959C131.605 98.3805 131.585 97.8025 131.564 97.2246Z"
        fill="#211814" />
    <path fill-rule="evenodd" clip-rule="evenodd"
        d="M168.714 19.3989C168.251 19.4093 167.788 19.42 167.326 19.4304C167.79 19.42 168.252 19.4093 168.714 19.3989Z"
        fill="#211814" />
    <path fill-rule="evenodd" clip-rule="evenodd"
        d="M106.98 107.503C106.997 107.986 107.013 108.468 107.029 108.949C107.013 108.467 106.997 107.985 106.98 107.503Z"
        fill="#211814" />
    <path fill-rule="evenodd" clip-rule="evenodd"
        d="M50.1934 92.0571C50.6614 92.0605 51.1297 92.0638 51.5977 92.0672C51.1295 92.0638 50.6614 92.0605 50.1934 92.0571Z"
        fill="#211814" />
    <path fill-rule="evenodd" clip-rule="evenodd"
        d="M89.9839 67.292C89.7017 67.2947 89.4199 67.2972 89.1406 67.3007C89.4235 67.2982 89.7036 67.2951 89.9839 67.292Z"
        fill="#211814" />
    <path fill-rule="evenodd" clip-rule="evenodd"
        d="M89.0646 51.9663C88.8327 51.9584 88.6005 51.9504 88.3711 51.9434C88.6041 51.9515 88.8343 51.9588 89.0646 51.9663Z"
        fill="#211814" />
    <path fill-rule="evenodd" clip-rule="evenodd"
        d="M55.8945 91.911C56.2606 91.8754 56.6264 91.8395 56.9925 91.8037C56.6264 91.8395 56.2606 91.8754 55.8945 91.911Z"
        fill="#211814" />
    <path fill-rule="evenodd" clip-rule="evenodd"
        d="M47.918 92.0752C48.2765 92.0698 48.6351 92.0642 48.9934 92.0586C48.6351 92.0642 48.2765 92.0698 47.918 92.0752Z"
        fill="#211814" />
    <path fill-rule="evenodd" clip-rule="evenodd"
        d="M51.7461 92.0661C52.1174 92.0338 52.4886 92.0015 52.8601 91.9692C52.4888 92.0013 52.1174 92.0338 51.7461 92.0661Z"
        fill="#211814" />
    <path fill-rule="evenodd" clip-rule="evenodd"
        d="M53.1001 92.6542C52.9155 92.6532 52.7309 92.6519 52.5488 92.6509C52.7343 92.6521 52.9172 92.6532 53.1001 92.6542Z"
        fill="#211814" />
    <path fill-rule="evenodd" clip-rule="evenodd"
        d="M131.402 84.3681C131.43 84.0962 131.458 83.8245 131.485 83.5537C131.458 83.8258 131.43 84.0968 131.402 84.3681Z"
        fill="#211814" />
    <path fill-rule="evenodd" clip-rule="evenodd"
        d="M75.97 56.8955C76.2028 56.9153 76.4358 56.9351 76.669 56.9551C76.4089 56.9684 76.1486 56.9816 75.8887 56.9949C75.8901 56.9415 75.9173 56.9084 75.97 56.8955Z"
        fill="#211814" />
    <path fill-rule="evenodd" clip-rule="evenodd"
        d="M135.794 102.607C135.779 102.359 135.764 102.112 135.75 101.866C135.765 102.114 135.78 102.361 135.794 102.607Z"
        fill="#211814" />
    <path fill-rule="evenodd" clip-rule="evenodd"
        d="M80.1484 55.9512C79.9615 55.9549 79.7744 55.9584 79.5898 55.962C79.7778 55.9582 79.963 55.9547 80.1484 55.9512Z"
        fill="#211814" />
    <path fill-rule="evenodd" clip-rule="evenodd"
        d="M148.58 87.1938C148.892 87.2303 149.203 87.2668 149.515 87.303C149.203 87.2668 148.892 87.2303 148.58 87.1938Z"
        fill="#211814" />
    <path fill-rule="evenodd" clip-rule="evenodd"
        d="M83.862 66.6865C83.6701 66.6894 83.4784 66.6922 83.2891 66.6955C83.4816 66.6928 83.6718 66.6897 83.862 66.6865Z"
        fill="#211814" />
    <path fill-rule="evenodd" clip-rule="evenodd"
        d="M72.7714 29.2236C72.9726 29.3309 72.8681 29.8026 72.6719 29.7576C72.705 29.5795 72.7382 29.4015 72.7714 29.2236Z"
        fill="#211814" />
    <path fill-rule="evenodd" clip-rule="evenodd"
        d="M176.538 85.2819C176.353 85.2771 176.169 85.2724 175.986 85.2676C176.172 85.2726 176.355 85.2774 176.538 85.2819Z"
        fill="#211814" />
    <path fill-rule="evenodd" clip-rule="evenodd"
        d="M63.9842 26.7776C63.9646 26.362 63.9452 25.9466 63.9258 25.5322C63.9452 25.9483 63.9648 26.3629 63.9842 26.7776Z"
        fill="#211814" />
    <path fill-rule="evenodd" clip-rule="evenodd"
        d="M99 144.305C99.2849 144.346 99.5696 144.388 99.8543 144.43C99.5692 144.388 99.2847 144.346 99 144.305Z"
        fill="#211814" />
    <path fill-rule="evenodd" clip-rule="evenodd"
        d="M97.1179 37.3077C96.1136 37.5141 95.0822 37.622 94.1015 37.926C93.8568 38.0018 93.0538 38.4677 92.7608 38.345C92.3154 38.1581 92.5407 37.6787 92.7282 37.4229C93.2301 36.7387 94.1278 36.3554 94.951 36.3639C95.7726 36.3727 96.9006 36.3427 97.1179 37.3077Z"
        fill="#211814" />
    <path fill-rule="evenodd" clip-rule="evenodd"
        d="M94.3262 39.1433C95.432 39.9164 96.2768 40.2973 96.3704 38.5596C97.5689 38.7227 97.0318 40.6506 96.1249 40.796C95.138 40.9541 94.4795 39.9694 94.3262 39.1433Z"
        fill="#211814" />
</svg>