<svg
    xmlns="http://www.w3.org/2000/svg"
    height="16px"
    width="16px"
    viewBox="10 10 16 16"
    fill="none"
>
    <path
        fill-rule="evenodd"
        clip-rule="evenodd"
        d="M15.1085 10.2852H20.8943C23.5566 10.2852 25.7157 12.4442 25.7157 15.1066V20.8923C25.7157 23.5547 23.5566 25.7137 20.8943 25.7137H15.1085C12.4461 25.7137 10.2871 23.5547 10.2871 20.8923V15.1066C10.2871 12.4442 12.4461 10.2852 15.1085 10.2852ZM20.8951 24.2672C22.7562 24.2672 24.2701 22.7532 24.2701 20.8922V15.1064C24.2701 13.2454 22.7562 11.7314 20.8951 11.7314H15.1094C13.2483 11.7314 11.7344 13.2454 11.7344 15.1064V20.8922C11.7344 22.7532 13.2483 24.2672 15.1094 24.2672H20.8951Z"
        fill="white"
    />
    <path
        d="M20.8943 9.98516H15.1085V10.5852H20.8943V9.98516ZM26.0157 15.1066C26.0157 12.2785 23.7223 9.98516 20.8943 9.98516V10.5852C23.391 10.5852 25.4157 12.6099 25.4157 15.1066H26.0157ZM26.0157 20.8923V15.1066H25.4157V20.8923H26.0157ZM20.8943 26.0137C23.7223 26.0137 26.0157 23.7204 26.0157 20.8923H25.4157C25.4157 23.389 23.391 25.4137 20.8943 25.4137V26.0137ZM15.1085 26.0137H20.8943V25.4137H15.1085V26.0137ZM9.98711 20.8923C9.98711 23.7204 12.2805 26.0137 15.1085 26.0137V25.4137C12.6118 25.4137 10.5871 23.389 10.5871 20.8923H9.98711ZM9.98711 15.1066V20.8923H10.5871V15.1066H9.98711ZM15.1085 9.98516C12.2805 9.98516 9.98711 12.2785 9.98711 15.1066H10.5871C10.5871 12.6099 12.6118 10.5852 15.1085 10.5852V9.98516ZM23.9701 20.8922C23.9701 22.5875 22.5905 23.9672 20.8951 23.9672V24.5672C22.9218 24.5672 24.5701 22.9189 24.5701 20.8922H23.9701ZM23.9701 15.1064V20.8922H24.5701V15.1064H23.9701ZM20.8951 12.0314C22.5905 12.0314 23.9701 13.4111 23.9701 15.1064H24.5701C24.5701 13.0797 22.9218 11.4314 20.8951 11.4314V12.0314ZM15.1094 12.0314H20.8951V11.4314H15.1094V12.0314ZM12.0344 15.1064C12.0344 13.4111 13.414 12.0314 15.1094 12.0314V11.4314C13.0826 11.4314 11.4344 13.0797 11.4344 15.1064H12.0344ZM12.0344 20.8922V15.1064H11.4344V20.8922H12.0344ZM15.1094 23.9672C13.414 23.9672 12.0344 22.5875 12.0344 20.8922H11.4344C11.4344 22.9189 13.0826 24.5672 15.1094 24.5672V23.9672ZM20.8951 23.9672H15.1094V24.5672H20.8951V23.9672Z"
        fill="white"
    />
    <path
        fill-rule="evenodd"
        clip-rule="evenodd"
        d="M14.1445 17.9997C14.1445 15.8696 15.8716 14.1426 18.0017 14.1426C20.1318 14.1426 21.8588 15.8696 21.8588 17.9997C21.8588 20.1298 20.1318 21.8569 18.0017 21.8569C15.8716 21.8569 14.1445 20.1298 14.1445 17.9997ZM15.5918 17.9996C15.5918 19.3284 16.6737 20.4103 18.0025 20.4103C19.3313 20.4103 20.4132 19.3284 20.4132 17.9996C20.4132 16.6698 19.3313 15.5889 18.0025 15.5889C16.6737 15.5889 15.5918 16.6698 15.5918 17.9996Z"
        fill="white"
    />
    <path
        d="M18.0017 13.8426C15.7059 13.8426 13.8445 15.7039 13.8445 17.9997H14.4445C14.4445 16.0353 16.0373 14.4426 18.0017 14.4426V13.8426ZM22.1588 17.9997C22.1588 15.7039 20.2975 13.8426 18.0017 13.8426V14.4426C19.9661 14.4426 21.5588 16.0353 21.5588 17.9997H22.1588ZM18.0017 22.1569C20.2975 22.1569 22.1588 20.2955 22.1588 17.9997H21.5588C21.5588 19.9641 19.9661 21.5569 18.0017 21.5569V22.1569ZM13.8445 17.9997C13.8445 20.2955 15.7059 22.1569 18.0017 22.1569V21.5569C16.0373 21.5569 14.4445 19.9641 14.4445 17.9997H13.8445ZM18.0025 20.1103C16.8394 20.1103 15.8918 19.1627 15.8918 17.9996H15.2918C15.2918 19.4941 16.508 20.7103 18.0025 20.7103V20.1103ZM20.1132 17.9996C20.1132 19.1627 19.1656 20.1103 18.0025 20.1103V20.7103C19.497 20.7103 20.7132 19.4941 20.7132 17.9996H20.1132ZM18.0025 15.8889C19.1657 15.8889 20.1132 16.8356 20.1132 17.9996H20.7132C20.7132 16.5041 19.4969 15.2889 18.0025 15.2889V15.8889ZM15.8918 17.9996C15.8918 16.8356 16.8393 15.8889 18.0025 15.8889V15.2889C16.5081 15.2889 15.2918 16.5041 15.2918 17.9996H15.8918Z"
        fill="white"
    />
    <circle
        cx="22.1487"
        cy="13.8538"
        r="0.513964"
        fill="white"
        stroke="white"
        stroke-width="0.6"
    />
</svg>