<svg xmlns="http://www.w3.org/2000/svg" viewBox="10 10 16 16" fill="none">
    <path
        d="M14.3444 11.7674C14.3444 10.8858 13.6832 10.2246 12.6909 10.2246C11.5889 10.2246 10.9277 10.8858 10.9277 11.7674C10.9277 12.6489 11.5889 13.3113 12.5813 13.3101C13.6832 13.3101 14.3444 12.6489 14.3444 11.7674Z"
        fill="white" />
    <path d="M10.9277 23.8925H14.4634V14.4639H10.9277V23.8925Z" fill="white" />
    <path
        d="M22.9209 23.8925H26.2492V18.7398C26.2492 15.7792 24.9186 14.4639 23.2544 14.4639C21.5903 14.4639 20.7028 15.012 20.2597 15.7792V14.4639H16.8206V23.8925H20.2585V18.7398C20.2585 17.2053 21.3687 16.9861 21.7011 16.9861C22.0334 16.9861 22.9209 17.3149 22.9209 18.7398V23.8925Z"
        fill="white" />
</svg>