<svg xmlns="http://www.w3.org/2000/svg" width="176" height="126" viewBox="0 0 176 126" fill="none">
    <path fill-rule="evenodd" clip-rule="evenodd"
        d="M74.956 52.8902C73.072 54.2645 73.3718 56.9689 73.9391 58.9337C74.7742 61.8268 76.4377 64.5049 78.3354 66.8135C81.7019 70.9089 87.417 75.5074 92.6851 71.912C97.3764 68.7099 100.336 62.2489 101.357 56.8066C101.673 55.1247 102.093 52.6187 100.61 51.3543C98.4172 49.4854 94.5488 49.8254 91.9015 50.066C90.1581 50.2243 88.4759 50.762 86.753 50.5097C82.7501 49.9227 78.295 50.4543 74.956 52.8902Z"
        fill="#F3F3F1" />
    <path fill-rule="evenodd" clip-rule="evenodd"
        d="M156.119 74.3213C152.302 79.1932 145.813 79.963 140.05 79.9153C136.59 79.8863 133.122 79.6243 129.73 78.9147C127.901 78.532 126.084 78.0251 124.317 77.4161C123.149 77.0138 121.411 76.8128 120.915 75.5541C119.604 72.2332 120.568 68.0684 121.108 64.6976C121.382 62.983 121.589 61.2582 121.855 59.5424C122.026 58.4445 122.108 57.2299 122.565 56.2028C123.101 54.9997 123.777 55.2399 124.909 55.5722C126.469 56.0305 128.071 56.2209 129.674 56.4674C133.589 57.0689 137.004 58.2818 140.561 60.0009C144.079 61.7005 147.491 63.3784 150.628 65.7418C152.218 66.9397 153.588 68.2397 154.864 69.7661C155.85 70.9455 157.321 72.7865 156.119 74.3213ZM139.435 95.9607C139.404 96.4853 133.423 94.9016 132.636 94.7238C127.471 93.5582 122.204 92.2305 117.328 90.1243C112.777 88.1584 108.767 85.9093 105.186 82.4165C103.516 80.7884 102.015 79.0741 100.578 77.2482C99.8578 76.333 98.874 76.4393 98.0709 75.6651C97.3486 74.9682 96.7946 74.4241 97.0204 73.3824C98.8253 73.8609 102.158 76.8693 104.029 75.3501C105.096 74.4843 103.617 73.5797 102.934 73.078C101.65 72.1345 100.552 70.9705 99.5319 69.7488C101.284 70.0907 102.915 70.7509 104.44 71.6701C105.117 72.0784 107.439 73.5591 107.98 72.1476C108.312 71.2786 106.738 70.1868 106.247 69.7059C105.041 68.5257 103.74 67.1478 103.1 65.5609C104.683 65.1916 106.174 66.4222 107.252 67.4245C108.448 68.5374 109.914 69.7053 110.917 70.9876C111.434 71.6488 111.547 72.4301 111.951 73.1434C112.406 73.9459 113.133 74.6338 113.829 75.2276C115.168 76.372 116.735 77.2145 118.343 77.9113C122.018 79.5034 125.957 80.6303 129.875 81.4207C131.797 81.8086 133.671 81.9872 135.622 82.053C137.137 82.1043 137.808 82.5605 138.387 83.9659C139.953 87.7693 139.669 91.953 139.435 95.9607ZM94.4512 66.9816C93.5746 67.8068 92.4357 68.3245 91.5196 69.1178C90.7134 69.8159 89.7837 70.5607 88.8839 71.1253C87.9233 71.7278 87.2057 71.3053 86.3409 70.7601C85.3257 70.1205 84.1584 69.8611 83.1127 69.2888C79.4973 67.3086 75.0743 62.4568 75.7492 58.0018C76.0351 56.1136 77.0053 54.2557 78.7669 53.3989C80.3668 52.6211 82.6924 52.1893 84.4042 52.8397C85.3695 53.2066 86.0604 54.0163 86.679 54.8126C87.4003 55.7407 87.6765 55.5945 88.411 54.6993C89.7257 53.0978 91.8933 51.6928 94.0363 51.7266C95.1013 51.7436 96.1592 51.9695 97.1186 52.4143C97.2486 52.4747 97.3208 52.6572 97.4515 52.7191C97.6117 52.7951 97.8748 52.637 97.9862 52.708C98.2672 52.887 98.5477 53.4459 98.7096 53.7297C99.3597 54.8678 100.53 57.0999 99.3508 58.0582C99.3499 58.0586 99.4032 59.3549 99.387 59.5026C99.3038 60.2759 99.0382 60.9143 98.6959 61.6216C97.668 63.7459 96.1509 65.3816 94.4512 66.9816ZM96.1987 84.9565C95.3685 85.2161 94.4742 82.5978 95.2706 82.1799C96.03 81.7813 96.9505 84.7215 96.1987 84.9565ZM83.1582 81.8259C82.8707 82.8149 82.7492 83.9374 82.0461 84.7424C81.4022 83.9736 81.3386 82.5551 81.9631 81.7647C82.3196 81.3138 83.4727 80.7451 83.1582 81.8259ZM109.728 64.4966C109.723 64.5216 110.727 65.0047 110.237 65.5328C109.568 66.2543 109.66 64.8501 109.728 64.4966ZM113.875 56.4357C113.864 57.4357 111.76 57.1943 111.775 56.1884C111.794 54.9505 113.888 55.3755 113.875 56.4357ZM111.364 48.0776C111.572 47.162 115.232 45.8882 115.132 47.4841C115.082 48.2841 110.923 50.0243 111.364 48.0776ZM73.8491 79.1284C73.4389 79.6247 72.8562 79.8203 72.3647 80.2013C71.849 80.6005 71.4804 81.1184 71.0301 81.5872C69.7933 82.8738 68.3046 83.9311 66.9703 85.1132C64.5174 87.2859 62.1676 89.622 59.448 91.4647C54.5879 94.7574 48.9519 96.5584 43.3571 98.1353C42.8936 98.2659 41.5584 98.7932 41.0998 98.4005C40.6052 97.977 40.8568 96.4865 40.8796 95.923C40.9723 93.6124 41.24 91.2745 41.211 88.9674C41.199 88.0197 40.9233 86.6726 41.4145 85.8055C41.9632 84.8372 43.495 84.5538 44.4424 84.1895C47.3224 83.0818 50.0966 81.2132 52.6406 79.4828C55.7678 77.3553 58.9261 75.1926 62.1444 73.2068C65.2972 71.2611 68.7752 69.9582 72.2922 68.847C72.4551 69.1916 70.7769 70.3003 70.585 70.4557C69.665 71.2011 68.664 71.9738 67.981 72.9578C67.4974 73.6545 67.0015 75.2307 68.3367 75.2711C68.9838 75.2907 69.9407 74.6607 70.5277 74.457C71.497 74.1203 72.4959 73.8841 73.51 73.7303C72.6382 74.6961 69.6834 76.4311 70.2211 78.0374C70.7426 79.5961 73.7596 77.7772 74.7981 77.7772C74.6279 78.3207 74.2 78.7043 73.8491 79.1284ZM38.2058 83.479C36.2735 84.1628 34.2931 84.5515 32.299 84.993C30.3982 85.4138 28.6413 85.7309 26.6944 85.4845C24.0065 85.1445 21.0319 84.024 20.6911 80.9505C20.287 77.3088 22.8428 73.9624 25.0373 71.3497C27.7082 68.1709 30.7073 65.3291 33.9577 62.7559C37.2043 60.1851 40.7088 57.9188 44.38 56.0055C47.1731 54.5499 50.3276 53.6661 53.2809 52.5736C53.8428 52.3659 55.3968 51.6357 55.9222 52.2409C56.3471 52.7303 55.769 53.5455 55.5755 53.9999C55.1978 54.8857 55.1459 55.7776 55.0484 56.7286C54.613 60.9761 54.0888 65.2224 53.8476 69.4882C53.7805 70.677 53.6621 71.9207 53.731 73.1103C53.7691 73.7693 54.1099 74.6084 53.883 75.2518C53.4468 76.4884 51.4491 77.307 50.3904 77.8595C48.4952 78.8484 46.4883 79.5863 44.5734 80.5322C42.4706 81.5711 40.4231 82.694 38.2058 83.479ZM65.0022 55.8801C65.5326 55.8068 66.327 55.6613 66.7999 56.0072C67.4164 56.458 67.2547 57.0853 66.6852 57.4124C66.2355 57.6709 65.183 57.7416 64.7387 57.507C63.9818 57.1076 64.1099 56.0036 65.0022 55.8801ZM67.9394 65.7155C67.5108 66.4338 65.9446 66.9049 66.0811 65.5645C66.198 64.4168 68.7288 64.3928 67.9394 65.7155ZM67.358 45.4803C68.047 45.7489 69.2973 45.9786 69.5016 46.8705C69.6917 47.7005 68.9101 47.6457 68.346 47.4172C67.882 47.2297 65.8152 45.4659 67.358 45.4803ZM175.303 77.1447C174.901 75.5688 175.207 73.8245 174.985 72.2105C174.77 70.6459 174.382 69.2082 173.826 67.7338C172.594 64.4697 171.183 61.5313 169.187 58.6666C165.427 53.2718 161.064 48.5199 155.797 44.5795C150.596 40.6895 144.838 37.528 138.738 35.3124C132.269 32.9626 125.758 32.1449 118.936 31.6945C116.899 31.5601 114.864 31.4007 112.838 31.1418C111.358 30.9526 109.502 30.7195 108.038 31.1757C107.119 31.4626 106.605 32.2695 107.607 32.7991C108.317 33.1745 109.247 33.2195 110.032 33.3193C109.084 36.3484 107.542 39.3882 105.099 41.4741C102.713 43.5105 99.5214 44.2086 96.5109 44.7251C94.8785 45.0049 93.0506 45.2216 91.3929 45.1007C90.3447 45.0247 89.5269 44.5363 89.104 45.6226C88.8106 46.3774 88.6717 47.2055 88.2848 46.0659C87.8272 44.7186 87.6026 44.7272 86.1792 44.3445C83.2682 43.562 79.9308 42.848 77.3912 41.1555C74.7565 39.3997 73.8402 36.5593 72.3692 33.9143C72.0055 33.2605 70.9082 31.9374 71.4688 31.1882C71.9817 30.5032 73.6489 30.5716 74.4124 30.5001C75.2182 30.4247 76.0289 30.4216 76.8374 30.3899C77.3057 30.3718 78.2479 30.5649 78.0593 29.8609C77.775 28.7999 74.7292 28.9359 73.9729 28.9186C72.5663 28.887 71.1403 28.9197 69.7408 29.0753C62.8017 29.8476 55.8001 31.2755 49.0853 33.1797C36.0572 36.8739 23.4395 43.6809 13.9318 53.4876C4.8052 62.9011 1.91378 78.5659 7.52435 90.5853C10.4402 96.832 16.7679 99.398 22.9018 101.47C26.1373 102.563 29.5632 103.419 33.0026 103.212C34.6531 103.113 36.2191 102.666 37.8288 102.329C38.5308 102.182 39.3297 101.948 40.0508 102.007C40.5966 102.052 41.121 102.556 41.633 102.288C41.9963 102.098 42.1543 101.552 42.5983 101.319C43.1317 101.041 43.778 100.94 44.354 100.799C45.9545 100.408 47.5044 99.7732 49.0689 99.253C50.6868 98.7149 52.2137 98.022 53.766 97.3215C54.5498 96.9676 56.3636 95.5293 56.8746 96.5809C57.1073 97.0609 57.0081 97.9865 57.0649 98.4899C57.1642 99.3703 57.281 100.249 57.4087 101.125C57.6899 103.055 58.0265 104.978 58.3714 106.897C58.994 110.361 59.7964 113.677 61.138 116.935C62.2092 119.537 63.1495 122.485 65.1387 124.555C66.0069 125.458 67.1916 125.865 68.4371 125.581C69.8536 125.258 70.5587 123.963 71.4187 122.916C73.3108 120.612 76.4347 118.847 79.3193 118.211C82.8514 117.433 86.2923 118.571 89.6638 119.539C93.2303 120.562 96.8608 121.537 100.362 122.767C103.623 123.914 107.146 125.607 110.683 125.459C113.768 125.331 116.65 122.804 118.875 120.878C121.109 118.944 123.903 116.112 127.117 116.34C128.712 116.453 130.166 117.228 131.72 117.542C133.426 117.888 135.242 117.937 136.976 118.066C139.13 118.226 143.948 117.661 144.745 115.054C144.863 114.667 144.864 113.87 144.356 113.716C143.889 113.574 143.651 114.123 143.208 114.098C142.309 114.047 141.605 112.468 141.111 111.856C139.116 109.389 136.379 107.548 134.14 105.319C131.612 102.802 129.454 99.7518 127.549 96.7438C128.41 96.5186 129.339 96.8928 130.173 97.0705C131.185 97.2863 132.172 97.5472 133.17 97.8236C134.27 98.1284 135.386 98.338 136.502 98.5703C137.335 98.7432 138.441 98.7955 139.192 99.2159C139.849 99.583 140.215 99.9772 141.03 100.084C141.858 100.192 142.709 100.101 143.541 100.095C145.793 100.08 148.039 100.038 150.28 99.7982C158.198 98.9518 166.591 95.5817 171.352 88.8934C172.646 87.0743 173.69 85.059 174.349 82.9205C174.864 81.2507 175.751 78.8978 175.303 77.1447Z"
        fill="#211814" />
    <path fill-rule="evenodd" clip-rule="evenodd"
        d="M83.6743 19.2995C82.2653 19.7395 80.5999 19.2218 79.79 17.9562C78.9664 16.6693 78.4029 15.1801 78.2894 13.6472C78.1809 12.1785 78.5124 10.6914 79.3732 9.48555C80.2891 8.20284 82.1561 6.76513 83.8298 7.21055C84.1824 7.30451 84.5012 7.53055 84.8175 7.75492C85.1529 7.99284 85.4856 8.22888 85.8527 8.30263C85.9471 8.32159 86.0131 8.33951 86.0624 8.35263C86.1289 8.37055 86.1643 8.38013 86.1957 8.37284C86.232 8.36451 86.263 8.3343 86.3297 8.26951C86.3676 8.23242 86.4173 8.18409 86.486 8.12222C86.6276 7.99492 86.7645 7.80326 86.8982 7.61576H86.8984C86.9883 7.48972 87.0771 7.36534 87.1649 7.26388C87.334 7.06868 87.5027 6.87138 87.6721 6.67368C88.7607 5.40284 89.8699 4.10763 91.2003 3.10249C93.9569 1.01978 97.6208 0.0360918 101.041 0.0849876C103.121 0.114633 105.072 0.735508 107.01 1.44136C107.173 1.50059 107.337 1.55938 107.501 1.61838L107.502 1.61859C109.059 2.17778 110.665 2.75455 111.912 3.87492C114.392 6.10347 115.037 9.79326 115.443 12.9499C115.883 16.3685 114.672 19.3095 113.418 22.3564V22.3568L113.417 22.3574V22.3576C113.226 22.8214 113.034 23.2874 112.847 23.7578C111.521 27.091 109.088 29.7912 106.195 31.8487C104.679 32.9264 103.005 33.577 101.252 34.1474C100.889 34.2658 100.527 34.3924 100.167 34.5189H100.166H100.166C98.7603 35.0114 97.3593 35.5022 95.8438 35.4999C92.9516 35.4958 89.249 34.1135 88.017 31.2462C87.4561 29.9405 88.0023 29.7062 89.1246 30.4158C89.3209 30.5397 89.5161 30.6649 89.7113 30.7899V30.7901H89.7116L89.7122 30.7908C91.1368 31.7037 92.5522 32.6112 94.2255 33.0126C97.9156 33.8985 102.335 32.5262 105.571 30.7153C108.805 28.9051 110.977 26.1855 112.428 22.7995C113.892 19.3833 114.461 16.017 113.897 12.3343C113.418 9.21326 112.466 6.36243 109.671 4.66826C103.638 1.01138 95.5088 1.30603 90.1434 6.05847C89.4074 6.70992 88.6801 7.34388 87.922 7.96617C87.4398 8.36159 86.8721 8.83597 86.9423 9.51972C86.9576 9.67055 87.0514 9.93242 87.1566 10.226C87.4597 11.0726 87.858 12.1845 86.7487 11.6697C86.2914 11.4574 85.9129 11.1685 85.5399 10.8837C84.9252 10.4145 84.3254 9.95659 83.4122 9.87201C81.8506 9.72701 79.9879 10.9341 79.5206 12.4535C79.0751 13.9033 79.8697 15.8868 81.1142 16.7183C81.8143 17.1862 82.5785 17.1633 83.3687 17.1395C83.4482 17.1372 83.5281 17.1347 83.6081 17.1328C83.6689 17.1314 83.7451 17.1274 83.8317 17.1228C84.3633 17.0945 85.2918 17.0453 85.539 17.4426C86.0477 18.2599 84.2534 19.1189 83.6743 19.2995ZM102.472 25.7668C102.737 25.2437 102.998 24.7264 103.294 24.2589C103.432 24.042 103.656 23.8922 103.87 23.7487H103.871C103.932 23.7074 103.993 23.6666 104.051 23.6249C104.775 24.7595 104.06 25.9749 103.444 27.0216C103.373 27.143 103.303 27.2622 103.236 27.3787C103.041 27.7203 102.851 28.0762 102.659 28.4351C102.25 29.202 101.832 29.9826 101.348 30.6689C100.169 32.3414 97.6023 30.532 97.5261 28.813C97.4678 27.4972 98.394 28.0699 98.9886 28.5614C99.6006 29.0676 99.8904 29.1937 100.532 28.6408C101.394 27.8974 101.939 26.8201 102.472 25.7668ZM95.525 21.132C95.7846 19.4062 94.6103 20.7464 94.3592 21.5401C94.0491 22.5195 93.7926 23.9028 94.2615 24.8747C95.1225 26.6587 97.55 25.8085 98.7182 24.8608C99.2658 24.4164 100.033 23.4908 100.007 22.7193C99.9619 21.377 98.9344 22.1818 98.3023 22.6768H98.3021C98.2216 22.7399 98.1475 22.798 98.0824 22.846C98.0564 22.8653 98.0284 22.886 97.9992 22.9076C97.4129 23.3435 96.2477 24.2095 95.5649 23.781C94.9374 23.3874 95.189 22.4526 95.3869 21.7172C95.4461 21.4978 95.5003 21.2962 95.525 21.132ZM98.9979 14.1718C100.384 13.8941 102.169 14.0372 103.375 14.828C104.929 15.8468 102.886 16.5803 102.001 16.6716C100.93 16.7816 99.5598 16.8545 98.5758 16.3255C97.181 15.5758 97.646 14.443 98.9979 14.1718ZM83.1721 11.5849C82.1123 11.3776 80.6332 11.916 81.3628 13.1843C81.9073 14.131 83.2489 14.4495 84.2987 14.6989C84.4262 14.7291 84.5496 14.7585 84.6666 14.7876C85.8339 15.0793 86.4113 14.6493 86.0094 13.3537C85.6202 12.0997 84.3149 11.8087 83.1721 11.5849ZM105.302 24.8514C105.4 24.4416 105.969 22.9012 106.353 24.032C106.412 24.2058 106.419 24.4608 106.427 24.733C106.446 25.4212 106.469 26.221 107.339 26.1047C107.787 26.0449 108 25.5916 108.197 25.1716C108.295 24.9635 108.389 24.7635 108.505 24.6235C109.692 23.202 109.328 25.8905 109.018 26.5635C108.335 28.0464 106.423 29.0683 105.474 27.1868C105.122 26.487 105.123 25.6037 105.302 24.8514ZM109.768 18.873H109.769C110.319 19.5162 111.236 20.5885 111.838 19.8118C112.425 19.0537 111.414 17.8789 110.911 17.2933C110.889 17.2678 110.868 17.2435 110.848 17.2203C110.834 17.2035 110.818 17.1855 110.802 17.1666C110.347 16.632 109.179 15.2614 108.586 16.288C108.215 16.9308 109.085 18.1422 109.498 18.5676C109.572 18.6433 109.663 18.7503 109.768 18.873ZM93.6046 31.4887C93.0367 30.8324 93.0961 29.6162 93.4178 28.8568C93.6799 28.2385 94.1182 29.0039 94.3722 29.447C94.4341 29.5551 94.4851 29.6439 94.5198 29.6889C94.6335 29.8362 94.7969 29.9726 94.9648 30.1128C95.3144 30.4049 95.6832 30.7128 95.6591 31.1651C95.6003 32.2701 94.1037 32.0651 93.6046 31.4887Z"
        fill="#211814" />
    <path fill-rule="evenodd" clip-rule="evenodd"
        d="M143.082 23.3219C142.459 23.1517 141.836 22.9814 141.217 22.8062C139.776 22.3983 141.137 21.4804 141.994 21.545C142.656 21.5948 143.303 21.8285 143.94 22.0583C144.221 22.1598 144.501 22.2606 144.778 22.3446C147.548 23.1814 150.115 24.0966 152.703 25.3956C153.089 25.5896 154.789 26.5089 153.664 26.916C153.073 27.1298 151.885 26.4864 151.053 26.036C150.787 25.8921 150.558 25.7679 150.396 25.6975C148.047 24.6783 145.558 23.9983 143.082 23.3219ZM166.603 43.9769C157.338 38.1929 148.112 32.5277 137.633 29.2142C137.087 29.0417 136.917 28.5514 137.204 28.0658C137.506 27.5539 138.086 27.5727 138.601 27.5894L138.644 27.5908C140 27.6339 141.324 28.0648 142.607 28.4821L142.77 28.5352C145.702 29.4879 148.494 30.8096 151.247 32.191C156.075 34.6123 160.721 37.5419 164.979 40.8729C165.869 41.5689 166.782 42.1331 167.75 42.7023C167.81 42.7377 167.872 42.7737 167.936 42.8108C168.534 43.156 169.276 43.5839 169.491 44.2552C170.097 46.1444 167.037 44.2481 166.603 43.9769ZM16.997 42.2577C13.6112 44.9083 10.3027 47.6681 7.24171 50.6931C6.1519 51.7702 5.24365 53.0021 4.33624 54.2333C3.92072 54.7971 3.50521 55.3606 3.07252 55.9089C3.02614 55.9677 2.975 56.0364 2.91931 56.1112C2.57104 56.5783 2.05003 57.2773 1.48158 57.2C0.758218 57.1021 0.611991 55.8483 0.635054 55.3008C0.714057 53.4337 2.40859 51.6306 3.61701 50.345C4.97638 48.8994 6.42973 47.4906 7.91394 46.1744C9.54804 44.7252 11.3215 43.4796 13.1286 42.2602C13.7891 41.8146 14.4392 41.3431 15.0907 40.8708C16.1894 40.0744 17.2912 39.2756 18.45 38.5946C19.3193 38.0837 20.7627 37.8894 20.2896 39.4271C20.0133 40.3254 18.9278 41.0056 17.9806 41.5991C17.6136 41.8291 17.2674 42.046 16.997 42.2577ZM4.86996 38.5829C6.77589 37.9858 8.54311 37.0589 10.3103 36.1321C11.4618 35.5281 12.6136 34.9241 13.8034 34.4116C14.659 34.0429 15.5271 33.7056 16.395 33.3683C17.1757 33.0648 17.9562 32.7614 18.7278 32.4354C18.8005 32.4046 18.8791 32.3754 18.9601 32.3452C19.3642 32.1948 19.8228 32.0239 19.8775 31.5448C19.9524 30.8814 19.5675 30.9012 19.0974 30.9254H19.0972C19.0669 30.9269 19.0363 30.9285 19.0052 30.9298C17.9336 30.9783 16.8006 31.4562 15.7298 31.9079C15.2878 32.0946 14.8561 32.2766 14.4439 32.4221C14.0768 32.5516 13.7094 32.6781 13.3421 32.8044C12.1918 33.2002 11.0449 33.595 9.92297 34.0789C8.43028 34.7227 6.90591 35.3887 5.56165 36.3154C5.51404 36.3483 5.46435 36.3819 5.41342 36.4164C4.9683 36.7179 4.42961 37.0829 4.23707 37.5808C4.04432 38.0779 4.15053 38.8085 4.86996 38.5829Z"
        fill="#211814" />
    <path fill-rule="evenodd" clip-rule="evenodd"
        d="M83.7783 25.7772C83.9584 25.2455 86.186 19.4326 85.314 19.2574C84.3904 19.0714 83.1559 22.4441 82.888 23.0535C81.8986 25.3039 81.3127 27.7185 80.8537 30.1324C80.5339 31.8132 80.2529 33.5351 80.3649 35.2535C80.4511 36.5741 80.9931 36.7741 81.8862 37.5833C81.8862 33.572 82.492 29.5739 83.7783 25.7772Z"
        fill="#211814" />
</svg>