<svg xmlns="http://www.w3.org/2000/svg" width="124" height="144" viewBox="0 0 124 144" fill="none">
    <path fill-rule="evenodd" clip-rule="evenodd"
        d="M33.0398 32.5148C32.8937 34.9173 32.7475 37.3194 32.6016 39.7219C33.5413 39.4496 39.5187 37.6798 39.1495 39.4742C38.8845 40.7613 37.2041 42.1535 36.3478 43.0496C35.5598 43.8746 34.7483 44.6781 33.9162 45.4581C35.4456 44.869 36.9877 44.311 38.5409 43.7892C39.7162 43.3942 40.9002 43.0087 42.1045 42.7127C42.5515 42.6027 43.7585 42.1542 44.1808 42.46C45.2905 43.2637 39.2694 49.1831 38.4446 50.0175C39.6108 49.4717 40.8052 48.9758 42.0196 48.5504C42.8966 48.2433 45.6058 47.0694 46.3818 48.0719C47.2124 49.1444 45.1547 51.6071 44.5839 52.3879C43.7663 53.5069 42.8803 54.5802 41.9505 55.6067C45.8147 59.0992 50.3557 62.2079 55.1885 64.14C58.7318 65.5569 62.2126 65.9175 65.9516 65.14C69.7929 64.3412 73.4768 62.8094 76.9787 61.0579C79.0354 60.0292 81.0649 58.916 82.9984 57.6656C82.2013 56.69 81.4274 55.694 80.6755 54.6827C79.6024 53.239 78.2834 51.6615 77.6716 49.9427C77.0727 48.2606 79.3194 48.589 80.397 48.6804C81.9576 48.8127 83.5141 49.0933 85.0434 49.4292C83.9621 48.6723 82.9002 47.8852 81.8599 47.0725C80.5038 46.0133 78.695 44.8158 77.8075 43.2921C77.027 41.9523 78.7399 42.2906 79.532 42.466C81.4206 42.8848 83.2582 43.5981 85.0593 44.294C86.3783 44.8035 87.6895 45.3373 88.9876 45.8994C88.1818 45.1944 87.4029 44.4556 86.6545 43.6898C85.6481 42.6604 84.2915 41.4031 83.8403 39.9856C82.9217 37.0985 89.1012 39.2762 90.1562 39.7219C89.9612 36.7312 89.7666 33.7406 89.5718 30.75C81.3895 32.9408 73.2072 35.1321 65.0247 37.3231C64.1405 37.56 63.0339 38.0756 62.1116 38.1031C61.2764 38.1283 60.2676 37.7498 59.4531 37.5933L44.6462 34.7465C40.7774 34.0025 36.9086 33.2587 33.0398 32.5148Z"
        fill="#F3F3F1" />
    <path fill-rule="evenodd" clip-rule="evenodd"
        d="M120.982 135.378C120.099 135.887 119.064 136.28 118.083 136.543C117.506 136.698 116.554 137.176 116.048 136.738C115.805 136.527 115.749 136.05 115.606 135.773C115.379 135.334 115.056 134.956 114.754 134.568C114.021 133.629 113.259 132.723 112.461 131.84C112.083 131.421 111.392 130.444 110.726 130.508C109.896 130.588 109.916 131.744 110.124 132.335C110.787 134.216 112.792 135.856 114.102 137.273C113.769 137.788 111.94 137.727 111.432 137.606C110.656 137.422 110.578 136.866 110.224 136.231C109.396 134.746 107.717 133.915 106.337 133.041C105.833 132.723 104.764 131.84 104.108 132.062C103.487 132.273 103.513 133.072 103.711 133.594C104.01 134.382 104.861 134.929 105.49 135.427C106.329 136.092 107.096 136.815 107.795 137.628C106.787 137.71 105.784 137.853 104.779 137.937C103.563 138.037 102.55 137.366 101.431 136.986C100.391 136.632 99.3554 136.334 98.3331 135.926C97.1853 135.469 95.9829 135.31 94.825 134.908C90.2808 133.333 85.8284 131.353 81.4495 129.356C79.363 128.404 77.3194 127.453 75.1452 126.708C73.5608 126.165 71.071 125.084 70.6922 123.184C70.4922 122.181 71.2207 121.102 71.3282 120.099C71.454 118.92 71.3549 117.622 70.9979 116.49C70.683 115.493 70.1615 114.57 69.7506 113.613C69.2717 112.497 69.7005 112.515 70.6307 112.389C71.7441 112.237 73.0434 111.606 74.09 111.195C75.2955 110.722 76.4907 110.06 77.5948 109.38C78.5935 108.765 79.4624 107.972 80.2574 107.111C81.0663 106.235 81.5899 105.197 82.3718 104.3C85.2576 107.871 88.0006 111.497 91.0671 114.914C92.5143 116.527 94.0881 117.861 95.8717 119.087C96.6164 119.6 97.3553 120.184 98.1667 120.589C99.1813 121.096 100.316 121.41 101.358 121.873C105.357 123.646 109.173 125.584 112.904 127.872C114.708 128.978 116.223 130.247 117.812 131.635C118.307 132.067 122.358 134.586 120.982 135.378ZM74.0759 106.12C73.4297 106.414 72.8138 106.797 72.1244 106.986C72.3198 105.789 73.4295 103.984 74.8522 104.183C75.3959 104.259 75.8058 104.684 75.5671 105.269C75.3499 105.801 74.5363 105.91 74.0759 106.12ZM29.0977 73.6629C28.3652 74.07 27.6827 74.3069 27.2531 73.4333C27.5713 73.3692 29.0166 73.1752 29.0977 73.6629ZM27.8781 71.1931C27.3119 71.0204 27.7646 70.8387 27.9595 70.6304C28.1112 70.4681 28.6137 69.899 28.7894 69.805C29.566 69.391 30.1662 70.9312 30.5376 71.4312C29.6586 71.3525 28.7338 71.4544 27.8781 71.1931ZM33.9311 76.526C32.858 76.7092 32.9771 75.3581 33.0092 74.6738C33.2354 74.9517 34.7677 76.3835 33.9311 76.526ZM37.487 74.1927C36.1788 74.4148 35.3145 72.1404 35.549 71.1456C35.7552 70.2692 36.7691 69.7798 37.5763 69.6506C38.3584 69.5252 39.4476 69.6962 39.6799 70.6042C39.8853 71.4065 38.3588 74.0446 37.487 74.1927ZM68.4533 108.527C67.5132 108.817 66.5921 108.854 65.6472 109.139C64.5752 109.463 63.5829 109.434 62.5086 109.655C62.0716 109.744 60.8927 110.385 60.4665 110.242C60.0441 110.1 59.433 108.781 59.1903 108.439C61.0909 107.644 62.7123 106.617 63.9651 104.942C64.9611 103.61 66.0294 101.614 65.4027 99.8948C64.6959 97.9565 62.2596 97.5356 60.6352 98.3454C59.8667 98.7281 59.105 99.2042 58.4713 99.7877C57.7469 100.455 57.462 101.183 56.9927 102.006C56.5182 102.838 56.1851 102.375 55.7108 101.668C55.3056 101.064 55.3584 100.455 54.852 99.8585C54.5936 99.5546 54.1934 99.261 54.0586 98.8683C53.9731 98.6194 54.1533 98.1779 53.9912 97.9819C53.7632 97.7065 53.4858 98.03 53.2947 97.7842C53.156 97.6056 53.2013 97.1983 53.0581 96.9748C52.9336 96.8477 52.7956 96.7394 52.6426 96.6492C52.4571 96.5571 52.4233 96.4417 52.5409 96.3031C52.3935 96.0283 52.5355 95.9356 52.2198 95.6015C51.7275 95.0804 51.2786 94.5812 50.9281 93.9662C50.7681 93.6848 50.7838 93.2675 50.5849 93.024C50.3118 92.6894 49.857 92.7396 49.6222 92.3256C49.4131 91.9567 49.553 91.3117 49.2081 90.9767C49.0263 90.9244 48.8444 90.8731 48.6624 90.8225C48.5253 90.6887 48.4456 90.5262 48.4228 90.3352C48.2313 90.0383 48.1932 89.6898 47.9514 89.3763C47.4885 88.7767 46.866 88.2227 46.4571 87.5906C46.0273 86.926 46.2552 86.8142 47.0018 86.5765C47.675 86.3617 48.2899 86.1625 48.9141 85.7971C51.7995 84.1073 54.535 79.625 49.9551 78.2556C48.2556 77.7475 46.8593 76.3808 44.9747 76.9179C44.1578 77.151 43.3829 77.6467 42.7734 78.235C42.3523 78.6419 41.9622 79.7296 41.4453 79.9379C40.5157 80.3125 40.9086 79.3767 40.6449 78.9467C40.5188 78.7415 40.0118 78.505 39.8238 78.3181C39.6033 78.0992 39.3901 77.8227 39.2369 77.5519C38.9526 77.0492 38.7787 76.769 38.3688 76.3596C38.2143 76.205 37.4427 75.4067 38.1386 75.511C37.8568 74.6467 38.268 74.5167 38.8365 73.8852C39.5039 73.1438 40.1931 72.1133 40.1971 71.0744C40.2047 69.0796 37.8558 68.1858 36.3805 69.3698C36.0803 69.6108 34.3048 71.9367 34.6681 70.4533C34.864 69.6535 36.6775 67.565 37.5183 68.1054C36.5761 66.7235 34.4116 70.079 33.9064 70.7654C33.4762 69.9685 33.4458 69.345 32.734 68.7279C32.1545 69.6631 32.4605 68.641 32.3328 68.4333C32.0568 67.9846 32.2084 68.4977 32.0587 68.3383C31.8723 68.1398 31.579 67.9833 31.3806 67.7204C31.0409 68.1842 31.1767 67.6852 31.0726 67.5121C30.8293 67.1069 30.9233 66.8723 30.5064 66.52C30.2029 66.264 29.6049 65.8662 29.1965 65.8298C28.7255 65.7877 28.595 65.9694 28.1151 65.835C27.5046 65.6642 26.7363 65.4017 27.0317 66.4294C27.2464 67.176 28.1189 67.6004 28.31 68.3633C28.5023 69.1312 27.7477 69.9052 27.3816 70.5348C26.9115 71.3425 26.527 71.2767 25.6753 71.4587C25.131 71.5752 24.4045 71.8242 24.8714 72.4885C25.2047 72.9633 25.986 72.8633 26.426 73.1446C27.0429 73.5387 27.0344 74.5108 27.8222 74.68C28.6897 74.8662 29.1865 73.8944 29.918 73.6596C30.438 73.4927 32.0492 73.5112 32.4585 73.9044C33.0162 74.4396 32.5342 75.4627 32.6746 76.1277C32.8835 77.1142 33.5466 77.1744 34.3853 77.206C35.4178 77.2448 35.7807 78.2423 36.3359 79.0337C37.6365 80.8871 38.7669 82.8629 40.0992 84.6917C40.689 85.5015 41.5517 86.2219 42.0345 87.1006C42.6307 88.1858 41.803 88.8119 41.0886 89.5908C40.155 90.6087 39.4582 91.7671 38.6485 92.8798C37.9291 93.8685 37.0349 93.6223 35.8852 93.6223C36.1413 93.0908 36.4496 92.7594 37.08 92.8237C36.4208 92.014 35.8937 92.9404 35.4662 93.4533C34.8476 94.1956 34.0412 94.3746 33.2466 94.8627C32.9655 95.0352 31.4345 96.1544 31.8997 96.5365C31.9525 96.5798 34.4869 94.9021 34.7756 94.7481C34.7756 95.3675 34.641 96.011 34.7273 96.6269C34.7905 97.0785 35.106 97.5496 35.0387 98.0194C34.9114 98.9056 33.7729 99.604 33.2843 100.295C32.9164 100.814 33.0052 101.224 32.8181 101.782C32.6473 102.291 32.7369 102.137 32.3115 102.295C31.4452 102.615 29.9871 102.442 29.2027 101.987C28.7157 101.704 28.3425 101.257 27.9468 100.864C27.6489 100.567 26.8995 100.06 26.8166 99.645C26.6746 98.93 28.0851 97.6017 28.3642 96.8642C29.1526 94.7829 27.8007 93.1652 25.6968 93.0471C26.3452 92.5437 27.1489 92.9229 27.8323 93.115C26.6641 91.4858 24.6685 92.8265 23.6774 93.9335C23.0002 92.211 22.6737 90.394 22.2601 88.5975C21.9783 87.3744 20.9057 85.1912 21.3841 83.9319C21.6154 83.3231 22.2684 82.9835 22.7199 82.5615C23.2331 82.0817 23.6727 81.5081 24.0478 80.9142C24.9316 79.5154 25.4422 77.7496 24.225 76.371C24.5948 76.3098 24.9647 76.2487 25.3345 76.1875C24.7331 75.6188 23.7841 75.8958 23.0035 75.7273C22.5083 75.6202 21.0831 75.6896 20.7525 75.4075C20.3548 75.0683 20.6096 73.5079 20.6239 73.046C20.6566 71.9669 20.7463 70.9292 20.8647 69.8562C20.9769 68.8429 20.9543 67.7479 21.1624 66.7523C21.3314 65.9444 21.8713 65.6981 22.4942 65.2221C23.9832 64.0835 25.1966 62.6987 24.6882 60.7367C24.8683 60.7079 25.0484 60.6792 25.2285 60.6504C24.6459 60.2265 23.8921 60.3806 23.2441 60.1565C23.8391 58.471 25.1552 55.5081 27.2922 55.3485C27.3657 56.1021 27.3154 56.9981 27.8205 57.6219C28.3957 58.3319 29.4052 58.4035 30.1842 58.0279C30.8912 57.6867 31.5548 56.9637 31.8806 56.2496C32.1011 55.766 32.0614 54.9485 32.4483 54.5654C32.9671 54.0512 36.5448 54.3615 36.4353 55.229C36.3707 55.739 35.414 56.5962 35.1468 57.0483C34.6573 57.8756 34.2656 58.7704 34.0859 59.7206C33.8133 61.1635 33.9712 63.0683 35.4273 63.8269C37.0833 64.6898 39.1015 63.5927 40.4596 62.6448C41.2053 62.1244 41.9277 61.55 42.6088 60.9467C42.9717 60.6258 43.3363 60.295 43.6562 59.93C43.8924 59.6606 44.081 59.226 44.3717 59.0242C45.0584 58.5475 45.7314 59.3562 46.3126 59.7648C47.2591 60.4304 48.2009 61.0623 49.217 61.6162C51.2786 62.74 53.1637 64.2287 54.9866 65.7069C56.82 67.1937 58.7106 68.7233 60.1959 70.5758C59.2963 71.1325 59.4568 71.2773 59.0566 72.2706C58.7725 72.9754 58.3813 73.5754 58.3361 74.3587C58.2581 75.7104 59.1204 76.8623 60.4292 77.1617C61.1613 77.329 61.8585 77.195 62.5366 76.8937C63.0637 76.6598 63.5889 76.0835 64.1396 75.9404C65.1632 75.6748 65.9822 77.6206 66.5559 78.306C69.104 81.35 71.7975 84.2738 74.197 87.4421C74.4626 87.7929 75.252 88.4783 75.3162 88.9429C75.4083 89.6102 74.3653 90.246 73.9328 90.6285C73.7055 90.8292 71.2965 93.1096 72.1054 93.4721C72.336 93.5754 73.0109 92.1762 73.1796 92.0565C73.8115 91.6085 73.3337 92.4867 73.296 92.9306C73.2018 94.034 73.955 94.6352 75.0135 94.4952C76.1433 94.346 77.1488 93.4487 77.848 92.601C78.7239 93.6221 80.0934 95.1656 80.3466 96.5296C80.5085 97.4008 79.7593 99.5335 81.158 99.7112C81.3715 99.7383 82.1441 99.1615 82.2882 99.489C82.4083 99.7623 81.5731 100.23 81.4526 100.32C80.9379 100.707 80.627 101.121 80.2115 101.589C79.7237 102.139 79.057 102.602 78.5082 103.129C77.93 103.684 76.7861 105.191 76.0232 104.463C75.6398 104.097 75.7406 103.618 75.1264 103.404C74.567 103.208 73.8583 103.456 73.3386 103.673C72.7534 103.917 70.8261 104.808 70.6122 105.541C70.3172 106.553 71.9103 105.337 72.1934 105.159C71.8704 105.984 71.6919 107.179 70.8694 107.66C70.186 108.06 69.203 108.295 68.4533 108.527ZM57.5285 102.286C58.0755 100.517 61.301 97.3631 63.3397 98.3496C60.9638 98.8506 59.0783 100.487 57.5285 102.286ZM58.7347 107.352C57.9397 106.906 57.9825 105.611 57.7051 104.854C57.5457 104.419 57.2271 104.101 57.3208 103.619C57.4304 103.054 58.1473 102.425 58.5289 102.017C59.7297 100.733 61.843 98.9788 63.7759 99.2731C66.236 99.6477 64.5682 102.972 63.7305 104.116C63.0165 105.092 60.2652 108.211 58.7347 107.352ZM52.9953 105.189C50.3348 105.01 47.6833 104.771 45.059 104.279C44.1286 104.105 43.3491 104.131 43.8814 103.054C44.0572 102.699 45.117 100.472 45.3563 100.536C45.4981 100.574 45.4658 102.104 45.5074 102.28C45.6954 103.068 46.2229 103.802 47.1123 103.752C48.5676 103.67 49.5054 101.777 50.2716 100.761C50.8855 101.591 51.3298 102.514 51.9467 103.33C52.2417 103.721 53.2684 104.629 52.9953 105.189ZM37.3972 94.6794C36.9508 95.71 36.0531 96.6904 35.4287 97.6242C35.0757 96.8723 34.8275 95.146 35.6647 94.59C35.9817 94.3798 37.6794 94.0275 37.3972 94.6794ZM46.6248 97.7485C46.7475 97.3519 46.8836 96.9581 47.0353 96.5717C47.2956 97.3962 47.4287 97.4206 46.6248 97.7485ZM48.9021 98.5929C49.2251 99.1437 49.7634 99.6854 49.6789 100.377C49.6149 100.901 49.1441 101.439 48.8079 101.804C48.2514 102.408 47.0188 103.568 46.2126 102.765C45.5391 102.095 45.7737 100.252 46.0869 99.4981C46.5341 98.4206 48.1324 97.2808 48.9021 98.5929ZM47.3221 97.4642C47.5071 97.3902 47.1183 96.1879 47.4792 96.0681C47.7939 96.7904 48.0906 96.9858 47.3221 97.4642ZM42.2382 81.2844C42.1183 80.8408 41.8434 80.8594 41.9424 80.311C42.0074 79.9515 42.291 79.5675 42.5061 79.2827C42.9349 78.7148 43.5005 78.2467 44.112 77.8923C45.4033 77.1444 47.1763 76.8337 48.3324 78.0046C47.2517 78.1762 43.9385 79.2498 43.9174 80.7373C45.1192 80.5044 46.0643 79.2896 47.2697 78.9069C48.2591 78.5925 49.3319 78.6146 50.3161 78.9464C53.0102 79.8544 51.89 82.1977 50.3694 83.7196C49.4667 84.6233 48.3843 85.2979 47.2012 85.7635C46.6536 85.979 46.3175 86.0027 45.7793 85.8944C45.6784 85.8742 45.5606 85.686 45.4397 85.6456C45.1393 85.5454 45.2265 85.8848 44.9791 85.7323C44.7632 85.5996 44.3027 84.7423 44.1559 84.4967C43.9222 84.106 43.8133 83.7262 43.5263 83.3696C43.2392 83.0127 43.0994 82.5346 42.8338 82.2117C42.7063 82.0562 42.3566 82.0625 42.2628 81.911C42.1218 81.6833 42.3013 81.5173 42.2382 81.2844ZM38.1007 98.7598C38.7131 97.6892 39.7607 96.7802 40.5712 95.8446C40.6209 97.3825 39.5251 98.4356 38.1007 98.7598ZM38.9282 99.2542C40.1927 98.8065 40.8894 97.7352 41.0184 96.4365C41.1821 94.7913 42.2086 93.9277 42.8266 92.4498C43.0636 91.8833 43.3398 90.0194 44.2584 90.5529C44.5735 90.7358 44.7605 91.4242 44.9246 91.735C45.3219 92.4871 45.7737 93.2165 46.195 93.9548C46.538 94.5562 47.0523 95.1608 46.901 95.8848C46.7689 96.5158 46.3442 97.1883 46.0954 97.7835C45.5081 99.1892 44.7364 100.484 44.0918 101.859C43.8317 102.413 43.5239 103.726 42.7297 103.72C42.1011 103.714 42.1713 103.023 41.7575 102.786C41.2351 102.487 40.6412 103.056 40.212 103.292C40.7062 102.452 41.5701 101.977 42.5411 102.135C41.3784 100.97 40.5927 102.542 39.5948 102.892C38.6493 103.224 36.9719 101.659 36.1759 101.216C36.4805 100.697 36.7556 100.062 37.2794 99.7206C37.7761 99.3965 38.3858 99.4463 38.9282 99.2542ZM28.6474 109.903C28.7859 109.232 29.1772 108.835 29.4252 108.226C29.7128 108.965 29.0393 109.4 28.6474 109.903ZM48.7382 114.02C48.6702 116.279 48.4868 118.533 48.4206 120.792C48.3901 121.835 48.2067 122.829 48.085 123.859C47.9821 124.73 48.0345 125.586 47.4895 126.33C46.6304 127.504 44.9598 127.841 43.663 128.276C42.7106 128.595 41.7473 128.885 40.8068 129.239C39.9604 129.558 39.2785 130.042 38.4738 130.421C37.7539 130.761 36.9769 130.962 36.2604 131.323C35.5192 131.698 34.9335 132.153 34.1723 132.486C33.2609 132.885 32.51 133.594 31.6995 134.157C30.986 134.653 30.2312 135.035 29.6174 135.658C29.0418 136.243 28.3133 136.5 27.6611 137.019C26.9715 137.568 26.2496 137.925 25.4877 138.356C23.9269 139.239 21.8212 140.746 19.9428 139.888C20.48 139.198 21.5796 138.534 21.6632 137.583C21.7719 136.344 20.7001 136.8 20.0794 137.196C19.1393 137.795 18.6192 138.519 17.9035 139.318C17.0669 140.251 16.01 139.623 14.9863 139.36C15.6862 138.726 16.3806 138.086 17.0793 137.451C17.6692 136.915 18.5718 136.335 18.931 135.594C19.1877 135.064 19.1751 134.337 18.5557 134.062C17.8625 133.754 17.0787 134.403 16.5653 134.79C15.2026 135.816 14.3051 137.117 13.4103 138.545C12.9344 139.304 12.7151 139.246 11.8394 139.094C10.9115 138.933 9.98355 138.761 9.04798 138.649C10.2873 137.368 11.6723 135.98 12.6511 134.482C12.9683 133.996 13.382 132.716 12.4158 132.599C12.0176 132.55 11.2249 133.369 10.9179 133.59C9.5757 134.555 8.28528 135.773 7.39587 137.182C7.10209 137.648 7.00997 138.165 6.44125 138.204C5.6978 138.254 4.31649 137.54 3.59933 137.32C4.96988 135.581 6.3309 133.83 7.93229 132.296C9.40366 130.887 10.8713 129.864 12.5922 128.783C14.4364 127.625 16.1543 126.291 17.8474 124.923C19.4683 123.613 21.1614 122.377 22.6532 120.915C25.6335 117.993 28.2878 114.633 30.4859 111.08C31.0001 110.248 31.4844 109.395 31.9028 108.511C32.2959 107.68 32.4771 106.686 33.0077 105.931C33.1909 105.67 33.4493 105.476 33.6127 105.203C33.7667 104.947 33.7145 104.637 33.9495 104.41C34.493 103.885 35.4826 104.201 35.9904 104.569C36.8074 105.161 37.4682 105.879 38.3661 106.375C39.2692 106.873 40.2459 107.235 41.2459 107.48C43.5829 108.052 45.8998 108.521 48.2806 108.868C48.0357 109.783 48.6373 109.926 48.8367 110.749C49.0787 111.747 48.7686 113.003 48.7382 114.02ZM26.2351 98.7733C25.7053 97.9813 25.2324 97.1529 24.7116 96.3554C24.3944 95.8698 24.0012 95.3483 24.2724 94.7544C24.7289 93.7531 26.3399 93.5748 27.2139 94.0115C29.2012 95.0037 27.3551 97.8413 26.2351 98.7733ZM20.9751 80.655C20.792 79.1067 21.3804 78.0081 22.7725 77.1962C23.7646 76.6175 24.5635 77.4083 24.4279 78.4631C24.2219 80.0702 22.5154 81.8577 21.2129 82.6963C21.1278 82.0167 21.0556 81.3354 20.9751 80.655ZM20.7628 76.2248C21.1734 75.8967 22.2731 76.3152 22.7489 76.3438C22.0947 76.9192 21.4403 77.4944 20.7858 78.0696C20.743 77.6748 20.384 76.5275 20.7628 76.2248ZM22.9706 61.271C26.2815 60.8379 22.4702 64.4133 21.5106 64.9737C21.6667 64.2129 22.0504 61.3917 22.9706 61.271ZM31.7848 55.0112C31.3403 56.8438 27.8841 58.8429 27.8479 55.8412C27.8346 54.7227 28.4588 54.8133 29.3702 54.7058C29.89 54.6448 32.039 53.9637 31.7848 55.0112ZM19.8467 57.8492C19.4588 58.874 19.1476 59.9252 18.7673 60.9512C18.5987 61.4056 18.4006 61.7177 18.0868 62.0777C17.824 62.3787 17.5114 62.4548 17.5218 62.9304C17.8509 62.8665 18.1085 62.669 18.3743 62.4787C18.3099 63.4219 17.9787 64.4369 17.8182 65.3769C17.6261 66.5042 17.4661 67.6319 17.4067 68.775C17.2779 71.2608 17.2769 73.7375 17.3311 76.2248C17.3588 77.4921 17.3713 78.7602 17.4392 80.026C17.4731 80.6558 17.5114 81.2883 17.5888 81.9142C17.6203 82.1669 17.8025 82.705 17.6899 82.9417C17.2477 83.8715 15.2887 81.3177 14.438 81.6925C14.5604 80.985 14.2782 81.1398 13.8068 80.7919C13.5784 80.6233 13.4298 80.3365 13.1917 80.186C13.1197 80.1079 13.0404 80.0385 12.9538 79.9775C12.8555 79.8423 12.7516 79.8569 12.6425 80.0204C11.6839 79.444 11.4363 78.2152 10.9218 77.3887C10.6572 76.9637 10.4016 76.8975 10.3564 76.3098C10.3173 75.7977 10.3939 75.276 10.3732 74.7619C10.3498 74.1819 10.316 73.5423 10.1544 72.9806C9.96678 72.3285 9.70861 72.3819 9.20574 72.0344C9.36059 71.966 9.46287 71.8517 9.51235 71.6908C9.3517 71.7196 8.86372 71.9198 8.7424 71.7758C8.5039 71.4931 9.06662 71.4554 9.21444 71.3425C8.58361 71.0606 8.71942 70.829 8.94715 70.3125C9.01154 70.1662 9.07303 69.9479 9.1279 69.8248C9.24756 69.5554 9.3165 69.726 9.35604 69.3915C9.39352 69.0725 9.11258 68.4454 9.02976 68.1056C8.89105 67.5356 8.81424 67.0431 8.93887 66.4492C9.03991 65.9683 9.31173 65.5329 9.33057 65.0385C9.33596 64.8996 9.12582 64.8535 9.12292 64.7196C9.11878 64.5235 9.30056 64.4375 9.34776 64.2565C9.46846 63.7931 9.41401 63.3031 9.62042 62.8635C9.80613 62.4685 10.1813 61.9577 10.4467 61.6129C10.6307 61.3742 11.0823 61.105 11.1317 60.7898C11.1645 60.5808 10.8413 60.605 10.8556 60.4475C10.8752 60.2344 11.0529 60.1654 11.1015 60.0071C11.2359 59.5727 11.2696 59.155 11.6168 58.8221C12.0543 58.4029 12.2441 58.5785 12.2623 57.8871C12.271 57.5498 12.0029 57.4979 12.1466 57.109C12.2247 56.8979 12.4549 56.7733 12.6021 56.6235C13.0393 56.1798 13.3341 55.7856 13.6455 55.2371C13.9209 54.7527 14.36 54.4706 14.6422 54.0523C15.0094 53.5069 14.4602 53.2365 15.2057 53.0825C15.0997 52.744 14.9871 52.4702 15.266 52.1835C15.4419 52.0027 15.8881 52.1133 16.0438 51.9044C16.2222 51.6642 15.9585 51.0952 16.2274 50.9394C16.446 50.8129 16.7734 51.2031 17.117 51.01C17.3787 50.8627 17.7741 50.0498 17.6899 49.751C18.3669 50.1342 18.1981 49.8702 18.5221 49.3785C18.5948 49.2683 18.8149 49.244 18.8774 49.1327C19.0025 48.9102 18.9739 48.6835 19.1542 48.5027C19.4544 48.2019 19.9457 48.2792 20.2761 48.0642C20.5492 47.8867 20.5347 47.6952 20.7525 47.5277C20.9386 47.3846 21.2444 47.3571 21.4253 47.2088C21.7798 46.9181 21.7833 46.6115 22.2268 46.3612C22.752 46.065 23.2172 45.8129 23.695 45.4202C24.0064 45.1644 24.302 44.7106 24.6664 44.5417C25.1703 44.3081 25.5629 44.2917 26.0558 43.9583C26.4121 43.7175 26.749 43.32 27.0986 43.1169C27.3626 42.964 27.5477 42.9969 27.8802 42.9021C28.4787 42.7313 28.6244 42.1637 29.1126 41.9327C29.4478 41.7742 29.9358 41.9194 30.3039 41.836C31.4492 41.5773 32.5806 41.0192 33.73 40.71C35.1329 40.3329 36.5459 40.0025 37.9595 39.669C36.6604 41.4408 35.0058 43.0396 33.3276 44.4469C32.7767 44.9087 29.7581 47.0148 31.3852 47.9142C32.0384 48.275 33.4572 47.1092 33.9845 46.8242C35.0463 46.2502 36.1461 45.7908 37.2583 45.3267C39.0565 44.576 41.3985 43.241 43.397 43.3485C42.1804 44.8504 40.6619 46.056 39.2704 47.3829C37.9918 48.6021 36.0651 49.7458 36.668 51.7415C34.872 51.2817 33.2588 50.7381 31.3914 50.8585C30.555 50.9125 29.718 50.8112 28.8853 50.9292C27.98 51.0579 27.1274 51.3629 26.2572 51.6304C25.5689 51.8419 24.8082 51.8585 24.1749 52.2104C23.8689 52.3806 23.4905 52.6235 23.2155 52.8346C22.8489 53.116 22.7657 53.3025 22.4777 53.6733C21.4508 54.9967 20.4571 56.2371 19.8467 57.8492ZM14.2294 82.8948C14.1732 82.6656 14.1223 82.4569 14.0579 82.1952C14.6295 82.5494 14.6295 82.5494 14.2294 82.8948ZM9.90923 75.6004C9.83884 75.6983 9.54278 75.7298 9.45687 75.6452C9.34983 75.54 9.63119 75.1304 9.67632 75.0433C9.78791 75.1294 10.0446 75.4117 9.90923 75.6004ZM8.68547 72.9456C8.76103 72.6658 8.83702 72.3865 8.91258 72.1067C9.00554 72.3658 9.42457 72.6525 9.43389 72.8996C9.43968 73.0631 8.76828 72.9817 8.68547 72.9456ZM8.92832 73.3292C9.58419 73.7637 9.65292 74.2765 9.67238 75.0265C8.88753 74.7648 9.00016 74.0002 8.92832 73.3292ZM20.3347 43.7335C20.2687 43.9137 19.9875 44.4756 19.7817 44.0827C19.7159 43.9569 20.1979 43.7852 20.3347 43.7335ZM20.1465 43.121C20.3086 42.974 20.6353 43.1569 20.8187 43.0381C20.9473 42.9548 20.9047 42.8702 20.9651 42.8208C20.9771 42.811 21.1519 42.455 21.2235 42.3742C21.35 42.2323 21.6257 42.1438 21.7794 42.0154C22.209 41.6573 22.4514 41.186 22.7218 40.7069C23.0441 40.1348 23.147 40.0685 23.6671 39.8065C24.0257 39.626 24.3035 39.405 24.5952 39.0979C24.9314 38.7444 24.9068 38.4912 25.1828 38.1048C25.3192 37.9142 25.5155 37.8904 25.6742 37.7367C25.8647 37.5527 25.9614 37.2952 26.1376 37.1096C26.2136 37.0292 26.4579 37.0294 26.5038 36.9606C26.5626 36.8735 26.6084 36.5254 26.6634 36.4613C26.7684 36.6042 26.8738 36.7471 26.9788 36.89C27.3932 36.1565 27.6957 35.5504 28.3888 35.0623C29.1168 34.5496 29.7451 33.7996 30.4975 33.3406C30.6666 33.2375 31.0111 33.1942 31.1403 33.0421C31.3587 32.7848 31.1695 32.556 31.3289 32.3375C31.5096 32.09 31.8599 32.2904 32.0897 32.1838C32.3806 32.0485 32.4638 31.654 32.8382 31.6973C31.6069 33.1633 31.6223 35.4442 31.557 37.2752C31.5287 38.0642 32.0224 38.4619 31.2935 39.0408C30.6734 39.5333 29.7991 39.3871 29.066 39.7113C28.1454 40.1183 27.1607 40.3348 26.2216 40.6896C25.25 41.0565 24.4689 41.6987 23.534 42.1237C22.7094 42.4983 22.1464 43.0308 21.3922 43.4933C21.1119 43.6652 20.6778 43.9148 20.3434 43.7094C20.1341 43.5806 19.8732 43.3692 20.1465 43.121ZM34.0538 30.8294C34.1073 30.6213 35.1584 30.0738 35.4169 29.8952C35.8049 29.6267 36.3794 28.9713 36.8125 29.2317C36.9626 28.6267 37.5483 27.9535 38.0657 27.8254C38.6398 27.6829 39.6244 27.1877 40.1892 26.7552C40.3542 26.629 40.4085 26.4444 40.6027 26.326C40.9407 26.1196 41.2759 26.2323 41.6016 25.951C41.6513 25.9081 42.1018 25.1596 42.1196 25.1669C42.1426 25.2471 42.1637 25.3283 42.1819 25.41C42.5237 25.2192 42.8282 25.0675 43.0413 24.8242C43.0895 24.769 42.7763 24.6254 42.8752 24.516C42.9963 24.3821 43.2665 24.5319 43.3889 24.4048C43.0084 26.3056 43.2916 28.7523 45.2081 29.716C42.9291 29.9638 40.7031 29.2744 38.3959 29.6977C37.2916 29.9006 36.1689 30.2333 35.1644 30.7446C34.5489 31.0579 33.7617 32.1798 33.1491 31.635C33.3922 31.3088 33.7632 31.106 34.0538 30.8294ZM45.1118 25.3608C45.9641 24.3119 47.2568 23.8969 48.5587 24.2725C50.0828 24.7123 49.44 25.784 49.2098 26.974C48.77 26.325 47.8173 25.6815 47.0059 25.6619C45.8557 25.6344 46.2904 26.5988 46.9811 26.9444C47.609 27.2581 48.686 27.3456 49.1354 27.9167C49.5729 28.4721 49.4052 29.3806 49.4758 30.0358C49.1357 29.9848 48.7955 29.934 48.4553 29.8831C48.7408 28.3542 47.4844 28.2802 46.313 27.849C45.1292 27.4137 44.1421 26.5546 45.1118 25.3608ZM48.9292 21.5958V23.0148C48.4556 22.7429 47.9814 22.471 47.5073 22.1992C47.9814 21.9981 48.4556 21.7969 48.9292 21.5958ZM52.7388 32.9338C54.3212 33.3654 55.8927 33.8219 57.414 34.4173C57.9664 34.6335 58.5715 34.71 59.1129 34.9542C59.6284 35.1865 59.7058 35.1623 59.5224 35.6169C59.0088 36.8906 57.792 36.6706 56.726 36.4758C55.0574 36.1708 53.4233 35.7479 51.7755 35.35C50.1648 34.9615 48.5201 34.7067 46.9339 34.2194C45.306 33.7198 43.7197 33.2465 42.0452 32.9165C41.5566 32.8202 37.691 32.4633 37.7204 32.0569C40.1548 31.7385 42.6614 32.0521 45.1068 32.0852C47.6481 32.1196 50.2737 32.2615 52.7388 32.9338ZM50.5907 28.0069C50.6209 27.131 50.6331 26.2525 50.7412 25.3821C51.4654 26.2817 52.1192 26.5508 53.0322 25.7077C53.9063 24.9004 54.1013 24.4796 55.2095 25.2385C56.1702 25.8967 57.0792 25.8662 58.0995 25.2902C58.7218 24.9387 59.722 23.5029 60.3762 23.7985C60.6878 23.9394 60.9164 24.5073 61.231 24.7162C61.6261 24.9779 62.2333 25.1596 62.6935 25.2613C63.7808 25.5008 64.4284 24.7973 65.1108 24.0446C66.1004 22.9533 66.0714 23.5871 66.989 24.344C68.0121 25.1879 68.8678 24.7756 69.7945 24.0552C70.3588 25.7196 70.57 27.5371 70.7296 29.2819C70.7833 29.871 70.9843 30.7075 70.4584 31.1242C70.0878 31.4179 69.3013 31.4294 68.8548 31.5917C67.2596 32.1721 65.7267 32.9956 64.3926 34.0498C63.8728 34.4604 63.4196 34.9633 62.7092 34.8698C62.0323 34.7806 61.3745 34.2104 60.83 33.8338C60.2392 33.4256 59.6412 32.9619 58.9508 32.7342C58.5465 32.6008 57.8987 32.6492 57.5448 32.4048C56.8869 31.9502 57.6612 30.7581 57.4972 29.9579C57.3732 29.3504 57.0258 28.0837 56.1944 28.4398C54.957 28.9696 55.677 31.0379 56.3575 31.6835C54.9654 31.4348 53.4243 31.0715 52.0817 30.61C51.0447 30.2533 50.5534 29.0752 50.5907 28.0069ZM73.9368 32.2725C76.7944 31.465 79.4682 30.9206 82.442 30.7735C83.7585 30.7083 85.0328 30.7496 86.3346 30.7615C87.0839 30.7683 87.6548 30.1602 87.0563 29.4606C86.2278 28.4921 83.7004 28.8608 82.5805 28.8173C79.579 28.7006 76.8269 29.044 73.9842 30.0396C74.2848 29.4823 75.0069 29.41 75.5019 29.1219C76.1089 28.7681 76.5217 28.1854 76.7812 27.5388C77.4561 25.8571 76.7768 24.2723 76.0708 22.7358C77.4575 23.1112 78.892 23.9333 80.2862 24.1421C80.5787 24.1858 80.7661 24.1577 81.0247 24.2648C81.1835 24.3304 81.2336 24.5575 81.4303 24.6071C81.5253 24.6313 81.7534 24.415 81.8611 24.4456C82.2857 24.5665 81.9499 24.5985 82.2184 24.7733C82.4315 24.9121 82.4141 25.0908 82.8049 25.0252C82.9782 24.9965 83.1662 24.7267 83.2575 24.7194C83.3739 24.7098 83.3469 24.5673 83.525 24.609C83.8488 24.6846 83.8202 25.1044 83.9281 25.311C84.0432 25.531 83.8796 25.8235 84.2291 25.9437C84.4902 26.034 84.5558 25.7563 84.7779 25.7763C84.9127 25.7883 85.1926 25.984 85.3117 26.1029C85.6953 26.4867 86.2207 26.9102 86.7367 27.16C86.6859 27.1085 86.9799 26.985 86.9095 26.956C86.8623 26.9367 87.171 27.0117 87.1663 27.0106C87.4642 27.0788 87.6217 27.539 87.772 27.7069C88.049 28.0144 88.4792 28.3392 88.8672 28.475C89.5382 28.7098 89.5177 28.429 89.7626 29.2315C90.2396 28.4767 90.4227 29.7406 91.0141 29.8798C91.3205 29.9519 91.2849 29.8198 91.5632 29.9813C91.7545 30.0919 91.8818 30.4306 92.0259 30.5942C92.0878 30.3583 92.1495 30.1223 92.2112 29.8869C92.6373 30.6992 93.5571 31.9873 94.5658 31.7544C94.5658 31.976 94.4749 32.241 94.6455 32.4302C94.7645 32.5625 94.9575 32.4123 95.0506 32.4892C95.132 32.5563 95.3266 32.8233 95.3889 32.8673C95.5117 32.954 95.7345 33.0173 95.8411 33.1035C95.9351 33.1796 95.9817 33.5427 96.0858 33.6738C96.2816 33.9204 96.6203 33.9694 96.7804 34.2652C96.817 33.9735 96.8535 33.6817 96.8899 33.39C97.2077 33.6371 97.2348 33.829 97.3129 34.1902C97.424 34.7048 97.2766 34.5842 97.6294 34.8015C97.976 35.015 98.1567 34.991 98.4745 35.3617C98.7859 35.725 98.7888 35.949 99.2383 35.5704C99.3219 35.8504 99.3488 36.2125 99.572 36.4271C99.7405 36.5894 100.439 36.5962 100.505 36.9792C99.1937 35.8658 100.057 37.5569 100.506 36.9821C100.601 37.5973 101.048 37.796 101.559 38.2344C102.036 38.6425 102.114 38.6129 102.277 39.299C102.273 39.284 102.516 39.4356 102.534 39.466C102.069 39.5327 102.789 40.0548 102.911 40.1504C103 40.22 103.116 40.0535 103.263 40.1663C103.432 40.2954 103.569 40.5887 103.706 40.7656C104.079 41.2452 104.354 41.6573 104.746 42.0471C105.168 42.4679 105.374 43 105.78 43.4919C106.23 44.0381 106.473 44.6663 106.85 45.2592C107.208 45.8231 107.683 46.2758 108.098 46.7923C108.758 47.6142 108.983 49.424 110.214 49.4717C110.142 49.5469 110.243 50.1077 110.255 50.2113C110.313 50.7206 110.274 51.2108 110.574 51.6723C110.642 51.1458 110.916 51.3487 111.154 51.6252C111.549 52.0852 111.202 51.9694 111.223 52.4356C111.248 53.0006 111.312 52.5635 111.526 53.0569C111.693 53.4433 111.785 53.6942 111.875 54.1229C111.179 54.1785 110.861 53.6065 110.603 53.0523C110.496 52.8204 110.459 52.4394 110.268 52.2581C110.066 52.0652 109.788 52.05 109.58 51.8348C109.18 51.4212 109.007 50.7765 108.536 50.374C108.005 49.9194 107.887 49.7046 107.447 49.161C106.961 48.5598 106.289 48.1375 105.779 47.556C105.268 46.9733 105.309 47.2915 104.668 47.0806C103.985 46.856 102.881 44.6965 102.021 45.5283C102.055 44.9842 101.246 44.4723 100.836 44.2752C100.659 44.19 100.453 44.2671 100.276 44.1394C100.084 44.0008 100.071 43.7338 99.8767 43.5675C99.877 43.5677 99.5798 43.64 99.5196 43.6094C99.397 43.5469 99.396 43.3256 99.2877 43.2529C98.9882 43.0513 98.6308 42.84 98.3128 42.6683C97.5398 42.251 96.8566 41.7373 96.1106 41.235C95.4715 40.8046 94.6981 40.0273 93.9594 39.8004C93.3143 39.6023 92.9087 39.7033 92.3803 39.3065C92.0926 39.0904 92.1772 39.0177 91.7149 38.8833C91.2746 38.7554 91.0274 38.8213 90.7941 38.3515C90.386 37.5294 90.6436 35.9248 90.5647 35.0029C90.4808 34.0246 90.3812 33.0219 90.1278 32.0706C89.8281 30.9463 89.432 30.3585 88.2335 30.6233C85.8589 31.1485 83.513 31.6483 81.1276 32.1094C76.3741 33.0283 71.7023 34.5277 67.0534 35.859C66.6994 35.9606 64.7239 36.4156 65.1274 35.3877C65.3133 34.9135 66.5638 34.7369 66.9822 34.5879C69.28 33.7696 71.5882 32.9358 73.9368 32.2725ZM73.1382 30.1802C72.791 30.3133 72.4441 30.4465 72.0969 30.5798V29.6083C72.4441 29.799 72.791 29.9894 73.1382 30.1802ZM71.6954 25.0435C71.9971 25.2917 72.6105 24.6946 72.8668 24.5735C73.3051 24.3671 73.8628 24.1898 74.3525 24.2321C75.2551 24.3108 75.9154 25.2052 75.7499 26.1119C75.47 27.646 73.2979 28.3715 72.1002 28.9713C72.0619 28.4275 71.8869 27.774 72.2658 27.3037C72.5948 26.8954 73.2326 26.925 73.5361 26.4906C74.2999 25.3992 72.23 25.3002 71.7673 26.1681C71.5847 25.6133 71.4023 25.0588 71.2197 24.5042C71.6602 24.4306 71.4667 24.8556 71.6954 25.0435ZM73.832 22.0406C73.401 22.321 72.9699 22.6015 72.5391 22.8819C72.3254 21.9113 73.0536 21.7835 73.832 22.0406ZM113.103 55.8221C112.539 56.0931 112.398 55.4458 111.992 55.4179C112.471 55.1213 112.471 55.1213 113.103 55.8221ZM115.399 69.9562C115.469 70.8867 115.414 71.8277 115.537 72.7544C115.631 73.4594 115.915 74.1154 115.945 74.8283C116.011 76.3898 115.487 77.9798 114.429 79.1244C113.428 80.2071 111.996 81.139 110.645 81.5942C110.036 81.7992 109.401 82.2535 108.809 82.4215C108.155 82.6075 107.534 82.2029 106.994 82.9285C106.634 79.8156 106.897 76.5629 106.869 73.4304C106.84 70.291 106.874 67.1506 106.346 64.0452C105.876 61.2794 104.949 58.1683 103.242 55.9056C102.548 54.9869 101.694 54.2344 100.793 53.5298C100.326 53.1644 99.8581 52.7735 99.3376 52.485C98.5364 52.0406 97.854 52.1021 96.9827 51.9756C95.7357 51.7944 94.5765 51.6413 93.3248 51.9946C92.1596 52.3237 90.8765 52.6983 89.8326 53.27C88.7931 53.8396 87.5857 54.0744 86.5064 54.5844C85.7723 54.9315 84.2473 56.0908 83.4327 55.8821C82.6443 55.6798 81.477 54.3333 80.9735 53.73C80.3301 52.9592 79.7978 52.0656 79.227 51.2363C79.0266 50.945 78.6179 50.4948 78.566 50.121C78.4755 49.4719 78.7339 49.684 79.35 49.7567C80.9344 49.9435 82.4244 50.2394 83.9428 50.7413C84.6984 50.9908 86.176 52.001 86.9317 51.3956C88.0855 50.4715 86.3323 48.8829 85.6903 48.3494C84.5962 47.44 83.3242 46.7648 82.158 45.9567C80.9189 45.0981 79.2806 44.184 78.4832 42.8619C80.8116 43.5535 83.1378 44.3458 85.3982 45.2375C86.4325 45.6454 87.4549 46.0765 88.426 46.619C88.9718 46.9235 90.0742 47.7477 90.7311 47.3529C92.1594 46.495 88.879 44.0031 88.4058 43.494C87.6702 42.7027 86.9495 41.919 86.1413 41.201C85.5959 40.7167 84.7392 40.376 84.4856 39.6617C85.3908 39.9915 86.1226 40.6373 86.9702 41.076C87.4139 41.306 87.8188 41.4383 88.3089 41.5088C88.8314 41.584 88.8937 41.6677 89.3053 41.8767C89.6258 42.0398 89.9552 42.2575 90.3152 42.3683C90.5715 42.4475 91.0195 42.461 91.2437 42.6075C91.3584 42.7719 91.4766 42.9338 91.599 43.0927C91.7356 43.1331 91.8702 43.1796 92.0029 43.2327C92.2017 43.411 92.3197 43.6571 92.513 43.841C93.9169 45.1769 95.7945 46.1329 97.3683 47.2521C98.8573 48.3108 100.437 49.2685 101.868 50.424C103.513 51.754 105.221 53.1833 106.621 54.7781C107.412 55.6794 108.062 56.7012 108.727 57.6979C109.208 58.4196 109.908 59.0181 110.324 59.7623C111.23 61.3846 111.983 63.1381 112.959 64.7344C113.954 66.3606 115.249 67.9767 115.399 69.9562ZM102.021 79.369C102.293 78.2431 103.823 76.9285 104.8 76.4321C104.308 77.659 102.995 78.4954 102.021 79.369ZM104.544 83.2965C103.71 85.0375 100.043 85.2367 100.541 82.66C100.785 81.3977 101.819 80.6231 102.707 79.7969C103.118 79.4152 104.124 78.0494 104.759 78.2694C104.729 79.2512 104.672 80.2375 104.674 81.2196C104.675 81.875 104.839 82.6802 104.544 83.2965ZM103.484 63.2287C103.823 63.9933 104.16 64.6302 103.532 65.3144C103.249 65.6231 102.326 66.2985 101.908 66.1485C100.568 65.6675 103.123 63.5727 103.484 63.2287ZM95.3773 56.4248C95.7001 56.4071 96.0135 56.4554 96.3326 56.4356C96.6504 56.4158 96.6839 56.3592 96.9785 56.3996C97.0096 56.445 97.0406 56.4904 97.0717 56.536C97.1118 56.841 97.2713 56.8742 97.5493 56.6356C97.936 56.7221 98.1876 56.78 98.5573 56.9902C97.5592 57.7144 96.3444 58.5565 95.1208 58.7996C93.1867 59.1835 93.7211 56.5167 95.3773 56.4248ZM65.7282 72.7106C65.5278 73.1167 64.951 72.1023 64.8081 71.9133C65.0744 71.9125 65.9311 72.301 65.7282 72.7106ZM81.2679 62.0244C82.7706 61.1421 84.5552 60.3673 86.169 59.7104C86.4528 61.0863 85.0688 62.8623 84.2163 63.8037C83.5271 64.5652 82.696 65.3548 81.7615 65.7929C80.751 66.2667 79.6467 66.0585 79.6957 64.7294C79.7138 64.2435 79.8237 63.4619 80.0202 63.0179C80.2736 62.4454 80.7526 62.3265 81.2679 62.0244ZM60.9559 36.9973C61.1795 36.9842 63.609 36.6681 63.5962 36.9723C63.5579 37.8867 61.1998 37.1688 60.9559 36.9973ZM43.776 54.651C45.0592 53.0579 47.1308 51.3381 47.161 49.1115C47.2057 45.8348 43.5922 47.4696 41.7755 47.6058C42.7361 46.656 47.5635 42.6712 44.7081 41.256C43.8874 40.8492 42.7208 41.2467 41.8972 41.4598C40.436 41.8379 39.0775 42.4929 37.6419 42.9485C38.6677 41.8498 40.4399 40.601 40.382 38.9371C40.3109 36.9115 38.6586 37.4013 37.2299 37.6983C36.6809 37.8127 34.2282 38.7946 33.7673 38.1279C33.5986 37.8838 33.8717 37.5735 33.9294 37.356C34.0317 36.9715 34 36.8371 34.0035 36.4442C34.0106 35.6515 34.5339 34.6333 34.107 33.896C34.0095 34.0635 33.9259 34.2379 33.8563 34.419C33.7155 33.99 33.8102 33.5348 33.6694 33.1058C37.2363 34.0238 40.865 34.5262 44.4543 35.3098C46.2714 35.7065 47.9815 36.3894 49.8234 36.6969C51.6811 37.0067 53.5065 37.481 55.3675 37.7767C57.0656 38.046 58.6924 38.495 60.3739 38.8392C62.0132 39.1748 63.6943 38.4394 65.2942 38.0669C68.8777 37.2329 72.46 36.3785 76.0483 35.5694C80.1889 34.6352 84.4962 33.8365 88.4596 32.2785C88.5364 34.355 88.7014 36.4275 88.9536 38.4898C87.2033 37.6571 84.6057 36.5713 82.8362 38.0612C82.1279 38.6573 81.9097 39.6867 82.1896 40.5619C82.4944 41.5148 83.4275 41.9573 84.0432 42.6746C82.1694 42.191 77.335 38.7827 76.4745 42.2279C75.8667 44.6613 78.8314 46.2329 80.2808 47.6025C78.8413 47.319 76.9137 46.1608 76.0684 48.0221C75.3379 49.6313 76.2178 51.3821 77.119 52.7092C77.6074 53.4283 78.1567 54.105 78.6759 54.8017C78.9504 55.1702 79.2185 55.544 79.5069 55.9017C79.7964 56.2604 80.3421 56.636 80.545 57.0221C80.9532 57.8006 80.1293 57.8481 79.4887 58.1294C78.6887 58.4806 78.0018 59.0704 77.2704 59.5404C75.5953 60.6167 74.1311 61.6162 72.1517 61.9602C70.1137 62.3142 68.1513 62.684 66.1402 63.1779C64.1353 63.6702 62.4987 64.1431 60.4493 63.5069C59.515 63.2169 58.7539 62.959 57.7629 63.0135C56.7219 63.0708 56.1132 63.0165 55.2574 62.3677C51.5747 59.5765 47.5771 57.286 43.776 54.651ZM37.1365 51.849C38.5599 51.1302 39.9927 50.4081 41.4631 49.7906C42.68 49.2792 44.528 48.6835 45.8602 48.9077C45.4847 49.8785 44.7994 50.675 44.0642 51.3898C43.4141 52.0221 42.602 52.9762 41.8154 53.4175C41.101 53.8179 40.27 53.1835 39.5654 52.9177C38.7913 52.6258 37.726 52.4898 37.1365 51.849ZM37.4943 55.4744C38.2036 55.1779 39.7279 56.1731 40.3731 56.4319C41.6409 56.9406 42.9156 57.4719 44.033 58.2744C42.6686 59.861 41.1235 61.3117 39.2876 62.3306C38.0798 63.0012 36.0438 63.7702 34.9043 62.5527C33.4729 61.0229 35.1937 57.9058 36.2072 56.5948C36.2407 56.8192 36.2745 57.0431 36.3082 57.2675C36.6316 56.7467 36.8784 55.7321 37.4943 55.4744ZM63.5338 69.0535C62.6488 69.241 62.3482 69.0717 61.7639 68.3887C61.3691 67.9273 60.9812 67.4479 60.5358 67.0329C60.0814 66.6094 58.9593 65.5881 60.389 66.1762C61.6923 66.7121 62.8086 66.98 64.2425 66.77C65.882 66.5302 67.4105 65.8325 69.027 65.4796C68.1407 66.2598 67.261 67.0479 66.3733 67.826C65.4352 68.6479 64.7255 68.8008 63.5338 69.0535ZM63.7361 75.3292C61.7969 76.7977 57.8929 76.6387 59.2069 73.4077C59.4065 72.9169 59.6858 72.455 60.0089 72.0369C60.1166 71.8973 60.3083 71.6081 60.4619 71.5144C60.8909 71.2525 60.7718 71.2208 61.1842 71.6573C61.5399 72.034 64.3204 75.1102 63.7361 75.3292ZM63.1612 69.7148C63.3388 69.6567 64.0872 69.22 64.2578 69.4617C64.4305 69.7062 62.9631 70.5525 63.1612 69.7148ZM77.2784 92.1112C76.8424 93.1612 73.3529 94.681 74.003 92.5648C74.291 91.6273 74.5624 90.9175 75.6487 90.8462C76.2756 90.8054 77.6625 91.1869 77.2784 92.1112ZM83.538 77.8842C84.1126 77.0425 86.0096 75.9044 86.8195 77.1596C87.2097 77.7644 86.2628 78.0742 85.6901 77.9187C85.3827 77.8348 85.1311 77.65 84.7968 77.636C84.367 77.6183 83.9469 77.9577 83.538 77.8842ZM85.061 78.7198C84.6703 79.1177 82.3145 81.1125 81.9329 80.8048C82.7023 79.6981 83.5856 78.4621 85.061 78.7198ZM81.2133 98.9067C80.3953 98.9533 80.8038 97.7127 80.8829 97.2167C81.0808 97.5623 82.1222 98.855 81.2133 98.9067ZM83.2919 96.6831C83.0273 96.2094 82.3143 95.504 82.4753 94.8942C82.5987 94.4281 83.7117 93.8015 84.1778 94.0687C84.7968 94.4242 83.8995 96.7619 83.2919 96.6831ZM102.704 91.714C102.354 92.9273 101.991 92.6142 100.894 92.8494C99.7927 93.0852 99.0316 94.0258 98.0625 94.5304C98.3992 93.8142 98.6081 92.9415 99.1716 92.3602C99.302 92.226 100.101 91.961 99.6457 91.6502C99.2478 91.3785 98.6758 92.2602 98.5049 92.5006C97.6654 93.6833 97.0783 95.1277 96.5936 96.4885C96.3551 97.1569 96.1642 97.8379 96.0514 98.5398C95.9508 99.1652 96.0593 99.8198 95.9568 100.429C95.7918 101.41 94.4674 101.415 93.671 101.668C92.9499 101.897 92.2321 102.145 91.4837 102.269C90.8349 102.376 90.1616 102.181 89.5328 102.31C88.8519 102.449 88.5461 102.855 87.772 102.763C87.1412 102.689 86.5508 102.396 85.9112 102.367C85.3127 102.34 84.7158 102.549 84.1208 102.379C83.5204 102.208 83.5494 102.141 83.6861 101.548C83.7714 101.708 83.8569 101.868 83.9424 102.028C84.1817 101.839 84.3473 101.264 84.4939 100.993C84.7214 100.575 84.9067 100.43 84.8225 99.9083C84.698 99.1379 84.008 98.59 83.8515 97.8573C83.6881 97.0929 84.2498 96.4677 84.5819 95.8296C85.0357 94.956 85.0297 94.3081 84.6494 93.4048C84.9361 93.4808 85.2229 93.5571 85.5098 93.6335C85.1167 92.7748 83.7834 93.1229 83.1149 93.3773C82.7789 93.505 82.2462 94.0075 81.8847 93.9948C81.3878 93.9771 81.1288 93.3198 80.9154 92.9579C80.2974 91.9106 79.592 90.8765 78.8612 89.9042C78.6602 89.6367 78.3968 89.4648 78.4662 89.16C78.5254 88.9015 79.1016 88.5348 79.2885 88.3754C79.9895 87.779 80.8818 87.4483 81.5402 86.8204C82.5354 85.8717 83.683 85.1919 84.7003 84.2619C85.7603 83.2929 86.8524 82.4031 87.9569 81.4875C89.0757 80.5602 90.0448 79.4675 91.1555 78.5308C91.4433 79.0556 92.0009 80.9346 92.6383 81.08C93.3818 81.2494 93.3596 80.3644 93.3227 79.8317C93.27 79.0727 92.8511 78.3352 92.8046 77.6108C92.7544 76.836 93.4954 76.4896 94.0544 76.0415C94.9181 75.349 96.8294 73.7721 95.802 72.474C94.9169 71.356 92.0387 73.4996 91.2456 74.1442C90.5713 74.6919 90.0504 75.1873 89.2914 75.6194C88.7575 75.9229 87.8621 77.0908 87.2294 76.9829C86.4768 76.8548 86.1829 76.0277 85.2622 76.055C84.3624 76.0815 83.5983 76.7335 83.0403 77.3883C81.7791 78.8681 81.3458 80.8481 80.1964 82.3908C79.6297 83.1512 78.8947 83.7792 78.2801 84.499C77.6051 85.2887 77.4617 86.1985 76.7961 86.9715C74.8914 84.4181 72.8161 82.0004 70.8077 79.5308C69.8044 78.2975 68.8223 77.0496 67.8407 75.7992C67.4728 75.3304 67.0579 74.8906 66.7211 74.3983C66.2596 73.7242 66.3426 73.1827 66.1615 72.4308C66.0814 72.0975 65.7052 71.6983 65.8058 71.3798C65.9414 70.9519 66.8921 70.6158 67.2352 70.4408C68.6353 69.7256 69.9052 68.8317 71.211 67.9577C73.6287 66.3398 76.0746 64.8227 78.6461 63.4406C78.6018 64.036 78.2167 64.6531 78.4753 65.2504C78.5958 64.9069 78.7865 63.3758 79.2423 63.3102C79.155 63.3227 79.2268 65.2733 79.2974 65.5519C79.5078 66.3829 80.1183 66.9512 80.992 66.9456C82.6559 66.9348 84.1471 65.1135 85.0707 63.9071C85.6959 63.0902 86.2965 62.1402 86.5166 61.1177C86.7147 60.1998 86.4969 59.5615 87.4451 59.0952C89.3908 58.139 91.3522 57.3598 93.4331 56.8527C93.3399 57.755 93.0799 58.866 93.895 59.515C94.7947 60.2315 95.9719 59.5929 96.8189 59.119C97.658 58.6496 98.9517 57.3602 99.9372 57.7348C100.907 58.1031 101.581 59.3265 102.124 60.1387C102.602 60.8548 103.122 61.371 102.569 62.1692C101.948 63.0635 101.544 63.9365 101.047 64.9079C100.856 65.2815 100.673 65.525 100.808 65.9075C100.852 66.0319 101.35 66.771 101.486 66.8771C102.349 67.5531 103.515 66.2671 104.131 65.779C104.349 67.8812 104.397 69.9742 104.485 72.0829C104.549 73.6273 105.143 75.1479 103.884 76.2769C102.625 77.4056 101.574 78.5644 100.806 80.0925C100.396 80.909 100.028 81.7469 99.585 82.5465C99.2888 83.0806 98.6639 83.864 99.0463 84.4925C99.4498 84.1073 99.5699 83.5212 99.9061 83.0869C100.108 83.9885 100.31 84.989 101.258 85.3712C102.349 85.8108 103.433 85.05 104.399 84.6267C104.052 87.0373 103.377 89.38 102.704 91.714ZM101.589 94.485C100.84 96.0948 100.164 98.0356 98.7822 99.221C98.4787 99.4812 97.1891 100.497 96.6984 100.327C96.2818 100.182 96.511 99.3356 96.5837 98.9727C96.952 97.1306 97.5891 95.9715 99.0735 94.7962C99.6877 94.3098 100.477 93.6879 101.269 93.5679C102.122 93.4387 101.876 93.8665 101.589 94.485ZM122.7 132.695C120.76 130.039 118.017 127.976 115.425 125.981C114.251 125.077 112.957 124.399 111.771 123.495C110.43 122.474 109.068 121.488 107.566 120.718C104.718 119.257 101.611 118.239 98.9234 116.512C97.6126 115.67 96.1787 114.856 94.9465 113.911C94.4051 113.496 93.9271 112.965 93.4379 112.489C92.9834 112.047 92.0077 111.405 91.827 110.758C92.5832 110.634 93.0132 109.895 93.6884 109.82C93.9107 109.795 95.304 110.166 95.1136 109.486C95.6189 109.473 95.6777 109.465 96.1013 109.354C96.2767 109.308 96.4845 109.38 96.662 109.317C96.9334 109.22 97.1178 108.942 97.392 108.835C97.5868 108.76 98.3101 108.844 98.4199 108.75C98.7192 108.493 98.4012 108.515 98.2225 108.194C98.8045 108.179 99.2041 108.475 99.7875 108.16C99.9651 108.064 100.115 107.843 100.288 107.729C100.593 107.526 100.703 107.841 100.912 107.419C101.108 108.001 101.103 107.84 101.574 107.669C102.044 107.498 102.383 107.375 102.918 107.333C104.196 107.231 105.479 107.387 106.751 107.296C107.217 107.262 107.615 107.156 108.077 107.217C108.484 107.271 108.362 107.556 108.7 107.172C108.779 107.083 108.524 106.839 108.646 106.711C108.7 106.654 108.875 106.694 108.942 106.665C109.536 106.403 109.539 106.768 109.645 107.244C109.994 107.162 110.349 107.087 110.653 106.881C110.499 106.744 110.243 106.592 110.391 106.341C110.894 106.533 111.223 106.444 110.972 107C111.478 107.168 111.572 106.949 112.027 106.901C112.296 106.872 112.671 107.041 112.895 106.824C113.14 106.589 112.754 106.332 113.203 106.129C113.296 106.176 113.364 106.248 113.409 106.343C113.651 106.417 113.607 106.513 113.278 106.631C114.161 107.092 113.954 106.577 114.325 106.032C114.411 105.906 114.794 105.516 114.969 105.704C115.235 105.99 114.693 106.081 114.809 106.365C115.01 106.858 115.712 106.226 115.928 105.977C116.091 105.788 116.157 105.427 116.333 105.286C116.577 105.09 116.929 105.392 117.234 105.338C118.631 105.092 119.949 103.203 118.897 101.938C118.615 101.598 118.375 101.666 118.039 101.451C117.705 101.239 117.519 100.872 117.251 100.57C116.641 99.8783 115.894 99.3604 115.041 99.0294C113.063 98.2613 110.931 97.701 108.853 97.2887C107.891 97.0979 106.866 96.8058 105.881 96.8079C105.301 96.809 104.426 97.2633 103.884 97.0456C102.829 96.6227 104.378 94.4571 104.633 93.7577C105.384 91.7027 105.95 89.5119 106.322 87.3546C106.395 86.9323 106.367 86.3854 106.518 85.9831C106.691 85.5208 106.728 85.586 107.1 85.5485C107.77 85.4802 108.504 85.8342 109.202 85.7119C109.977 85.5765 110.813 85.6394 111.595 85.3983C111.954 85.2877 112.287 85.1675 112.523 84.8623C112.598 84.7667 112.515 84.6833 112.562 84.6165C112.577 84.5952 112.844 84.3052 112.853 84.2885C112.85 84.1385 112.863 83.9896 112.892 83.8423C113.162 84.0685 113.029 84.5431 113.485 84.5542C113.567 84.0481 113.568 83.946 113.898 83.6615C113.872 83.6833 114.146 83.4492 114.111 83.4742C114.128 83.3842 114.16 83.2998 114.21 83.2219C114.364 83.1471 114.527 83.1071 114.698 83.1027C115.055 82.7335 114.907 82.5367 114.907 82.0398C115.195 82.1902 115.483 82.3408 115.771 82.4912C115.84 81.0192 116.731 80.2131 117.323 79.0202C117.575 78.5119 117.832 78.1146 117.892 77.5015C117.927 77.1477 117.836 76.8356 117.982 76.5023C118.113 76.1998 118.409 76.0369 118.532 75.7073C118.775 75.059 118.594 74.2312 118.607 73.5579C118.626 72.6242 118.718 71.6933 118.749 70.76C118.808 68.9277 118.625 67.0448 118.353 65.2337C118.223 64.3675 118.005 63.5271 117.833 62.67C117.693 61.9654 117.356 61.3046 117.235 60.6494C117.185 60.3769 117.263 60.1325 117.181 59.8312C117.073 59.4354 116.894 59.046 116.76 58.6573C116.448 57.749 116.139 56.8421 115.788 55.9479C115.108 54.215 114.311 52.5342 113.554 50.8346C112.827 49.2002 112.224 47.5152 111.281 45.989C110.352 44.4858 109.352 43.0079 108.329 41.5692C107.263 40.0706 105.915 38.7831 104.881 37.2708C102.94 34.4315 100.232 32.0917 97.3992 30.1596C91.5537 26.1725 85.2367 22.1917 78.2273 20.8246C77.1708 20.6187 76.1008 20.4758 75.0243 20.4492C74.3562 20.4325 73.2494 20.7575 72.6169 20.53C71.9085 20.2752 71.9733 19.4746 71.7961 18.8465C71.5679 18.0392 71.0536 17.5102 70.4694 16.9394C69.8545 16.3387 69.2966 15.6369 68.5297 15.2283C67.7525 14.8146 66.8358 14.6598 65.9747 14.5348C65.206 14.4229 64.0574 14.5273 63.3552 14.1902C62.7155 13.8831 63.0314 13.5633 63.6303 13.8263C63.6742 13.5604 63.7096 13.3888 63.879 13.1833C63.9639 13.08 64.3655 12.9352 64.3752 12.839C64.3866 12.7261 64.0498 12.4048 64.0015 12.2593C63.898 11.946 63.9568 11.5121 64.0798 11.2181C64.6837 11.7583 64.8586 11.9975 65.5329 11.4812C65.8176 11.2632 65.905 11.167 66.2348 11.0571C66.3242 11.0272 66.5248 11.1194 66.6029 11.0677C66.9008 10.8702 66.6267 10.9168 66.7683 10.6834C66.7327 10.7423 66.983 10.122 66.971 10.2517C67.0014 9.92127 67.0985 10.0228 66.9004 9.61688C66.512 8.82275 65.5234 8.79027 66.0273 7.88398C66.2255 7.5274 66.4 7.56292 66.4559 7.0459C66.4859 6.76792 66.4486 6.44921 66.4474 6.16646C66.4449 5.58819 66.5532 5.18331 66.0147 4.88888C65.4971 4.60569 65.0197 4.91638 64.8096 4.21404C64.5895 3.47706 64.8112 2.53223 64.0179 2.02756C63.438 1.65886 62.601 1.97408 61.9604 1.79375C61.3184 1.61319 60.728 0.952189 60.0764 1.45969C59.6135 1.82038 59.368 2.70717 58.4957 2.22763C58.102 2.01133 57.8854 1.28519 57.637 0.877939C57.2415 0.228855 56.9244 -0.0056031 56.3157 0.626584C55.9406 1.0165 55.1495 1.96565 55.1011 2.5054C55.048 3.10121 55.5646 3.35019 54.916 3.70265C54.2709 4.0534 53.909 3.79619 53.3852 4.50804C52.8657 5.21427 53.2678 5.60442 52.6662 6.28013C51.9138 7.12471 51.5136 7.48929 51.5242 8.62723C51.5314 9.40773 50.8461 10.0819 51.2459 10.8224C51.6939 11.6522 53.0015 11.9973 53.7943 12.3351C53.5297 12.8272 53.1666 13.1427 53.4754 13.6492C53.7554 14.1079 54.5464 14.2033 55.0369 14.12C55.3667 14.0642 55.3785 14.1144 55.6381 13.8808C55.8083 13.7281 55.5749 13.5373 55.9252 13.4527C56.2979 13.3621 56.8933 14.0975 57.1353 14.2812C56.5944 14.9877 55.1087 15.1198 54.3226 15.4779C53.8438 15.6962 53.4034 16.0194 52.9156 16.2146C52.4732 16.3917 51.9347 16.3506 51.5335 16.6246C50.8408 17.0979 50.5524 18.2704 50.1277 18.9598C49.647 19.7402 49.181 20.1025 48.2587 20.2646C47.1082 20.4665 46.1817 20.5477 45.1087 21.0519C43.7984 21.6677 42.5067 22.3179 41.2198 22.9817C39.1441 24.0523 37.2158 25.1513 35.2884 26.446C33.2719 27.801 31.3105 29.2152 29.3648 30.6308C27.4402 32.031 25.8246 33.7535 24.1528 35.4469C22.8015 36.8156 21.6156 38.2929 20.2695 39.6613C18.6803 41.2771 17.5114 43.3163 16.038 45.0304C15.2318 45.9679 14.4604 46.89 13.9546 47.9946C13.5447 48.8902 12.8317 49.7688 12.3557 50.7081C11.7477 51.9092 11.1721 53.0913 10.4893 54.2525C10.2092 54.729 9.87631 55.1379 9.58067 55.5929C9.2018 56.1754 9.22416 56.7381 9.1223 57.4098C9.01589 57.2458 8.90968 57.0819 8.80327 56.9183C8.61032 57.3423 8.3772 57.7592 8.21012 58.1933C8.1035 58.4702 8.12027 58.8633 8.01324 59.1056C7.87887 59.4098 7.71532 59.3694 7.54783 59.6227C7.36875 59.8935 7.31099 60.2575 7.12238 60.5479C6.30647 61.8037 5.99261 63.3971 5.57338 64.83C5.01108 66.7523 5.09969 68.9617 5.13033 70.9437C5.16283 73.0373 5.27649 75.131 5.58932 77.2025C5.87274 79.0785 6.47851 80.8779 7.42692 82.5229C8.25339 83.956 9.39289 84.7912 10.8527 85.5254C11.523 85.8627 12.1452 85.7585 12.8487 85.8123C13.6194 85.8712 14.1451 86.0819 14.9606 85.8967C15.3517 85.8077 15.537 85.521 15.8477 85.4254C16.04 85.3665 16.1438 85.4629 16.3284 85.4404C16.5926 85.4081 17.1421 85.2779 17.4286 85.3092C18.3203 85.4071 18.1706 86.7635 18.2584 87.4558C18.3934 88.5227 18.4921 89.601 18.6743 90.661C19.0571 92.8906 19.8838 94.9733 20.3722 97.1644C18.1081 97.4423 16.1659 97.8675 14.0439 98.7298C11.915 99.5948 9.76244 99.8883 7.52195 100.318C5.42597 100.721 3.4099 101.472 1.73212 102.834C0.945812 103.472 0.128867 104.219 0.706277 105.27C1.07562 105.941 1.74123 106.112 2.31574 106.503C2.43188 106.355 2.09608 106.042 2.03459 105.955C2.51759 106.055 2.50289 106.282 2.85568 106.479C3.16395 106.652 3.41632 106.646 3.75378 106.767C4.57776 107.065 4.98271 107.809 5.79717 108.017C6.05348 108.083 6.38866 108.24 6.65056 108.285C6.96545 108.338 7.20106 108.2 7.52009 108.258C7.69213 108.372 7.87846 108.454 8.07845 108.503C8.20971 108.441 8.33931 108.377 8.46705 108.309C8.92542 108.356 9.20843 108.646 9.58088 108.885C9.60572 108.585 9.56991 108.273 9.8523 108.077C9.96264 108.369 9.78439 108.554 10.0854 108.755C10.4668 109.009 10.9676 108.691 11.309 108.53C11.4057 109.501 13.6389 109.444 14.3467 109.43C15.327 109.411 16.3063 109.019 17.2953 109.238C17.7998 109.349 18.3383 109.465 18.8406 109.61C19.4453 109.784 20.1763 109.939 20.7715 110.159C21.0084 110.246 21.2982 110.525 21.5502 110.506C21.7508 110.491 21.8046 110.194 22.0382 110.202C22.3023 110.212 22.3911 110.508 22.6197 110.597C22.9621 110.73 23.2768 110.477 23.6021 110.605C23.719 110.651 23.8774 110.848 24.0271 110.913C24.2542 111.01 24.7039 111.011 24.9567 111.058C25.315 111.125 25.6359 111.08 25.943 111.102C26.1906 111.12 26.1852 111.288 26.3036 111.299C26.4396 111.311 26.6763 110.841 26.8589 110.772C27.1247 110.671 27.6073 110.911 27.8785 110.952C25.914 113.632 23.5453 116 20.9777 118.074C18.2083 120.311 15.3722 122.545 12.4023 124.508C9.70572 126.289 7.09547 127.83 5.00487 130.345C3.242 132.466 0.435895 134.735 0.868383 137.808C1.30066 140.879 4.61461 142.129 7.26999 142.715C10.6098 143.453 14.0478 143.156 17.3965 143.571C18.8246 143.747 20.4113 143.653 21.8489 143.503C23.5468 143.325 25.002 142.21 26.4618 141.403C29.0874 139.953 31.332 138.013 33.9182 136.517C37.1564 134.644 40.3604 132.66 43.9104 131.406C45.5619 130.822 47.262 130.156 48.5943 128.956C48.7926 128.777 48.9402 128.508 49.1642 128.361C49.545 128.111 49.647 128.364 49.8681 128.288C50.0381 128.23 50.2029 128.045 50.3499 127.99C50.7223 127.849 50.8886 127.907 51.3058 127.907C50.9478 127.7 50.6201 127.164 50.9917 126.728C51.6277 125.981 51.7374 127.175 51.9763 127.452C52.179 127.19 52.1014 126.956 52.0496 126.659C52.2206 126.772 52.392 126.886 52.5633 127C52.4453 126.424 52.5575 125.893 52.8608 125.391C53.1405 124.929 53.2096 124.994 53.2866 124.352C54.1555 125.15 54.3253 123.213 54.4036 122.507C54.4791 121.822 54.4044 121.331 54.852 120.732C55.3325 120.089 56.0631 119.682 56.673 119.183C57.6366 118.394 58.6968 117.397 60.0292 118.154C61.0809 118.751 61.6534 120.216 62.6403 120.969C63.2388 121.426 63.8707 121.472 64.2523 122.18C64.5607 122.753 64.6609 123.438 64.9522 124.026C65.6578 125.451 66.6735 127.081 67.8322 128.174C68.9109 129.191 70.2955 129.186 71.5578 129.817C72.8072 130.442 74.1055 131.119 75.4282 131.571C76.8727 132.066 78.4304 132.276 79.8367 132.875C80.5601 133.184 81.2071 133.647 81.9369 133.942C82.724 134.261 83.5532 134.485 84.3506 134.776C87.5108 135.931 90.6032 137.348 93.9229 137.988C95.3953 138.272 96.7584 139.043 98.2416 139.206C98.8778 139.275 99.3966 139.363 100.019 139.524C100.996 139.775 100.789 139.908 101.149 140.728C101.741 142.077 103.186 141.278 104.301 141.312C106.084 141.366 107.841 141.076 109.621 141.062C112.735 141.038 115.734 140.685 118.746 139.656C121.771 138.623 125.214 136.134 122.7 132.695Z"
        fill="#211814" />
    <path fill-rule="evenodd" clip-rule="evenodd"
        d="M86.7031 27.2913C86.7458 27.3342 86.8458 27.3602 86.7031 27.2913V27.2913Z" fill="#211814" />
    <path fill-rule="evenodd" clip-rule="evenodd"
        d="M31.8485 84.7492C32.5249 84.0594 35.4026 84.1987 35.6202 85.4327C35.8627 86.8098 33.2913 88.89 32.3502 89.4731C31.1392 90.2237 29.661 90.3644 29.8757 88.48C30.038 87.0567 30.8854 85.7312 31.8485 84.7492ZM34.225 83.3292C34.3128 83.7108 33.6661 83.581 33.488 83.4904C33.404 83.3171 34.1373 82.9462 34.225 83.3292ZM29.2625 85.8548C29.8364 85.9067 30.4941 84.98 30.9272 84.6644C31.1185 84.9621 29.8565 86.5985 29.7176 86.9719C29.3708 87.9048 29.1778 89.0835 29.6507 90.0142C31.0324 92.7335 34.5685 88.8502 35.4529 87.4937C36.0718 86.5452 36.5001 85.3687 35.626 84.4392C35.3149 84.1079 34.8008 84.016 34.5118 83.7012C34.1312 83.2875 34.4306 82.7531 33.6656 82.8433C33.1377 82.9058 32.504 83.385 31.9908 83.5585C31.3721 83.7673 30.8161 83.984 30.2761 84.371C30.1544 84.4583 28.5534 85.7906 29.2625 85.8548Z"
        fill="#211814" />
    <path fill-rule="evenodd" clip-rule="evenodd"
        d="M69.8299 86.7675C69.4691 88.6358 67.6294 90.5525 65.6934 90.6269C63.7656 90.7008 63.1414 88.6683 63.4817 87.0483C63.772 85.6667 64.9587 83.2663 66.6518 83.5308C67.9828 83.7385 70.139 85.166 69.8299 86.7675ZM68.6022 83.6448C67.3799 82.6931 65.6912 82.2527 64.2744 83.0079C63.8099 83.2554 61.9557 84.3475 62.5198 85.0869C63.2807 84.4935 63.9374 83.6702 64.926 83.4729C64.7597 84.2442 63.8103 84.9379 63.4757 85.689C63.0846 86.5662 62.8708 87.5704 62.9347 88.5346C63.0488 90.2504 64.191 91.5837 65.9593 91.3479C67.5783 91.1319 68.9935 89.8833 69.7658 88.4796C70.797 86.6052 70.2161 84.9012 68.6022 83.6448Z"
        fill="#211814" />
    <path fill-rule="evenodd" clip-rule="evenodd"
        d="M57.2511 91.0145C56.3807 92.3112 55.0536 93.531 53.5193 93.9316C51.5329 94.4499 52.091 92.7981 52.6846 91.6126C53.2094 90.5645 54.1098 88.7616 55.4809 88.7714C55.9463 88.7743 56.813 89.0008 57.2208 89.2512C58.0247 89.7449 57.7092 90.3322 57.2511 91.0145ZM55.3971 88.1645C55.7095 87.8145 57.0925 86.3137 57.2778 87.4835C57.6749 87.0202 57.3616 86.6358 56.8532 86.5868C56.2399 86.5279 55.5693 87.2151 55.1267 87.5566C54.2158 88.2591 53.5146 88.9785 52.9109 89.9635C52.2453 91.0493 50.5482 93.5033 52.0335 94.5808C53.6388 95.7454 55.9753 93.5945 56.9807 92.4854C57.6235 91.7758 58.475 90.7339 58.2305 89.6935C57.9303 88.4156 56.4532 88.2814 55.3971 88.1645Z"
        fill="#211814" />
    <path fill-rule="evenodd" clip-rule="evenodd"
        d="M48.5473 67.2664C47.649 68.2978 45.8242 69.8005 44.3205 69.6235C42.9492 69.462 43.4845 67.913 43.9698 67.1634C44.699 66.0368 45.6758 64.9791 47.0871 64.9174C47.6964 64.8909 48.486 64.9034 48.9578 65.3676C49.6023 66.0018 49.022 66.7216 48.5473 67.2664ZM48.4518 64.4007C47.3995 64.0349 46.9861 63.8955 45.9633 64.4772C45.142 64.9443 44.4137 65.6045 43.8502 66.3541C43.0067 67.4762 42.156 70.0001 44.3218 70.3158C46.6975 70.6622 52.3484 65.7566 48.4518 64.4007Z"
        fill="#211814" />
    <path fill-rule="evenodd" clip-rule="evenodd"
        d="M51.6899 70.8405C51.0065 71.543 50.1533 72.1161 49.1794 72.3118C49.5914 71.387 50.5113 69.3659 51.6019 69.0845C52.1044 68.9545 52.6772 69.1247 52.636 69.7007C52.606 70.1172 51.9594 70.5632 51.6899 70.8405ZM52.5696 68.3955C52.0037 68.1101 52.1822 67.9151 51.5238 68.1391C51.005 68.3153 50.3506 68.6214 49.9185 68.9739C49.6829 69.1664 48.949 69.8484 49.0388 70.1955C49.2016 70.8264 49.749 69.8597 49.8928 69.6739C50.1394 69.8762 48.8784 71.6918 48.8035 71.9907C48.5238 73.1034 49.3918 73.2211 50.2425 72.857C51.3897 72.3663 54.7869 69.5134 52.5696 68.3955Z"
        fill="#211814" />
    <path fill-rule="evenodd" clip-rule="evenodd"
        d="M69.3895 98.3392C69.4742 97.6015 69.5945 96.8215 70.2673 96.4073C70.8735 96.0338 71.5014 96.088 71.5911 96.8538C71.6747 97.565 70.9822 98.8281 70.422 99.2161C69.6421 99.7565 69.4918 99.0829 69.3895 98.3392ZM70.3915 100.018C71.9929 99.075 73.0022 94.7507 70.0504 95.9625C68.373 96.6513 68.9899 100.843 70.3915 100.018Z"
        fill="#211814" />
    <path fill-rule="evenodd" clip-rule="evenodd"
        d="M56.715 82.0856C56.9676 81.5648 57.2564 81.3921 57.7686 81.1639C57.4272 81.4883 57.0784 81.7881 56.715 82.0856ZM57.0846 80.8021C56.7219 81.1683 55.8906 81.7266 56.0072 82.3556C56.1134 82.9297 56.5492 82.8968 56.9444 82.7179C57.7732 82.3429 58.2344 80.7014 59.1015 80.5477C58.1398 79.9344 57.9154 79.9629 57.0846 80.8021Z"
        fill="#211814" />
    <path fill-rule="evenodd" clip-rule="evenodd"
        d="M57.212 48.2018C57.2582 49.9499 57.2987 51.6979 57.337 53.446C57.3505 54.0604 57.2048 54.9362 57.388 55.5247C57.4689 55.7839 58.2006 56.9076 58.4602 56.9804C59.3685 57.2347 59.044 54.9433 59.0502 54.3791C59.0724 52.4756 59.0446 50.5699 59.037 48.6664C59.0326 47.6854 59.308 39.4599 58.043 39.5001C57.8252 39.507 57.2884 40.4474 57.2077 40.636C56.9534 41.2281 57.047 42.1058 57.0528 42.737C57.07 44.5579 57.164 46.3812 57.212 48.2018Z"
        fill="#211814" />
    <path fill-rule="evenodd" clip-rule="evenodd"
        d="M64.8707 53.2978C64.942 53.7812 64.9045 54.587 65.4452 54.8376C65.9156 55.0555 66.0959 54.7964 66.2719 54.3914C66.6765 53.4597 66.5305 52.0353 66.5231 51.072C66.5081 49.1628 66.2945 47.2618 66.1469 45.3599C66.0819 44.5253 66.2167 43.6872 66.1131 42.8139C66.0676 42.4307 66.0222 40.8891 65.3163 40.9609C64.678 41.0257 64.7355 42.6413 64.7008 43.0576C64.4113 46.523 64.361 49.8386 64.8707 53.2978Z"
        fill="#211814" />
    <path fill-rule="evenodd" clip-rule="evenodd"
        d="M94.998 93.0915C94.7274 94.4832 90.3137 99.3296 89.2023 96.6192C88.5429 95.0109 89.9723 93.2603 91.0867 92.3294C91.7766 91.7532 92.6382 91.1878 93.5784 91.3624C94.3765 91.5107 95.1696 92.2076 94.998 93.0915ZM92.7188 90.5951C92.407 90.6692 89.8013 92.5105 89.7775 92.4863C89.5512 92.2578 91.1946 89.7926 91.3637 89.5769C92.7571 87.8005 93.6819 89.1457 94.5533 90.5419C94.3678 89.708 93.8572 88.4972 93.0041 88.1444C91.9269 87.6992 91.0867 88.7982 90.5685 89.5884C89.8361 90.7053 89.4323 91.918 89.0253 93.1784C88.8311 93.7794 88.61 94.3244 88.2814 94.8663C87.957 95.4011 87.3893 95.9907 87.4732 96.6671C87.9345 96.4092 88.1794 95.9042 88.4698 95.4882C88.7941 95.6203 88.6827 96.6603 88.7485 96.9251C88.9139 97.5903 89.3657 98.1109 90.0642 98.2253C91.3662 98.4384 92.7718 97.2263 93.6423 96.403C94.5597 95.5355 95.547 94.3463 95.5392 93.0111C95.5307 91.6161 94.1674 90.2501 92.7188 90.5951Z"
        fill="#211814" />
    <path fill-rule="evenodd" clip-rule="evenodd"
        d="M96.2485 68.2319C95.5099 69.3696 94.2136 70.7334 92.8421 70.9977C91.8353 71.1917 91.1711 70.4409 91.5756 69.4273C91.9173 68.5706 93.0812 68.0296 93.8441 67.6527C94.4492 67.3538 97.2709 66.6575 96.2485 68.2319ZM95.7051 66.3711C94.1919 66.3136 92.9712 67.4144 91.8429 68.2931C92.0978 67.2838 92.6742 66.1856 93.4859 65.5288C94.5904 64.6346 95.6376 65.1898 96.8005 65.6369C96.5135 64.7259 95.2258 64.3981 94.4053 64.5269C93.3681 64.6898 92.6222 65.5808 92.0978 66.4429C91.4721 67.4713 91.2581 68.6832 90.5217 69.6477C90.1844 70.0892 88.0965 71.7415 88.5694 72.4167C89.349 71.5836 90.1291 70.7506 90.909 69.9175C91.1113 70.9021 91.334 72.0234 92.5833 71.9275C93.581 71.8509 94.7188 70.9975 95.4484 70.3452C96.3904 69.5027 98.2445 66.4677 95.7051 66.3711Z"
        fill="#211814" />
    <path fill-rule="evenodd" clip-rule="evenodd"
        d="M74.5077 76.0856C73.8667 76.382 72.4556 76.7852 72.0972 75.8941C71.5993 74.6564 73.2013 72.4856 73.9638 71.6608C74.4329 71.1535 74.7511 70.891 75.4051 71.2193C75.9273 71.4816 76.6945 72.2266 76.8947 72.7995C77.3247 74.0293 75.5103 75.6214 74.5077 76.0856ZM75.9784 70.1412C76.5003 70.2597 76.5643 70.9268 75.9115 70.6706C75.4225 70.4787 75.3089 69.9893 75.9784 70.1412ZM76.6337 71.0808C76.4388 70.4824 76.8353 69.5439 75.8753 69.5008C75.3314 69.4764 74.335 70.0329 73.8601 70.2591C73.2017 70.5724 72.5823 71.051 72.2386 71.7249C71.9202 72.3493 72.1475 72.5139 72.6328 71.9958C72.6922 72.0364 71.5351 75.0393 71.525 75.3402C71.4798 76.7152 72.4471 77.6208 73.8056 77.3771C75.0542 77.1529 76.1794 76.1254 76.8666 75.0885C77.2142 74.5635 77.4997 73.9627 77.5256 73.3197C77.5657 72.3337 76.9123 71.9372 76.6337 71.0808Z"
        fill="#211814" />
    <path fill-rule="evenodd" clip-rule="evenodd"
        d="M84.4093 68.3401C83.3164 67.8376 82.0957 69.5557 82.6226 70.5765C83.3137 71.9151 86.685 69.3865 84.4093 68.3401ZM83.106 70.2607C82.8787 69.8538 84.4227 69.2538 84.6668 69.2438C84.5447 69.4684 83.4178 70.8188 83.106 70.2607Z"
        fill="#211814" />
    <path fill-rule="evenodd" clip-rule="evenodd"
        d="M10.024 67.3568C9.96293 66.9218 8.99443 67.5532 9.00002 67.8332C9.16027 67.5107 10.1511 68.2628 10.024 67.3568Z"
        fill="#211814" />
    <path fill-rule="evenodd" clip-rule="evenodd"
        d="M62.995 34.4989C64.2281 34.4076 62.6569 28.1476 61.7584 28.7012C60.7841 29.3012 61.8634 34.5824 62.995 34.4989Z"
        fill="#211814" />
    <path fill-rule="evenodd" clip-rule="evenodd"
        d="M65.2978 31.5757C66.4531 31.7422 66.2694 29.0728 65.6481 28.5951C64.5012 27.7132 63.8952 31.3737 65.2978 31.5757Z"
        fill="#211814" />
</svg>