<svg
    xmlns="http://www.w3.org/2000/svg"
    width="280"
    height="280"
    viewBox="0 0 280 280"
    fill="none"
>
    <path
        d="M238.899 40.9506C211.815 13.8654 175.754 -0.590191 137.258 0.0184642C101.044 0.779284 66.8089 15.387 40.9421 41.407C15.0753 67.4271 0.468193 101.664 0.0117202 138.031C-0.59691 185.658 22.531 229.786 61.9398 256.262L61.7877 256.567L64.5265 258.088C65.2873 258.545 66.0481 259.001 66.961 259.458C88.8717 272.848 114.13 280 139.997 280C140.453 280 140.91 280 141.366 280C177.884 279.696 212.271 265.24 238.443 239.22C264.614 213.352 279.373 178.963 279.982 142.596C280.59 104.251 266.135 68.1879 238.899 40.9506ZM157.799 140.77C180.471 120.837 200.099 113.381 216.228 119.011C229.465 123.576 238.899 136.357 244.377 146.248C244.985 147.313 245.594 148.53 246.203 149.748C210.902 140.922 187.622 172.116 166.929 199.962C141.366 234.351 119.151 264.023 76.8513 242.416C49.4629 225.373 29.9867 197.832 22.8353 166.942C28.9216 175.159 36.3774 181.093 44.8982 184.745C73.1995 196.766 111.087 182.006 157.799 140.77ZM136.801 260.067C155.06 248.959 169.211 229.938 182.905 211.678C209.076 176.529 225.661 157.204 255.028 174.855C239.812 225.221 192.795 260.219 139.997 260.219C138.932 260.219 137.714 260.219 136.649 260.219C136.649 260.067 136.801 260.067 136.801 260.067ZM144.714 125.858C104.848 161.008 72.8952 175.159 52.6582 166.486C44.5939 163.138 37.8989 155.986 32.8777 145.335C22.8353 124.336 24.3569 99.3815 36.6817 78.535C58.288 42.32 97.849 19.7998 139.997 19.7998C204.207 19.7998 256.701 70.3182 260.049 133.771C254.876 125.097 247.876 115.815 238.747 108.968C212.424 89.0343 180.014 94.8166 144.714 125.858Z"
        fill="#DDE8FB"
    />
</svg>