<svg xmlns="http://www.w3.org/2000/svg" width="241" height="40" viewBox="0 0 241 40" fill="none">
    <path
        d="M33.7751 5.78928C29.946 1.96018 24.8477 -0.0834367 19.4053 0.00261033C14.2855 0.110169 9.44532 2.1753 5.78832 5.85381C2.13132 9.53232 0.0661923 14.3725 0.00165698 19.5138C-0.0843901 26.247 3.1854 32.4854 8.75695 36.2284L8.73543 36.2715L9.12265 36.4866C9.23021 36.5511 9.33776 36.6156 9.46684 36.6802C12.5645 38.5732 16.1355 39.5843 19.7925 39.5843C19.857 39.5843 19.9216 39.5843 19.9861 39.5843C25.1489 39.5412 30.0106 37.4976 33.7106 33.8191C37.4106 30.1621 39.4973 25.3004 39.5833 20.1591C39.6694 14.7382 37.6257 9.63988 33.7751 5.78928ZM22.3094 19.901C25.5146 17.083 28.2896 16.0289 30.5699 16.8248C32.4414 17.4702 33.7751 19.2772 34.5496 20.6754C34.6356 20.826 34.7217 20.9981 34.8077 21.1702C29.817 19.9225 26.5257 24.3324 23.6001 28.2691C19.9861 33.1307 16.8454 37.3255 10.8651 34.2709C6.99298 31.8615 4.23948 27.9679 3.22842 23.601C4.08889 24.7627 5.14297 25.6016 6.34763 26.1179C10.3488 27.8173 15.7052 25.7307 22.3094 19.901ZM19.3407 36.7662C21.9222 35.1959 23.9227 32.5069 25.8588 29.9255C29.5588 24.9563 31.9036 22.2243 36.0554 24.7196C33.9042 31.84 27.2571 36.7877 19.7925 36.7877C19.6419 36.7877 19.4698 36.7877 19.3192 36.7877C19.3192 36.7662 19.3407 36.7662 19.3407 36.7662ZM20.4594 17.7928C14.8233 22.7621 10.3058 24.7627 7.44473 23.5365C6.30461 23.0632 5.35809 22.0522 4.6482 20.5463C3.22842 17.5777 3.44354 14.0498 5.18599 11.1027C8.24066 5.98288 13.8337 2.79914 19.7925 2.79914C28.8705 2.79914 36.292 9.94105 36.7653 18.9115C36.0339 17.6853 35.0443 16.3731 33.7536 15.405C30.0321 12.587 25.4501 13.4044 20.4594 17.7928Z"
        fill="#1349E0" />
    <path d="M51.2871 14.9189V12.3008H63.6222V14.9189H59.024V27.3199H55.8852V14.9189H51.2871Z"
        fill="black" />
    <path
        d="M66.6861 27.3199V12.3008H69.8615V18.4976H76.3077V12.3008H79.4758V27.3199H76.3077V21.1157H69.8615V27.3199H66.6861Z"
        fill="black" />
    <path
        d="M83.1265 27.3199V12.3008H93.2468V14.9189H86.3019V18.4976H92.7261V21.1157H86.3019V24.7018H93.2761V27.3199H83.1265Z"
        fill="black" />
    <path
        d="M102.616 27.3199V12.3008H108.542C109.681 12.3008 110.651 12.5183 111.453 12.9535C112.255 13.3837 112.866 13.9826 113.286 14.7502C113.712 15.5129 113.924 16.3929 113.924 17.3903C113.924 18.3876 113.709 19.2677 113.279 20.0304C112.849 20.793 112.226 21.3871 111.409 21.8124C110.597 22.2378 109.615 22.4504 108.461 22.4504H104.684V19.9057H107.948C108.559 19.9057 109.062 19.8006 109.458 19.5903C109.859 19.3752 110.157 19.0794 110.353 18.703C110.553 18.3216 110.654 17.8841 110.654 17.3903C110.654 16.8916 110.553 16.4565 110.353 16.0849C110.157 15.7084 109.859 15.4175 109.458 15.2122C109.057 15.002 108.549 14.8969 107.933 14.8969H105.792V27.3199H102.616Z"
        fill="black" />
    <path d="M117.02 27.3199V12.3008H120.195V24.7018H126.634V27.3199H117.02Z" fill="black" />
    <path
        d="M132.741 27.3199H129.339L134.523 12.3008H138.615L143.793 27.3199H140.39L136.628 15.7329H136.511L132.741 27.3199ZM132.529 21.4164H140.566V23.8951H132.529V21.4164Z"
        fill="black" />
    <path
        d="M159.196 12.3008V27.3199H156.453L149.919 17.867H149.809V27.3199H146.633V12.3008H149.42L155.903 21.7464H156.035V12.3008H159.196Z"
        fill="black" />
    <path
        d="M162.852 27.3199V12.3008H172.972V14.9189H166.027V18.4976H172.451V21.1157H166.027V24.7018H173.001V27.3199H162.852Z"
        fill="black" />
    <path d="M175.957 14.9189V12.3008H188.292V14.9189H183.694V27.3199H180.555V14.9189H175.957Z"
        fill="black" />
    <path d="M197.168 27.3199V12.3008H200.344V24.7018H206.783V27.3199H197.168Z" fill="black" />
    <path d="M213.094 12.3008V27.3199H209.918V12.3008H213.094Z" fill="black" />
    <path
        d="M216.739 27.3199V12.3008H226.683V14.9189H219.914V18.4976H226.023V21.1157H219.914V27.3199H216.739Z"
        fill="black" />
    <path
        d="M229.852 27.3199V12.3008H239.972V14.9189H233.027V18.4976H239.451V21.1157H233.027V24.7018H240.001V27.3199H229.852Z"
        fill="black" />
</svg>